<?xml version="1.0" encoding="utf-8"?>
<!-- Generator: Adobe Illustrator 15.0.0, SVG Export Plug-In . SVG Version: 6.00 Build 0)  -->
<!DOCTYPE svg PUBLIC "-//W3C//DTD SVG 1.1//EN" "http://www.w3.org/Graphics/SVG/1.1/DTD/svg11.dtd">
<svg version="1.1" id="Ebene_1" xmlns="http://www.w3.org/2000/svg" xmlns:xlink="http://www.w3.org/1999/xlink" x="0px" y="0px"
	 width="215.916px" height="43.125px" viewBox="0 0 215.916 43.125" enable-background="new 0 0 215.916 43.125"
	 xml:space="preserve">
<image overflow="visible" width="1274" height="338" xlink:href="F3158FF2.jpg"  transform="matrix(1 0 0 1 -36.7114 -20.7485)">
</image>
<path fill="#E2027B" d="M59.897,0c-0.596,0.382-20.531,12.943-24.604,12.105c-3.961-0.813-0.493-10.509-0.204-11.282
	c-0.299,0.771-4.092,10.414-9.241,12.269c-5.391,1.94-13.697-4.664-13.861-4.802c0.163,0.139,8.362,6.789,5.027,10.266
	c-3.391,3.534-20.228,4.479-20.228,4.479s16.681-1.433,17.365,2.249c0.592,3.195-14.735,13.106-14.735,13.106
	s15.252-10.217,19.446-9.521c1.909,0.316,6.003-0.088,5.672-0.05c-6.503,0.762-11.143-2.257-9.267-6.796
	c1.874-4.535,8.666-8.833,15.175-9.58c5.656-0.65,7.5,0.16,8.449,3.12c0,0,0.114,0.214,0.095,0.054
	C38.646,12.709,59.301,0.385,59.897,0z M34.532,0.888c0.018-0.049,0.029-0.076,0.029-0.076S34.55,0.839,34.532,0.888z"/>
<g>
	<g>
		<path fill="#FFFFFF" d="M39.409,33.406l0.42,0.608c-0.125,0.125-0.252,0.233-0.374,0.326c-0.125,0.097-0.25,0.191-0.375,0.282
			c-1.345,0.938-2.682,1.65-4.008,2.135c-1.331,0.485-2.558,0.728-3.684,0.728c-0.125,0-0.25,0-0.375,0s-0.25-0.016-0.375-0.046
			c-0.499-0.029-1.03-0.111-1.592-0.238c-0.566-0.122-1.266-0.342-2.11-0.656c-0.25,0.064-0.505,0.136-0.772,0.212
			c-0.268,0.079-0.524,0.151-0.776,0.212c-0.37,0.093-0.758,0.192-1.147,0.31c-0.392,0.104-0.79,0.173-1.197,0.205
			c-0.532,0-0.929-0.203-1.197-0.607c-0.263-0.405-0.443-0.844-0.539-1.311c-0.062-0.222-0.102-0.425-0.115-0.612
			c-0.017-0.188-0.028-0.361-0.028-0.516c0-0.122,0.012-0.235,0.028-0.328c0.013-0.093,0.039-0.185,0.071-0.282
			c0.125-0.188,0.305-0.4,0.536-0.631c0.236-0.24,0.603-0.541,1.105-0.915c0.468-0.375,0.92-0.772,1.359-1.195
			c0.437-0.423,0.876-0.837,1.313-1.244c0.158-0.187,0.32-0.365,0.495-0.536c0.168-0.171,0.335-0.337,0.49-0.495
			c-0.129-0.466-0.217-0.874-0.279-1.22c-0.064-0.344-0.113-0.684-0.142-1.028c-0.029-0.16-0.046-0.313-0.046-0.467
			c0-0.159,0-0.33,0-0.52c0-1.842,0.546-3.476,1.632-4.897c1.089-1.426,2.627-2.133,4.62-2.133c0.714,0,1.269,0.2,1.658,0.612
			c0.388,0.401,0.582,0.984,0.582,1.734c0,0.688-0.166,1.391-0.499,2.109c-0.333,0.716-0.874,1.515-1.619,2.389
			c0.247,0.532,0.48,1.11,0.7,1.731c0.217,0.627,0.375,1.239,0.472,1.831c0.029,0.222,0.051,0.433,0.064,0.636
			c0.016,0.201,0.027,0.411,0.027,0.628c0,1.313-0.503,2.47-1.5,3.469c-1,1.001-2.482,1.812-4.45,2.438
			c0.468,0.125,0.875,0.234,1.217,0.329c0.345,0.09,0.689,0.154,1.031,0.188c0.157,0,0.326,0.007,0.519,0.024
			c0.185,0.014,0.37,0.021,0.559,0.021c1.498,0,2.971-0.321,4.406-0.964c1.442-0.643,2.739-1.398,3.896-2.273V33.406z
			 M26.903,35.583c0.049-0.043,0.087-0.083,0.118-0.113c0.282-0.314,0.47-0.626,0.564-0.938c0.092-0.314,0.143-0.672,0.143-1.081
			c0-0.438-0.065-0.904-0.19-1.403c-0.129-0.503-0.357-1.225-0.703-2.161c-0.379,0.377-0.76,0.735-1.15,1.08
			c-0.391,0.342-0.791,0.684-1.198,1.028c-0.03,0.035-0.071,0.065-0.115,0.097c-0.044,0.03-0.103,0.063-0.167,0.092
			c-0.218,0.218-0.437,0.423-0.652,0.612c-0.223,0.188-0.444,0.375-0.661,0.563l3.85,2.346
			C26.804,35.674,26.857,35.634,26.903,35.583z M32.085,24.599c0.396-0.498,0.705-0.968,0.923-1.405
			c0.211-0.438,0.364-0.877,0.452-1.314c0-0.125,0.009-0.25,0.025-0.377c0.017-0.125,0.021-0.249,0.021-0.372
			c0-0.566-0.102-1.027-0.318-1.388c-0.213-0.359-0.507-0.54-0.877-0.54c-0.274,0-0.501,0.149-0.684,0.451
			c-0.182,0.294-0.274,0.678-0.274,1.147c0,0.032,0,0.068,0,0.117c0,0.044,0,0.102,0,0.162c0.03,0.503,0.097,1.033,0.208,1.595
			c0.104,0.564,0.279,1.226,0.525,1.975V24.599z"/>
		<path fill="#FFFFFF" d="M50.835,18.975L45.954,32.02c-0.214,0.594-0.374,1.093-0.468,1.495c-0.093,0.407-0.142,0.747-0.142,1.031
			c0,0.437,0.158,0.795,0.471,1.074c0.314,0.283,0.721,0.424,1.225,0.424c0.472,0,1.042-0.111,1.717-0.329
			c0.673-0.219,1.357-0.532,2.045-0.937c0.189-0.094,0.369-0.194,0.542-0.305c0.17-0.109,0.35-0.227,0.54-0.351l-0.093-0.699
			c0-0.247,0.047-0.554,0.139-0.913c0.093-0.358,0.25-0.836,0.472-1.423l3.939-10.658l7.554-1.409l-4.926,12.952
			c-0.188,0.529-0.329,1.005-0.419,1.428c-0.1,0.416-0.144,0.786-0.144,1.093c0,0.472,0.145,0.847,0.448,1.125
			c0.294,0.283,0.677,0.424,1.148,0.424c0.718,0,1.619-0.245,2.694-0.729c1.083-0.488,2.293-1.198,3.64-2.138l0.377,0.517
			c-1.065,0.816-2.055,1.461-2.958,1.947c-0.907,0.484-1.799,0.853-2.678,1.104c-0.561,0.188-1.132,0.312-1.712,0.372
			c-0.575,0.063-1.178,0.093-1.806,0.093c-1.345,0-2.456-0.179-3.332-0.537c-0.875-0.363-1.583-0.929-2.114-1.712
			c-0.377,0.217-0.736,0.418-1.08,0.608c-0.342,0.189-0.708,0.344-1.082,0.466c-0.874,0.382-1.766,0.652-2.674,0.826
			c-0.909,0.17-1.866,0.256-2.864,0.256c-1.693,0-3.032-0.336-4.021-1.003c-0.982-0.672-1.475-1.581-1.475-2.734
			c0-0.279,0.03-0.585,0.095-0.91c0.063-0.333,0.141-0.666,0.234-1.008c0.03-0.092,0.055-0.178,0.069-0.257
			c0.018-0.076,0.039-0.166,0.071-0.255l3.94-10.615L50.835,18.975z"/>
		<path fill="#FFFFFF" d="M71.425,35.646l-0.095,0.376l0.095,0.187c0.063,0.033,0.128,0,0.211-0.094
			c0.079-0.093,0.164-0.215,0.258-0.377c0.404-0.931,0.881-2.018,1.428-3.252c0.55-1.233,1.15-2.502,1.81-3.815
			c1.28-2.464,2.83-4.729,4.645-6.791c1.814-2.061,3.896-3.088,6.238-3.088c1.099,0,1.962,0.275,2.606,0.822
			c0.639,0.544,0.96,1.285,0.96,2.221c0,0.282-0.03,0.563-0.092,0.844c-0.063,0.283-0.141,0.561-0.233,0.841l-3.684,8.847
			c-0.153,0.437-0.279,0.825-0.373,1.151c-0.094,0.328-0.139,0.615-0.139,0.864c0,0.499,0.171,0.895,0.514,1.171
			c0.344,0.283,0.816,0.421,1.41,0.421c0.873,0,1.706-0.188,2.487-0.561c0.783-0.373,1.548-0.798,2.297-1.269
			c0.222-0.121,0.439-0.255,0.658-0.398c0.219-0.137,0.439-0.275,0.656-0.397l0.424,0.513c-0.312,0.252-0.617,0.479-0.917,0.684
			c-0.297,0.203-0.599,0.395-0.911,0.587c-1.221,0.719-2.439,1.248-3.661,1.594c-1.22,0.343-2.469,0.516-3.753,0.516
			c-1.784,0-3.168-0.354-4.154-1.051c-0.984-0.708-1.475-1.68-1.475-2.931c0-0.248,0.014-0.506,0.049-0.772
			c0.027-0.263,0.09-0.539,0.183-0.815c0.03-0.159,0.078-0.323,0.138-0.494c0.063-0.173,0.123-0.336,0.187-0.49l4.149-10.158
			l0.141-0.427c0-0.029-0.018-0.052-0.05-0.067c-0.027-0.016-0.075-0.026-0.139-0.026c-0.027,0-0.06,0-0.089,0
			c-0.036,0-0.081,0.026-0.144,0.072c-0.063,0.047-0.155,0.133-0.281,0.259c-1.406,1.123-2.701,2.527-3.867,4.215
			c-1.177,1.679-2.264,3.415-3.263,5.192c-0.533,0.966-1.042,1.928-1.524,2.882c-0.487,0.95-0.949,1.865-1.387,2.737
			c-0.032,0.03-0.056,0.063-0.071,0.091c-0.015,0.032-0.021,0.064-0.021,0.096c-0.377,0.689-0.777,1.143-1.198,1.362
			c-0.423,0.215-1.022,0.328-1.804,0.328c-1.347,0-2.372-0.268-3.074-0.797c-0.703-0.532-1.059-1.313-1.059-2.342
			c0-0.342,0.05-0.723,0.143-1.146c0.095-0.42,0.237-0.898,0.421-1.431l4.082-11.046l7.463-1.359L71.425,35.646z"/>
		<path fill="#FFFFFF" d="M98.644,35.336L98.499,35.9c0,0.063,0.01,0.1,0.025,0.116c0.016,0.018,0.039,0.04,0.072,0.071h0.048
			c0.089,0,0.295-0.266,0.606-0.799c0.313-0.528,0.641-1.121,0.983-1.777c0.033-0.065,0.063-0.123,0.094-0.188
			c0.033-0.065,0.067-0.125,0.097-0.189c0.31-0.656,0.611-1.265,0.892-1.826c0.278-0.561,0.452-0.922,0.514-1.082
			c0.283-0.592,0.586-1.238,0.918-1.941c0.326-0.706,0.677-1.398,1.054-2.083c0.971-1.846,2.147-3.542,3.541-5.086
			c1.39-1.552,3.152-2.325,5.279-2.325c1.342,0,2.418,0.291,3.231,0.869c0.816,0.579,1.224,1.338,1.224,2.277
			c0,1.94-1.178,3.666-3.545,5.166c-2.359,1.507-5.261,2.382-8.7,2.632l0.047,0.093c1.281,0.03,2.342,0.123,3.169,0.279
			c0.83,0.16,1.6,0.469,2.317,0.932c0.375,0.251,0.758,0.554,1.148,0.91c0.394,0.359,0.824,0.77,1.295,1.237
			c0.344,0.374,0.671,0.68,0.985,0.911c0.311,0.233,0.626,0.414,0.937,0.536c0.218,0.097,0.436,0.164,0.66,0.21
			c0.221,0.049,0.435,0.072,0.654,0.072c0.159,0,0.307-0.007,0.444-0.022c0.14-0.019,0.291-0.04,0.445-0.073
			c0.315-0.062,0.665-0.196,1.058-0.4c0.39-0.203,0.884-0.508,1.479-0.915l0.416,0.518c-1.313,1.096-2.661,1.902-4.055,2.417
			c-1.393,0.513-2.823,0.77-4.295,0.77c-1.905,0-3.549-0.537-4.923-1.616c-1.377-1.078-2.611-2.808-3.705-5.183
			c-0.313,0.528-0.566,0.993-0.751,1.383c-0.188,0.391-0.374,0.758-0.564,1.103l-0.049,0.046c-0.029,0.063-0.069,0.132-0.112,0.211
			c-0.049,0.079-0.085,0.166-0.117,0.258c-0.313,0.655-0.6,1.204-0.847,1.641c-0.25,0.438-0.502,0.798-0.75,1.083
			c-0.344,0.434-0.718,0.711-1.123,0.818c-0.411,0.111-0.928,0.164-1.549,0.164c-1.313,0-2.349-0.303-3.101-0.913
			c-0.749-0.61-1.125-1.44-1.125-2.505c0-0.37,0.037-0.802,0.12-1.288c0.077-0.48,0.207-0.973,0.397-1.472l8.353-23.644l7.411-1.455
			L98.644,35.336z M103.374,29.493c1.188-0.501,2.294-1.144,3.311-1.924c1.012-0.789,1.854-1.616,2.507-2.487
			c0.41-0.531,0.729-1.057,0.964-1.574c0.237-0.517,0.357-1.007,0.357-1.479c0-0.342-0.101-0.631-0.285-0.865
			c-0.185-0.235-0.442-0.354-0.752-0.354c-0.53,0-1.212,0.519-2.041,1.549c-0.828,1.036-1.679,2.396-2.558,4.083
			c-0.251,0.469-0.499,0.961-0.748,1.475c-0.25,0.518-0.501,1.061-0.755,1.62V29.493z"/>
		<path fill="#FFFFFF" d="M126.275,32.798c-0.092,0.343-0.173,0.664-0.234,0.96c-0.065,0.297-0.094,0.586-0.094,0.871
			c0,0.504,0.155,0.892,0.47,1.173c0.312,0.281,0.768,0.419,1.36,0.419c0.844,0,1.65-0.189,2.416-0.583
			c0.768-0.393,1.49-0.838,2.182-1.338c0.251-0.156,0.49-0.311,0.725-0.471c0.237-0.155,0.478-0.313,0.729-0.468l0.419,0.423
			c-1.404,1.249-2.832,2.15-4.291,2.694c-1.456,0.548-3.028,0.826-4.714,0.826c-1.879,0-3.348-0.292-4.409-0.87
			c-1.065-0.58-1.598-1.402-1.598-2.468c0-0.247,0.031-0.522,0.094-0.823c0.064-0.295,0.127-0.598,0.193-0.912
			c0-0.063,0.005-0.125,0.02-0.185c0.018-0.065,0.04-0.125,0.063-0.194l4.226-11.634l7.508-1.549L126.275,32.798z"/>
		<path fill="#FFFFFF" d="M151.165,33.406l0.418,0.608c-0.119,0.125-0.248,0.233-0.372,0.326c-0.128,0.097-0.25,0.191-0.374,0.282
			c-1.345,0.938-2.687,1.65-4.013,2.135c-1.33,0.485-2.555,0.728-3.683,0.728c-0.123,0-0.244,0-0.373,0
			c-0.126,0-0.249-0.016-0.375-0.046c-0.496-0.029-1.029-0.111-1.593-0.238c-0.563-0.122-1.264-0.342-2.105-0.656
			c-0.252,0.064-0.508,0.136-0.776,0.212c-0.26,0.079-0.521,0.151-0.767,0.212c-0.384,0.093-0.764,0.192-1.158,0.31
			c-0.389,0.104-0.786,0.173-1.195,0.205c-0.528,0-0.929-0.203-1.198-0.607c-0.262-0.405-0.44-0.844-0.534-1.311
			c-0.06-0.222-0.102-0.425-0.119-0.612c-0.015-0.188-0.021-0.361-0.021-0.516c0-0.122,0.007-0.235,0.021-0.328
			c0.018-0.093,0.042-0.185,0.072-0.282c0.124-0.188,0.303-0.4,0.539-0.631c0.233-0.24,0.603-0.541,1.103-0.915
			c0.468-0.375,0.922-0.772,1.361-1.195c0.439-0.423,0.875-0.837,1.314-1.244c0.153-0.187,0.322-0.365,0.489-0.536
			c0.172-0.171,0.339-0.337,0.494-0.495c-0.125-0.466-0.219-0.874-0.283-1.22c-0.064-0.344-0.108-0.684-0.139-1.028
			c-0.032-0.16-0.046-0.313-0.046-0.467c0-0.159,0-0.33,0-0.52c0-1.842,0.542-3.476,1.632-4.897
			c1.086-1.426,2.628-2.133,4.617-2.133c0.717,0,1.269,0.2,1.657,0.612c0.388,0.401,0.587,0.984,0.587,1.734
			c0,0.688-0.171,1.391-0.501,2.109c-0.335,0.716-0.873,1.515-1.626,2.389c0.25,0.532,0.484,1.11,0.703,1.731
			c0.222,0.627,0.377,1.239,0.47,1.831c0.031,0.222,0.06,0.433,0.071,0.636c0.016,0.201,0.021,0.411,0.021,0.628
			c0,1.313-0.496,2.47-1.495,3.469c-1.001,1.001-2.482,1.812-4.451,2.438c0.464,0.125,0.879,0.234,1.218,0.329
			c0.343,0.09,0.688,0.154,1.03,0.188c0.158,0,0.327,0.007,0.515,0.024c0.188,0.014,0.378,0.021,0.563,0.021
			c1.501,0,2.965-0.321,4.406-0.964c1.441-0.643,2.738-1.398,3.896-2.273V33.406z M138.661,35.583
			c0.042-0.043,0.083-0.083,0.118-0.113c0.279-0.314,0.468-0.626,0.559-0.938c0.098-0.314,0.143-0.672,0.143-1.081
			c0-0.438-0.063-0.904-0.184-1.403c-0.13-0.503-0.362-1.225-0.707-2.161c-0.375,0.377-0.756,0.735-1.148,1.08
			c-0.393,0.342-0.791,0.684-1.195,1.028c-0.032,0.035-0.068,0.065-0.118,0.097c-0.052,0.03-0.104,0.063-0.166,0.092
			c-0.218,0.218-0.439,0.423-0.657,0.612c-0.219,0.188-0.438,0.375-0.658,0.563l3.853,2.346
			C138.559,35.674,138.616,35.634,138.661,35.583z M143.84,24.599c0.399-0.498,0.705-0.968,0.92-1.405
			c0.211-0.438,0.365-0.877,0.459-1.314c0-0.125,0.008-0.25,0.021-0.377c0.015-0.125,0.023-0.249,0.023-0.372
			c0-0.566-0.107-1.027-0.323-1.388c-0.214-0.359-0.507-0.54-0.869-0.54c-0.28,0-0.509,0.149-0.693,0.451
			c-0.18,0.294-0.274,0.678-0.274,1.147c0,0.032,0,0.068,0,0.117c0,0.044,0,0.102,0,0.162c0.032,0.503,0.102,1.033,0.21,1.595
			c0.104,0.564,0.282,1.226,0.527,1.975V24.599z"/>
		<path fill="#FFFFFF" d="M168.57,33.406l0.422,0.608c-0.128,0.125-0.254,0.233-0.376,0.326c-0.127,0.097-0.251,0.191-0.377,0.282
			c-1.343,0.938-2.682,1.65-4.011,2.135c-1.326,0.485-2.558,0.728-3.679,0.728c-0.127,0-0.249,0-0.375,0s-0.25-0.016-0.376-0.046
			c-0.497-0.029-1.032-0.111-1.594-0.238c-0.562-0.122-1.263-0.342-2.107-0.656c-0.243,0.064-0.51,0.136-0.772,0.212
			c-0.267,0.079-0.522,0.151-0.775,0.212c-0.371,0.093-0.76,0.192-1.148,0.31c-0.39,0.104-0.79,0.173-1.193,0.205
			c-0.532,0-0.933-0.203-1.197-0.607c-0.265-0.405-0.444-0.844-0.542-1.311c-0.061-0.222-0.099-0.425-0.113-0.612
			c-0.018-0.188-0.03-0.361-0.03-0.516c0-0.122,0.013-0.235,0.03-0.328c0.015-0.093,0.036-0.185,0.069-0.282
			c0.126-0.188,0.305-0.4,0.538-0.631c0.233-0.24,0.606-0.541,1.103-0.915c0.466-0.375,0.92-0.772,1.358-1.195
			c0.44-0.423,0.88-0.837,1.318-1.244c0.154-0.187,0.316-0.365,0.49-0.536c0.167-0.171,0.334-0.337,0.493-0.495
			c-0.131-0.466-0.217-0.874-0.28-1.22c-0.065-0.344-0.113-0.684-0.142-1.028c-0.032-0.16-0.048-0.313-0.048-0.467
			c0-0.159,0-0.33,0-0.52c0-1.842,0.542-3.476,1.631-4.897c1.092-1.426,2.63-2.133,4.621-2.133c0.713,0,1.268,0.2,1.659,0.612
			c0.382,0.401,0.582,0.984,0.582,1.734c0,0.688-0.165,1.391-0.502,2.109c-0.331,0.716-0.872,1.515-1.619,2.389
			c0.246,0.532,0.479,1.11,0.701,1.731c0.218,0.627,0.376,1.239,0.471,1.831c0.031,0.222,0.051,0.433,0.066,0.636
			c0.016,0.201,0.028,0.411,0.028,0.628c0,1.313-0.503,2.47-1.504,3.469c-0.999,1.001-2.48,1.812-4.448,2.438
			c0.469,0.125,0.876,0.234,1.216,0.329c0.345,0.09,0.688,0.154,1.032,0.188c0.157,0,0.326,0.007,0.517,0.024
			c0.187,0.014,0.37,0.021,0.561,0.021c1.497,0,2.971-0.321,4.408-0.964c1.437-0.643,2.733-1.398,3.895-2.273V33.406z
			 M156.064,35.583c0.048-0.043,0.085-0.083,0.115-0.113c0.285-0.314,0.472-0.626,0.564-0.938c0.095-0.314,0.143-0.672,0.143-1.081
			c0-0.438-0.064-0.904-0.188-1.403c-0.126-0.503-0.355-1.225-0.702-2.161c-0.377,0.377-0.762,0.735-1.15,1.08
			c-0.393,0.342-0.79,0.684-1.194,1.028c-0.035,0.035-0.074,0.065-0.12,0.097c-0.05,0.03-0.099,0.063-0.164,0.092
			c-0.223,0.218-0.437,0.423-0.654,0.612c-0.221,0.188-0.44,0.375-0.657,0.563l3.85,2.346
			C155.962,35.674,156.017,35.634,156.064,35.583z M161.246,24.599c0.396-0.498,0.702-0.968,0.919-1.405
			c0.215-0.438,0.366-0.877,0.454-1.314c0-0.125,0.01-0.25,0.026-0.377c0.014-0.125,0.021-0.249,0.021-0.372
			c0-0.566-0.106-1.027-0.319-1.388c-0.215-0.359-0.505-0.54-0.875-0.54c-0.276,0-0.504,0.149-0.688,0.451
			c-0.182,0.294-0.272,0.678-0.272,1.147c0,0.032,0,0.068,0,0.117c0,0.044,0,0.102,0,0.162c0.029,0.503,0.098,1.033,0.206,1.595
			c0.105,0.564,0.281,1.226,0.527,1.975V24.599z"/>
		<path fill="#FFFFFF" d="M187.451,33.358l0.379,0.656c-0.594,0.406-1.176,0.764-1.738,1.08c-0.563,0.312-1.127,0.593-1.688,0.841
			c-1.344,0.566-2.713,0.966-4.108,1.199c-1.385,0.233-2.947,0.351-4.666,0.351c-0.341,0-0.711-0.009-1.101-0.023
			c-0.391-0.016-0.775-0.039-1.15-0.069c-1.281-0.16-2.451-0.531-3.521-1.125c-1.063-0.594-1.597-1.652-1.597-3.187
			c0-0.717,0.113-1.561,0.329-2.529c0.224-0.966,0.552-2.064,0.985-3.279c0.938-2.531,2.337-4.576,4.198-6.14
			c1.856-1.558,4.195-2.341,7.008-2.341c1.437,0,2.529,0.275,3.282,0.822c0.745,0.544,1.126,1.366,1.126,2.458
			c0,0.126-0.016,0.244-0.027,0.353c-0.017,0.106-0.023,0.224-0.023,0.351c-0.219,1.623-1.194,3.194-2.929,4.707
			c-1.733,1.517-4.007,2.802-6.814,3.864c-0.063,0.377-0.111,0.68-0.142,0.92c-0.029,0.229-0.049,0.456-0.049,0.675
			c0,0.032,0,0.067,0,0.113c0,0.048,0,0.088,0,0.123c0,1,0.326,1.784,0.965,2.362c0.641,0.58,1.521,0.869,2.651,0.869
			c1.28,0,2.66-0.256,4.128-0.774c1.473-0.515,2.972-1.262,4.503-2.228V33.358z M175.617,30.381
			c0.373-0.281,0.819-0.682,1.337-1.195c0.516-0.515,1.054-1.102,1.618-1.761c0.345-0.375,0.673-0.774,0.983-1.197
			c0.311-0.422,0.623-0.835,0.94-1.244c0.591-0.844,1.081-1.67,1.479-2.484c0.387-0.814,0.583-1.504,0.583-2.067
			c0-0.313-0.102-0.569-0.305-0.772c-0.205-0.204-0.449-0.307-0.728-0.307c-0.095,0-0.18,0.009-0.255,0.026
			c-0.083,0.016-0.153,0.039-0.215,0.07c-0.688,0.284-1.354,0.983-1.991,2.11c-0.643,1.126-1.229,2.343-1.765,3.657
			c-0.399,1.035-0.755,2.027-1.053,2.981c-0.299,0.957-0.508,1.694-0.631,2.227V30.381z"/>
		<path fill="#FFFFFF" d="M214.508,33.406l0.378,0.566c-1.442,1.186-2.921,2.041-4.433,2.554c-1.522,0.52-3.263,0.779-5.231,0.779
			c-1.44,0-2.597-0.163-3.474-0.474c-0.877-0.313-1.581-0.816-2.113-1.498c-1.063,0.682-2.22,1.192-3.469,1.523
			c-1.255,0.325-2.554,0.492-3.895,0.492c-1.725,0-3.015-0.383-3.873-1.153c-0.86-0.767-1.287-1.923-1.287-3.46
			c0-0.656,0.06-1.338,0.187-2.042c0.12-0.708,0.31-1.419,0.563-2.141c0.909-2.48,2.424-4.746,4.547-6.802
			c2.128-2.052,4.539-3.081,7.227-3.081c0.722,0,1.378,0.071,1.971,0.211c0.595,0.14,1.161,0.383,1.69,0.729
			c0.095,0.061,0.193,0.129,0.305,0.207c0.108,0.08,0.211,0.154,0.307,0.213l4.547-12.83l7.461-1.358l-9.523,27.052
			c-0.125,0.347-0.212,0.624-0.261,0.846c-0.045,0.22-0.063,0.422-0.063,0.605c0,0.566,0.193,0.997,0.577,1.294
			c0.396,0.296,0.935,0.444,1.624,0.444c0.844,0,1.796-0.221,2.86-0.654c1.066-0.439,2.188-1.098,3.379-1.974V33.406z
			 M202.428,19.913c-0.455-0.265-0.958-0.397-1.523-0.397c-0.377,0-0.729,0.078-1.056,0.235c-0.33,0.154-0.65,0.407-0.963,0.753
			c-0.47,0.503-0.956,1.256-1.453,2.26c-0.506,1.003-1.067,2.334-1.689,4c-0.754,1.977-1.252,3.42-1.505,4.329
			c-0.244,0.911-0.391,1.71-0.423,2.402c0,0.032,0,0.062,0,0.094c0,0.032,0,0.064,0,0.095c0,0.688,0.208,1.241,0.613,1.643
			c0.407,0.412,0.955,0.617,1.645,0.617c0.215,0,0.434-0.016,0.654-0.051c0.22-0.03,0.437-0.09,0.657-0.184
			c0.342-0.127,0.68-0.292,1.008-0.497c0.331-0.203,0.667-0.462,1.009-0.774l-0.095-0.849c0-0.032,0-0.062,0-0.094
			c0-0.153,0.034-0.338,0.095-0.544c0.061-0.201,0.157-0.49,0.28-0.866l3.896-10.968C203.261,20.584,202.88,20.182,202.428,19.913z"
			/>
	</g>
	<polygon fill="#FFFFFF" points="133.801,11.286 126.368,12.805 124.716,17.572 132.177,16.025 	"/>
</g>
</svg>
