<?xml version="1.0" encoding="utf-8"?>
<!-- Generator: Adobe Illustrator 15.0.0, SVG Export Plug-In . SVG Version: 6.00 Build 0)  -->
<!DOCTYPE svg PUBLIC "-//W3C//DTD SVG 1.1//EN" "http://www.w3.org/Graphics/SVG/1.1/DTD/svg11.dtd">
<svg version="1.1" id="Calque_1" xmlns="http://www.w3.org/2000/svg" xmlns:xlink="http://www.w3.org/1999/xlink" x="0px" y="0px"
	 width="228.721px" height="54.85px" viewBox="-136.721 -29.053 228.721 54.85"
	 enable-background="new -136.721 -29.053 228.721 54.85" xml:space="preserve">
<g display="none">
	<g display="inline">
		<path fill="#FFFFFF" d="M9.028,7.88C8.112,8.283,7.314,8.835,6.632,9.537c-0.682,0.702-1.221,1.517-1.618,2.446
			c-0.397,0.929-0.605,1.92-0.625,2.972c0,0.62-0.117,1.204-0.351,1.75c-0.234,0.547-0.549,1.021-0.946,1.425
			c-0.397,0.401-0.865,0.724-1.404,0.959c-0.54,0.238-1.114,0.356-1.725,0.356v3.313c1.038,0,2.019-0.201,2.945-0.604
			c0.925-0.403,1.739-0.949,2.441-1.643c0.702-0.691,1.256-1.496,1.663-2.414c0.407-0.918,0.621-1.904,0.641-2.958
			c0-0.62,0.117-1.203,0.351-1.75c0.234-0.547,0.549-1.032,0.946-1.455c0.396-0.423,0.864-0.753,1.404-0.991
			c0.539-0.237,1.114-0.356,1.724-0.356l-0.122-3.313C10.92,7.277,9.943,7.478,9.028,7.88z M26.207,9.599
			c-0.692-0.701-1.506-1.259-2.442-1.671c-0.936-0.413-1.922-0.62-2.96-0.62c-1.058,0-2.05,0.207-2.976,0.62
			c-0.926,0.413-1.729,0.97-2.411,1.671c-0.682,0.702-1.221,1.523-1.618,2.462c-0.396,0.94-0.595,1.936-0.595,2.988v11.768
			l3.112,3.188V15.049c0-0.619,0.117-1.203,0.351-1.75c0.234-0.547,0.554-1.027,0.961-1.44c0.407-0.413,0.885-0.738,1.435-0.975
			c0.549-0.237,1.129-0.356,1.739-0.356c0.61,0,1.19,0.119,1.739,0.356c0.55,0.237,1.027,0.563,1.435,0.975
			c0.407,0.413,0.728,0.893,0.961,1.44c0.234,0.546,0.351,1.13,0.351,1.75c0,0.641-0.117,1.238-0.351,1.795
			c-0.234,0.559-0.555,1.045-0.961,1.456c-0.407,0.413-0.885,0.738-1.435,0.976c-0.549,0.238-1.129,0.355-1.739,0.355
			c-0.407,0-0.773-0.063-1.099-0.186l-0.763,3.128c0.569,0.145,1.19,0.216,1.861,0.216c1.038,0,2.024-0.2,2.96-0.604
			c0.936-0.402,1.75-0.955,2.442-1.656c0.691-0.701,1.241-1.522,1.648-2.463c0.407-0.938,0.61-1.944,0.61-3.019
			c0-1.053-0.204-2.048-0.61-2.988C27.448,11.122,26.898,10.301,26.207,9.599z M42.475,9.568c-0.692-0.702-1.5-1.254-2.426-1.657
			c-0.926-0.402-1.908-0.604-2.945-0.604c-1.059,0-2.05,0.202-2.976,0.604c-0.926,0.402-1.729,0.955-2.411,1.657
			c-0.682,0.702-1.221,1.522-1.617,2.461c-0.397,0.939-0.595,1.946-0.595,3.019c0,1.073,0.198,2.08,0.595,3.019
			c0.396,0.939,0.935,1.756,1.617,2.447c0.681,0.691,1.485,1.237,2.411,1.641c0.926,0.402,1.917,0.604,2.976,0.604
			c1.037,0,2.019-0.2,2.945-0.604c0.925-0.402,1.734-0.948,2.426-1.641c0.691-0.691,1.241-1.508,1.648-2.447
			c0.407-0.938,0.61-1.944,0.61-3.019c0-1.074-0.203-2.08-0.61-3.019C43.715,11.09,43.166,10.27,42.475,9.568z M41.208,16.798
			c-0.234,0.548-0.549,1.022-0.946,1.425s-0.87,0.723-1.419,0.961c-0.549,0.236-1.128,0.355-1.739,0.355s-1.191-0.119-1.74-0.355
			c-0.55-0.238-1.028-0.559-1.434-0.961c-0.408-0.402-0.728-0.877-0.962-1.425c-0.234-0.547-0.351-1.13-0.351-1.749
			c0-0.619,0.117-1.208,0.351-1.765c0.234-0.557,0.554-1.037,0.962-1.44c0.406-0.402,0.884-0.722,1.434-0.959
			c0.549-0.237,1.129-0.356,1.74-0.356s1.19,0.119,1.739,0.356c0.55,0.237,1.022,0.557,1.419,0.959
			c0.396,0.403,0.712,0.883,0.946,1.44c0.234,0.558,0.351,1.146,0.351,1.765C41.559,15.668,41.442,16.251,41.208,16.798z
			 M59.135,9.568c-0.691-0.702-1.5-1.254-2.426-1.657c-0.926-0.403-1.907-0.604-2.945-0.604c-1.058,0-2.05,0.202-2.975,0.604
			c-0.928,0.402-1.73,0.955-2.411,1.657c-0.683,0.702-1.221,1.522-1.618,2.461c-0.396,0.939-0.595,1.946-0.595,3.019
			c0,1.073,0.198,2.08,0.595,3.019c0.397,0.939,0.936,1.756,1.618,2.447c0.681,0.691,1.483,1.237,2.411,1.641
			c0.925,0.402,1.917,0.604,2.975,0.604c1.038,0,2.02-0.2,2.945-0.604c0.926-0.402,1.734-0.948,2.426-1.641
			c0.691-0.691,1.241-1.508,1.648-2.447c0.406-0.938,0.609-1.944,0.609-3.019c0-1.074-0.203-2.08-0.609-3.019
			C60.376,11.09,59.827,10.27,59.135,9.568z M57.869,16.798c-0.234,0.548-0.549,1.022-0.946,1.425s-0.87,0.723-1.419,0.961
			c-0.549,0.236-1.13,0.355-1.74,0.355c-0.611,0-1.189-0.119-1.738-0.355c-0.551-0.238-1.027-0.559-1.436-0.961
			c-0.406-0.402-0.729-0.877-0.961-1.425c-0.234-0.547-0.352-1.13-0.352-1.749c0-0.619,0.117-1.208,0.352-1.765
			c0.232-0.557,0.555-1.037,0.961-1.44c0.407-0.402,0.885-0.722,1.436-0.959c0.549-0.237,1.127-0.356,1.738-0.356
			c0.61,0,1.19,0.119,1.74,0.356c0.551,0.237,1.021,0.557,1.419,0.959c0.396,0.403,0.711,0.883,0.946,1.44
			c0.234,0.558,0.352,1.146,0.352,1.765C58.221,15.668,58.104,16.251,57.869,16.798z M76.102,9.599
			c-0.691-0.701-1.506-1.259-2.44-1.671c-0.937-0.413-1.935-0.62-2.991-0.62s-2.057,0.207-2.99,0.62
			c-0.937,0.413-1.75,0.97-2.441,1.671c-0.691,0.702-1.235,1.523-1.633,2.462c-0.396,0.94-0.584,1.936-0.564,2.988v7.74h3.174v-7.74
			c0-0.619,0.117-1.208,0.352-1.765c0.233-0.557,0.556-1.037,0.961-1.44c0.408-0.402,0.881-0.722,1.421-0.959
			c0.538-0.237,1.112-0.356,1.724-0.356s1.186,0.119,1.725,0.356c0.539,0.237,1.013,0.557,1.42,0.959
			c0.406,0.403,0.727,0.883,0.961,1.44c0.233,0.558,0.352,1.146,0.352,1.765v7.74h3.174v-7.74c0.021-1.053-0.168-2.048-0.564-2.988
			C77.338,11.122,76.793,10.301,76.102,9.599z M91.498,7.277c-1.036,0-2.014,0.201-2.93,0.604c-0.916,0.402-1.715,0.955-2.396,1.657
			c-0.683,0.702-1.221,1.517-1.618,2.446c-0.396,0.929-0.604,1.92-0.625,2.972c0,0.62-0.117,1.204-0.352,1.75
			c-0.232,0.547-0.549,1.021-0.946,1.425c-0.396,0.401-0.864,0.723-1.403,0.959c-0.539,0.238-1.113,0.355-1.725,0.355v3.313
			c1.038,0,2.02-0.2,2.945-0.604c0.926-0.402,1.74-0.948,2.441-1.641c0.701-0.691,1.256-1.496,1.664-2.416
			c0.404-0.918,0.619-1.904,0.639-2.957c0-0.62,0.117-1.203,0.353-1.75c0.233-0.547,0.55-1.032,0.945-1.455
			c0.397-0.423,0.864-0.753,1.405-0.991c0.537-0.237,1.111-0.356,1.724-0.356L91.498,7.277z"/>
	</g>
</g>
<path fill="#E2027B" d="M-88.892-27.964c-0.46,0.438-15.739,14.735-18.749,13.107c-2.929-1.588-0.027-14.115,0.215-15.116
	c-0.248,0.995-3.392,13.413-7.292,15.249c-4.083,1.92-10.064-7.952-10.185-8.156c0.12,0.204,6.018,10.124,3.416,14.355
	c-2.645,4.3-15.234,3.455-15.234,3.455s12.491,0.177,12.879,5.185c0.338,4.343-11.419,15.677-11.419,15.677
	s11.711-11.75,14.814-10.295c1.417,0.663,4.482,0.635,4.236,0.645c-4.879,0.208-8.238-4.413-6.693-10.247
	c1.546-5.83,6.754-10.726,11.633-10.911c4.24-0.159,5.589,1.155,6.201,5.232c0,0,0.078,0.303,0.069,0.085
	C-105.161-13.633-89.352-27.522-88.892-27.964z M-107.844-29.954c0.015-0.064,0.024-0.1,0.024-0.1S-107.829-30.018-107.844-29.954z"
	/>
<g>
	<g>
		<path fill="#FFFFFF" d="M-99.098,10.8l0.456,0.659c-0.134,0.135-0.271,0.253-0.405,0.352c-0.134,0.103-0.27,0.206-0.404,0.305
			c-1.452,1.015-2.896,1.786-4.332,2.308c-1.439,0.524-2.767,0.787-3.982,0.787c-0.134,0-0.269,0-0.401,0
			c-0.136,0-0.272-0.017-0.406-0.049c-0.54-0.034-1.115-0.123-1.721-0.255c-0.61-0.133-1.368-0.375-2.281-0.712
			c-0.268,0.07-0.547,0.148-0.833,0.229c-0.29,0.083-0.569,0.161-0.839,0.231c-0.402,0.098-0.819,0.21-1.241,0.333
			c-0.424,0.111-0.855,0.191-1.292,0.223c-0.574,0-1.005-0.221-1.295-0.655c-0.284-0.441-0.479-0.913-0.581-1.421
			c-0.067-0.238-0.11-0.458-0.125-0.658c-0.017-0.204-0.028-0.39-0.028-0.558c0-0.136,0.012-0.255,0.028-0.355
			c0.016-0.099,0.042-0.201,0.077-0.303c0.135-0.205,0.328-0.433,0.579-0.683c0.256-0.259,0.653-0.585,1.193-0.991
			c0.506-0.406,0.996-0.833,1.469-1.292c0.475-0.452,0.948-0.903,1.42-1.338c0.169-0.205,0.345-0.399,0.534-0.584
			c0.184-0.188,0.362-0.364,0.529-0.532c-0.137-0.504-0.234-0.946-0.301-1.317c-0.069-0.375-0.123-0.744-0.153-1.113
			c-0.034-0.172-0.052-0.339-0.052-0.508c0-0.168,0-0.354,0-0.56c0-1.99,0.59-3.757,1.767-5.291c1.177-1.542,2.84-2.305,4.991-2.305
			c0.77,0,1.372,0.216,1.791,0.66c0.418,0.435,0.632,1.061,0.632,1.875c0,0.742-0.18,1.501-0.54,2.276
			c-0.359,0.776-0.944,1.64-1.752,2.585c0.267,0.57,0.519,1.197,0.755,1.872c0.238,0.677,0.406,1.335,0.51,1.977
			c0.033,0.237,0.055,0.467,0.073,0.684c0.017,0.219,0.029,0.45,0.029,0.685c0,1.418-0.543,2.666-1.621,3.747
			c-1.081,1.082-2.683,1.958-4.81,2.636c0.507,0.132,0.946,0.25,1.315,0.358c0.371,0.094,0.744,0.164,1.113,0.199
			c0.171,0,0.354,0.007,0.56,0.025c0.2,0.017,0.4,0.023,0.607,0.023c1.618,0,3.207-0.35,4.76-1.043
			c1.556-0.694,2.958-1.51,4.208-2.458V10.8z M-112.61,13.155c0.054-0.049,0.095-0.09,0.125-0.125
			c0.307-0.337,0.507-0.675,0.61-1.013c0.103-0.34,0.156-0.727,0.156-1.169c0-0.473-0.072-0.977-0.203-1.517
			c-0.141-0.542-0.391-1.323-0.763-2.332c-0.407,0.404-0.819,0.791-1.243,1.166c-0.421,0.37-0.853,0.739-1.292,1.114
			c-0.033,0.035-0.078,0.068-0.125,0.101c-0.05,0.034-0.109,0.069-0.179,0.099c-0.234,0.238-0.474,0.458-0.708,0.661
			c-0.237,0.203-0.479,0.407-0.711,0.61l4.158,2.531C-112.718,13.253-112.662,13.211-112.61,13.155z M-107.012,1.286
			c0.43-0.54,0.761-1.048,0.995-1.521c0.231-0.471,0.396-0.946,0.493-1.418c0-0.135,0.01-0.271,0.026-0.408
			c0.018-0.134,0.024-0.269,0.024-0.403c0-0.61-0.115-1.107-0.346-1.499c-0.231-0.387-0.547-0.582-0.947-0.582
			c-0.296,0-0.542,0.161-0.74,0.484c-0.199,0.32-0.298,0.734-0.298,1.239c0,0.036,0,0.078,0,0.128c0,0.049,0,0.11,0,0.176
			c0.034,0.542,0.108,1.115,0.225,1.722c0.113,0.609,0.304,1.324,0.568,2.133V1.286z"/>
		<path fill="#FFFFFF" d="M-86.748-4.794l-5.273,14.098c-0.235,0.64-0.407,1.179-0.509,1.614c-0.1,0.44-0.153,0.808-0.153,1.117
			c0,0.465,0.172,0.86,0.513,1.161c0.336,0.302,0.775,0.455,1.321,0.455c0.508,0,1.126-0.121,1.855-0.355
			c0.729-0.238,1.466-0.575,2.21-1.008c0.203-0.102,0.4-0.212,0.583-0.333c0.187-0.116,0.379-0.242,0.586-0.379l-0.104-0.755
			c0-0.267,0.052-0.6,0.153-0.984c0.101-0.387,0.271-0.904,0.507-1.541l4.257-11.517l8.163-1.523l-5.322,13.998
			c-0.202,0.574-0.354,1.088-0.452,1.546c-0.106,0.448-0.155,0.846-0.155,1.182c0,0.507,0.159,0.914,0.484,1.215
			c0.317,0.302,0.733,0.455,1.242,0.455c0.774,0,1.748-0.266,2.911-0.79c1.169-0.523,2.477-1.292,3.932-2.305l0.406,0.557
			c-1.148,0.88-2.219,1.58-3.197,2.103c-0.977,0.527-1.942,0.923-2.891,1.192c-0.605,0.204-1.225,0.339-1.847,0.407
			c-0.625,0.066-1.276,0.098-1.956,0.098c-1.454,0-2.652-0.192-3.603-0.581c-0.943-0.388-1.707-1.003-2.281-1.853
			c-0.408,0.239-0.795,0.46-1.168,0.661c-0.37,0.205-0.764,0.373-1.167,0.506c-0.946,0.409-1.911,0.704-2.891,0.89
			c-0.983,0.185-2.016,0.28-3.096,0.28c-1.83,0-3.276-0.364-4.343-1.089c-1.063-0.725-1.596-1.709-1.596-2.954
			c0-0.302,0.033-0.632,0.102-0.982c0.068-0.357,0.152-0.718,0.253-1.089c0.032-0.1,0.061-0.193,0.075-0.277
			c0.021-0.083,0.043-0.182,0.077-0.276l4.259-11.47L-86.748-4.794z"/>
		<path fill="#FFFFFF" d="M-64.498,13.221l-0.102,0.408l0.102,0.202c0.068,0.034,0.143,0,0.228-0.105
			c0.084-0.097,0.18-0.231,0.28-0.403c0.438-1.012,0.955-2.181,1.544-3.513c0.596-1.333,1.239-2.705,1.955-4.125
			c1.384-2.664,3.057-5.11,5.02-7.337c1.96-2.229,4.209-3.34,6.744-3.34c1.184,0,2.119,0.298,2.814,0.887
			c0.691,0.589,1.039,1.391,1.039,2.401c0,0.307-0.034,0.608-0.1,0.914c-0.069,0.304-0.153,0.604-0.25,0.907l-3.985,9.561
			c-0.165,0.472-0.302,0.89-0.401,1.245c-0.102,0.355-0.15,0.663-0.15,0.935c0,0.538,0.185,0.961,0.556,1.265
			c0.37,0.301,0.879,0.456,1.522,0.456c0.944,0,1.841-0.203,2.685-0.609c0.848-0.403,1.673-0.862,2.482-1.37
			c0.24-0.133,0.479-0.276,0.713-0.43c0.237-0.151,0.473-0.296,0.71-0.435l0.456,0.56c-0.337,0.269-0.667,0.515-0.991,0.739
			c-0.322,0.218-0.648,0.427-0.982,0.63c-1.323,0.78-2.64,1.351-3.959,1.726c-1.318,0.371-2.667,0.556-4.055,0.556
			c-1.929,0-3.424-0.382-4.488-1.137c-1.063-0.764-1.595-1.812-1.595-3.166c0-0.27,0.018-0.545,0.051-0.833
			c0.034-0.285,0.1-0.584,0.2-0.882c0.032-0.171,0.086-0.35,0.15-0.536c0.067-0.188,0.134-0.364,0.201-0.529l4.486-10.976
			l0.149-0.46c0-0.032-0.018-0.059-0.051-0.073c-0.035-0.018-0.083-0.029-0.153-0.029c-0.03,0-0.064,0-0.098,0
			c-0.036,0-0.087,0.029-0.155,0.076c-0.068,0.049-0.167,0.147-0.302,0.281c-1.521,1.213-2.917,2.73-4.181,4.555
			c-1.271,1.813-2.444,3.692-3.527,5.609c-0.574,1.047-1.125,2.083-1.647,3.113c-0.524,1.029-1.024,2.018-1.496,2.96
			c-0.035,0.032-0.06,0.067-0.075,0.096c-0.016,0.037-0.025,0.069-0.025,0.107c-0.406,0.742-0.84,1.232-1.294,1.467
			c-0.456,0.235-1.107,0.357-1.951,0.357c-1.457,0-2.563-0.291-3.321-0.863c-0.763-0.573-1.145-1.418-1.145-2.53
			c0-0.369,0.056-0.782,0.157-1.239c0.102-0.452,0.252-0.968,0.456-1.544l4.41-11.938l8.062-1.469L-64.498,13.221z"/>
		<path fill="#FFFFFF" d="M-35.084,12.89l-0.154,0.605c0,0.069,0.01,0.108,0.028,0.128c0.012,0.02,0.039,0.043,0.071,0.075h0.054
			c0.098,0,0.321-0.285,0.659-0.861c0.34-0.57,0.691-1.215,1.062-1.924c0.035-0.068,0.07-0.131,0.104-0.201
			c0.03-0.07,0.068-0.133,0.103-0.206c0.333-0.707,0.656-1.367,0.962-1.971c0.304-0.607,0.489-1,0.555-1.169
			c0.307-0.639,0.637-1.341,0.991-2.096c0.355-0.763,0.736-1.516,1.14-2.254c1.046-1.995,2.32-3.828,3.828-5.495
			c1.5-1.676,3.404-2.512,5.702-2.512c1.453,0,2.619,0.314,3.494,0.938c0.884,0.626,1.323,1.448,1.323,2.463
			c0,2.097-1.272,3.961-3.831,5.579c-2.551,1.63-5.686,2.576-9.405,2.847l0.054,0.101c1.385,0.034,2.53,0.133,3.422,0.301
			c0.897,0.171,1.73,0.506,2.508,1.005c0.403,0.275,0.818,0.599,1.24,0.984c0.423,0.389,0.891,0.833,1.399,1.336
			c0.37,0.406,0.722,0.737,1.062,0.989c0.337,0.247,0.677,0.447,1.017,0.575c0.236,0.105,0.467,0.181,0.708,0.229
			c0.24,0.051,0.469,0.078,0.71,0.078c0.168,0,0.329-0.009,0.482-0.027c0.151-0.014,0.309-0.041,0.479-0.078
			c0.339-0.066,0.718-0.21,1.145-0.427c0.422-0.225,0.953-0.555,1.596-0.991l0.452,0.559c-1.42,1.181-2.878,2.052-4.382,2.61
			c-1.507,0.56-3.051,0.833-4.643,0.833c-2.061,0-3.836-0.581-5.319-1.746c-1.491-1.164-2.823-3.034-4.006-5.6
			c-0.337,0.572-0.61,1.073-0.811,1.495c-0.203,0.42-0.406,0.819-0.609,1.19l-0.053,0.049c-0.03,0.067-0.073,0.144-0.122,0.229
			c-0.051,0.083-0.093,0.178-0.126,0.28c-0.34,0.709-0.646,1.301-0.916,1.774c-0.27,0.472-0.54,0.862-0.808,1.169
			c-0.373,0.471-0.779,0.769-1.22,0.888c-0.437,0.116-0.995,0.175-1.669,0.175c-1.42,0-2.539-0.33-3.349-0.988
			c-0.811-0.66-1.217-1.556-1.217-2.709c0-0.401,0.041-0.866,0.131-1.388c0.082-0.521,0.224-1.053,0.427-1.593l9.024-25.553
			l8.014-1.57L-35.084,12.89z M-29.97,6.573c1.284-0.543,2.475-1.236,3.576-2.081c1.096-0.847,2.005-1.743,2.712-2.685
			c0.439-0.574,0.785-1.143,1.039-1.702c0.258-0.559,0.384-1.09,0.384-1.598c0-0.37-0.106-0.684-0.306-0.937
			c-0.201-0.255-0.476-0.383-0.811-0.383c-0.579,0-1.311,0.56-2.207,1.673c-0.893,1.118-1.817,2.591-2.764,4.412
			c-0.271,0.508-0.54,1.04-0.811,1.594C-29.427,5.43-29.7,6.016-29.97,6.62V6.573z"/>
		<path fill="#FFFFFF" d="M-5.223,10.144c-0.1,0.371-0.186,0.718-0.253,1.037c-0.069,0.325-0.1,0.637-0.1,0.942
			c0,0.543,0.167,0.963,0.506,1.268c0.339,0.306,0.827,0.454,1.469,0.454c0.914,0,1.782-0.206,2.612-0.63
			c0.827-0.425,1.612-0.905,2.357-1.446c0.269-0.168,0.529-0.338,0.785-0.506c0.255-0.169,0.516-0.339,0.786-0.51l0.457,0.456
			c-1.52,1.355-3.067,2.325-4.638,2.917c-1.573,0.591-3.271,0.89-5.097,0.89c-2.027,0-3.616-0.312-4.764-0.939
			c-1.153-0.626-1.724-1.513-1.724-2.664c0-0.27,0.031-0.568,0.1-0.891c0.066-0.322,0.135-0.65,0.207-0.99
			c0-0.066,0.008-0.129,0.021-0.2c0.019-0.066,0.041-0.133,0.074-0.203l4.564-12.578L0.25-5.123L-5.223,10.144z"/>
		<path fill="#FFFFFF" d="M21.672,10.8l0.457,0.659c-0.133,0.135-0.268,0.253-0.403,0.352c-0.138,0.103-0.271,0.206-0.406,0.305
			c-1.453,1.015-2.901,1.786-4.335,2.308c-1.438,0.524-2.759,0.787-3.978,0.787c-0.133,0-0.27,0-0.41,0
			c-0.133,0-0.262-0.017-0.399-0.049c-0.54-0.034-1.118-0.123-1.723-0.255c-0.605-0.133-1.364-0.375-2.278-0.712
			c-0.268,0.07-0.546,0.148-0.838,0.229c-0.281,0.083-0.562,0.161-0.832,0.231c-0.409,0.098-0.819,0.21-1.247,0.333
			c-0.418,0.111-0.85,0.191-1.292,0.223c-0.572,0-1.006-0.221-1.292-0.655c-0.286-0.441-0.478-0.913-0.579-1.421
			c-0.069-0.238-0.113-0.458-0.131-0.658c-0.016-0.204-0.02-0.39-0.02-0.558c0-0.136,0.004-0.255,0.02-0.355
			c0.018-0.099,0.046-0.201,0.079-0.303c0.133-0.205,0.328-0.433,0.583-0.683c0.253-0.259,0.651-0.585,1.191-0.991
			C4.347,9.181,4.834,8.754,5.31,8.295c0.472-0.452,0.947-0.903,1.422-1.338C6.898,6.753,7.079,6.559,7.26,6.373
			c0.187-0.188,0.363-0.364,0.534-0.532C7.658,5.336,7.557,4.895,7.488,4.524C7.418,4.149,7.371,3.78,7.337,3.411
			C7.304,3.239,7.289,3.071,7.289,2.903c0-0.168,0-0.354,0-0.56c0-1.99,0.587-3.757,1.762-5.291c1.178-1.542,2.84-2.305,4.993-2.305
			c0.774,0,1.366,0.216,1.791,0.66c0.419,0.435,0.632,1.061,0.632,1.875c0,0.742-0.184,1.501-0.541,2.276
			c-0.36,0.776-0.946,1.64-1.758,2.585c0.271,0.57,0.523,1.197,0.762,1.872c0.237,0.677,0.406,1.335,0.511,1.977
			c0.03,0.237,0.058,0.467,0.073,0.684c0.016,0.219,0.022,0.45,0.022,0.685c0,1.418-0.541,2.666-1.619,3.747
			c-1.078,1.082-2.681,1.958-4.806,2.636c0.5,0.132,0.945,0.25,1.313,0.358c0.371,0.094,0.744,0.164,1.115,0.199
			c0.168,0,0.35,0.007,0.555,0.025c0.206,0.017,0.408,0.023,0.608,0.023c1.62,0,3.206-0.35,4.761-1.043
			c1.56-0.694,2.96-1.51,4.208-2.458V10.8z M8.162,13.155c0.049-0.049,0.092-0.09,0.13-0.125c0.298-0.337,0.508-0.675,0.605-1.013
			c0.1-0.34,0.148-0.727,0.148-1.169c0-0.473-0.066-0.977-0.197-1.517C8.708,8.789,8.461,8.008,8.085,7
			C7.68,7.404,7.266,7.791,6.845,8.166C6.423,8.535,5.991,8.904,5.55,9.279C5.517,9.314,5.478,9.348,5.428,9.38
			C5.373,9.414,5.314,9.449,5.245,9.479C5.011,9.717,4.773,9.938,4.536,10.14c-0.235,0.203-0.47,0.407-0.71,0.61l4.16,2.531
			C8.053,13.253,8.111,13.211,8.162,13.155z M13.764,1.286c0.429-0.54,0.758-1.048,0.989-1.521c0.227-0.471,0.397-0.946,0.495-1.418
			c0-0.135,0.011-0.271,0.024-0.408c0.018-0.134,0.025-0.269,0.025-0.403c0-0.61-0.114-1.107-0.347-1.499
			c-0.234-0.387-0.546-0.582-0.941-0.582c-0.299,0-0.549,0.161-0.75,0.484c-0.192,0.32-0.296,0.734-0.296,1.239
			c0,0.036,0,0.078,0,0.128c0,0.049,0,0.11,0,0.176c0.037,0.542,0.11,1.115,0.226,1.722c0.114,0.609,0.305,1.324,0.575,2.133V1.286z
			"/>
		<path fill="#FFFFFF" d="M40.484,10.8l0.454,0.659c-0.132,0.135-0.271,0.253-0.405,0.352c-0.133,0.103-0.272,0.206-0.407,0.305
			c-1.452,1.015-2.895,1.786-4.33,2.308c-1.437,0.524-2.766,0.787-3.981,0.787c-0.133,0-0.268,0-0.403,0
			c-0.137,0-0.273-0.017-0.406-0.049c-0.54-0.034-1.114-0.123-1.721-0.255c-0.611-0.133-1.368-0.375-2.28-0.712
			c-0.264,0.07-0.551,0.148-0.836,0.229c-0.286,0.083-0.562,0.161-0.835,0.231c-0.401,0.098-0.82,0.21-1.242,0.333
			c-0.423,0.111-0.853,0.191-1.29,0.223c-0.577,0-1.009-0.221-1.294-0.655c-0.287-0.441-0.479-0.913-0.584-1.421
			c-0.067-0.238-0.105-0.458-0.123-0.658c-0.019-0.204-0.031-0.39-0.031-0.558c0-0.136,0.012-0.255,0.031-0.355
			c0.018-0.099,0.039-0.201,0.074-0.303c0.135-0.205,0.329-0.433,0.583-0.683c0.251-0.259,0.652-0.585,1.192-0.991
			c0.506-0.406,0.993-0.833,1.465-1.292c0.475-0.452,0.951-0.903,1.423-1.338c0.17-0.205,0.345-0.399,0.531-0.584
			c0.184-0.188,0.362-0.364,0.53-0.532c-0.137-0.504-0.231-0.946-0.298-1.317c-0.072-0.375-0.126-0.744-0.156-1.113
			c-0.033-0.172-0.051-0.339-0.051-0.508c0-0.168,0-0.354,0-0.56c0-1.99,0.586-3.757,1.765-5.291
			c1.176-1.542,2.84-2.305,4.991-2.305c0.772,0,1.374,0.216,1.792,0.66c0.417,0.435,0.627,1.061,0.627,1.875
			c0,0.742-0.173,1.501-0.537,2.276c-0.357,0.776-0.943,1.64-1.75,2.585c0.264,0.57,0.52,1.197,0.758,1.872
			c0.234,0.677,0.403,1.335,0.502,1.977c0.038,0.237,0.06,0.467,0.075,0.684c0.02,0.219,0.03,0.45,0.03,0.685
			c0,1.418-0.542,2.666-1.622,3.747c-1.079,1.082-2.683,1.958-4.809,2.636c0.508,0.132,0.946,0.25,1.315,0.358
			c0.373,0.094,0.744,0.164,1.113,0.199c0.175,0,0.354,0.007,0.561,0.025c0.201,0.017,0.4,0.023,0.604,0.023
			c1.624,0,3.211-0.35,4.764-1.043c1.555-0.694,2.958-1.51,4.209-2.458V10.8z M26.968,13.155c0.054-0.049,0.094-0.09,0.127-0.125
			c0.306-0.337,0.51-0.675,0.611-1.013c0.1-0.34,0.154-0.727,0.154-1.169c0-0.473-0.07-0.977-0.205-1.517
			C27.518,8.789,27.267,8.008,26.894,7c-0.403,0.404-0.819,0.791-1.241,1.166c-0.424,0.37-0.854,0.739-1.292,1.114
			c-0.035,0.035-0.079,0.068-0.127,0.101c-0.049,0.034-0.11,0.069-0.181,0.099c-0.238,0.238-0.471,0.458-0.706,0.661
			c-0.24,0.203-0.478,0.407-0.712,0.61l4.16,2.531C26.861,13.253,26.917,13.211,26.968,13.155z M32.566,1.286
			c0.432-0.54,0.762-1.048,0.997-1.521c0.232-0.471,0.395-0.946,0.491-1.418c0-0.135,0.011-0.271,0.028-0.408
			c0.016-0.134,0.025-0.269,0.025-0.403c0-0.61-0.116-1.107-0.349-1.499c-0.229-0.387-0.545-0.582-0.947-0.582
			c-0.294,0-0.542,0.161-0.738,0.484c-0.197,0.32-0.296,0.734-0.296,1.239c0,0.036,0,0.078,0,0.128c0,0.049,0,0.11,0,0.176
			c0.03,0.542,0.104,1.115,0.222,1.722c0.112,0.609,0.305,1.324,0.567,2.133V1.286z"/>
		<path fill="#FFFFFF" d="M60.889,10.75l0.41,0.709c-0.639,0.436-1.271,0.828-1.879,1.164c-0.607,0.339-1.215,0.645-1.822,0.913
			c-1.457,0.61-2.932,1.041-4.441,1.293c-1.496,0.256-3.186,0.382-5.043,0.382c-0.369,0-0.77-0.011-1.191-0.024
			c-0.42-0.018-0.837-0.046-1.239-0.074c-1.386-0.172-2.654-0.577-3.808-1.219c-1.146-0.641-1.724-1.786-1.724-3.444
			c0-0.773,0.12-1.685,0.355-2.731c0.239-1.043,0.596-2.229,1.062-3.543c1.016-2.735,2.529-4.947,4.538-6.636
			c2.006-1.684,4.534-2.53,7.573-2.53c1.553,0,2.734,0.298,3.547,0.887c0.807,0.589,1.217,1.477,1.217,2.655
			c0,0.139-0.016,0.266-0.031,0.383c-0.018,0.116-0.023,0.243-0.023,0.382c-0.234,1.755-1.287,3.45-3.168,5.086
			c-1.869,1.636-4.324,3.029-7.361,4.174c-0.066,0.406-0.117,0.735-0.15,0.995c-0.031,0.248-0.053,0.493-0.053,0.731
			c0,0.032,0,0.074,0,0.123s0,0.093,0,0.129c0,1.082,0.352,1.926,1.043,2.553c0.688,0.629,1.641,0.938,2.859,0.938
			c1.387,0,2.877-0.276,4.463-0.833c1.594-0.56,3.215-1.363,4.867-2.411V10.75z M48.102,7.532c0.4-0.305,0.883-0.736,1.441-1.291
			c0.559-0.557,1.141-1.192,1.752-1.903c0.373-0.406,0.727-0.836,1.064-1.292c0.334-0.459,0.674-0.903,1.014-1.345
			c0.641-0.912,1.17-1.805,1.6-2.687c0.416-0.877,0.629-1.623,0.629-2.233c0-0.338-0.107-0.613-0.332-0.836
			c-0.219-0.22-0.479-0.33-0.783-0.33c-0.102,0-0.195,0.01-0.277,0.027c-0.086,0.018-0.164,0.044-0.229,0.077
			c-0.742,0.307-1.463,1.062-2.158,2.281c-0.689,1.217-1.326,2.533-1.902,3.953c-0.434,1.118-0.814,2.192-1.137,3.222
			c-0.322,1.033-0.551,1.831-0.682,2.406V7.532z"/>
		<path fill="#FFFFFF" d="M90.129,10.806l0.408,0.607c-1.555,1.284-3.154,2.208-4.789,2.765c-1.645,0.557-3.527,0.837-5.656,0.837
			c-1.553,0-2.801-0.176-3.752-0.511c-0.945-0.337-1.705-0.88-2.283-1.618c-1.146,0.738-2.398,1.292-3.75,1.642
			c-1.352,0.358-2.758,0.536-4.207,0.536c-1.859,0-3.254-0.414-4.188-1.247c-0.926-0.829-1.391-2.076-1.391-3.736
			c0-0.714,0.066-1.451,0.201-2.209c0.133-0.763,0.338-1.535,0.613-2.318c0.979-2.675,2.615-5.125,4.914-7.346
			c2.299-2.219,4.902-3.331,7.807-3.331c0.779,0,1.488,0.078,2.133,0.229c0.641,0.15,1.252,0.414,1.824,0.787
			c0.102,0.065,0.213,0.141,0.328,0.224c0.123,0.086,0.23,0.164,0.332,0.229l4.914-13.864l8.063-1.467L81.357,10.252
			c-0.131,0.37-0.227,0.671-0.279,0.907c-0.051,0.238-0.07,0.458-0.07,0.658c0,0.61,0.209,1.078,0.625,1.397
			c0.43,0.318,1.008,0.479,1.758,0.479c0.908,0,1.941-0.234,3.086-0.707c1.156-0.477,2.367-1.189,3.652-2.133V10.806z M77.074-3.78
			c-0.488-0.287-1.035-0.432-1.646-0.432c-0.406,0-0.783,0.087-1.139,0.255c-0.355,0.169-0.701,0.44-1.041,0.813
			c-0.506,0.546-1.029,1.356-1.574,2.443c-0.539,1.086-1.148,2.524-1.824,4.324c-0.811,2.136-1.35,3.698-1.623,4.678
			c-0.266,0.984-0.422,1.848-0.455,2.595c0,0.036,0,0.07,0,0.102c0,0.037,0,0.07,0,0.103c0,0.746,0.223,1.339,0.658,1.78
			c0.443,0.441,1.033,0.662,1.779,0.662c0.234,0,0.469-0.017,0.705-0.054c0.238-0.029,0.475-0.099,0.709-0.2
			c0.373-0.139,0.736-0.317,1.092-0.534c0.357-0.22,0.719-0.503,1.09-0.842l-0.1-0.917c0-0.03,0-0.064,0-0.1
			c0-0.165,0.035-0.365,0.1-0.586c0.066-0.217,0.174-0.53,0.303-0.937L78.316-2.48C77.98-3.056,77.564-3.488,77.074-3.78z"/>
	</g>
	<polygon fill="#FFFFFF" points="2.912,-13.103 -5.123,-11.461 -6.906,-6.308 1.16,-7.979 	"/>
</g>
<path fill="#E2027B" d="M-99.753,20.018c-0.153-1.061-1.729-1.355-3.52-1.355c-1.576,0-2.909,0.537-2.909,1.377
	c0,0.414,0.368,0.834,1.729,0.988l4.119,0.486c1.791,0.209,2.617,0.914,2.617,1.854c0,1.512-1.974,2.43-5.251,2.43
	c-3.137,0-4.958-0.799-5.158-2.473h1.684c0.045,1.021,1.47,1.609,3.566,1.609c2.297,0,3.566-0.623,3.566-1.453
	c0-2.104-8.465-0.195-8.465-3.377c0-1.461,1.807-2.301,4.821-2.301c2.298,0,4.73,0.473,4.883,2.215H-99.753z"/>
<path fill="#E2027B" d="M-79.761,17.803c4.642,0,6.216,2.188,6.216,3.99c0,1.814-1.574,4.004-6.216,4.004
	c-4.635,0-6.213-2.189-6.213-4.004C-85.974,19.99-84.396,17.803-79.761,17.803z M-79.761,24.934c2.682,0,4.534-1.264,4.534-3.141
	c0-1.869-1.852-3.131-4.534-3.131c-2.678,0-4.529,1.262-4.529,3.131C-84.29,23.67-82.438,24.934-79.761,24.934z"/>
<path fill="#E2027B" d="M-59.578,17.998h1.593v6.736h6.366v0.861h-7.959V17.998z"/>
<path fill="#E2027B" d="M-31.394,17.998h1.591v4.537c0,2.168-2.144,3.262-5.143,3.262c-3,0-5.142-1.094-5.142-3.262v-4.537h1.589
	v4.586c0,1.455,1.27,2.35,3.552,2.35s3.552-0.895,3.552-2.35V17.998z"/>
<path fill="#E2027B" d="M-12.751,18.926h-4.684v-0.928h10.962v0.928h-4.684v6.67h-1.594V18.926z"/>
<path fill="#E2027B" d="M7.243,17.998h1.593v7.598H7.243V17.998z"/>
<path fill="#E2027B" d="M28.726,17.803c4.64,0,6.217,2.188,6.217,3.99c0,1.814-1.577,4.004-6.217,4.004
	c-4.637,0-6.215-2.189-6.215-4.004C22.511,19.99,24.088,17.803,28.726,17.803z M28.726,24.934c2.677,0,4.531-1.264,4.531-3.141
	c0-1.869-1.854-3.131-4.531-3.131c-2.679,0-4.531,1.262-4.531,3.131C24.194,23.67,26.047,24.934,28.726,24.934z"/>
<path fill="#E2027B" d="M56.625,17.998h1.592v7.598h-2.172l-6.768-6.48h-0.031v6.48h-1.592v-7.598h2.174l6.764,6.484h0.033V17.998z"
	/>
<path fill="#E2027B" d="M79.135,20.018c-0.15-1.061-1.73-1.355-3.52-1.355c-1.58,0-2.91,0.537-2.91,1.377
	c0,0.414,0.367,0.834,1.73,0.988l4.115,0.486c1.793,0.209,2.617,0.914,2.617,1.854c0,1.512-1.973,2.43-5.248,2.43
	c-3.139,0-4.959-0.799-5.158-2.473h1.684c0.049,1.021,1.471,1.609,3.566,1.609c2.297,0,3.566-0.623,3.566-1.453
	c0-2.104-8.463-0.195-8.463-3.377c0-1.461,1.805-2.301,4.818-2.301c2.299,0,4.73,0.473,4.883,2.215H79.135z"/>
</svg>
