<?xml version="1.0" encoding="utf-8"?>
<!-- Generator: Adobe Illustrator 15.0.0, SVG Export Plug-In . SVG Version: 6.00 Build 0)  -->
<!DOCTYPE svg PUBLIC "-//W3C//DTD SVG 1.1//EN" "http://www.w3.org/Graphics/SVG/1.1/DTD/svg11.dtd">
<svg version="1.1" id="Calque_1" xmlns="http://www.w3.org/2000/svg" xmlns:xlink="http://www.w3.org/1999/xlink" x="0px" y="0px"
	 width="135.853px" height="36.094px" viewBox="-43.853 0 135.853 36.094" enable-background="new -43.853 0 135.853 36.094"
	 xml:space="preserve">
<g display="none">
	<g display="inline">
		<path fill="#FFFFFF" d="M9.028,7.88C8.112,8.283,7.314,8.835,6.632,9.537c-0.682,0.702-1.221,1.517-1.618,2.446
			c-0.397,0.929-0.605,1.92-0.625,2.972c0,0.62-0.117,1.204-0.351,1.75c-0.234,0.547-0.549,1.021-0.946,1.425
			c-0.397,0.401-0.865,0.724-1.404,0.959c-0.54,0.238-1.114,0.356-1.725,0.356v3.313c1.038,0,2.019-0.201,2.945-0.604
			c0.925-0.403,1.739-0.949,2.441-1.643c0.702-0.691,1.256-1.496,1.663-2.414c0.407-0.918,0.621-1.904,0.641-2.958
			c0-0.62,0.117-1.203,0.351-1.75c0.234-0.547,0.549-1.032,0.946-1.455c0.396-0.423,0.864-0.753,1.404-0.991
			c0.539-0.237,1.114-0.356,1.724-0.356l-0.122-3.313C10.92,7.277,9.943,7.478,9.028,7.88z M26.207,9.599
			c-0.692-0.701-1.506-1.259-2.442-1.671c-0.936-0.413-1.922-0.62-2.96-0.62c-1.058,0-2.05,0.207-2.976,0.62
			c-0.926,0.413-1.729,0.97-2.411,1.671c-0.682,0.702-1.221,1.523-1.618,2.462c-0.396,0.94-0.595,1.936-0.595,2.988v11.768
			l3.112,3.188V15.049c0-0.619,0.117-1.203,0.351-1.75c0.234-0.547,0.554-1.027,0.961-1.44c0.407-0.413,0.885-0.738,1.435-0.975
			c0.549-0.237,1.129-0.356,1.739-0.356c0.61,0,1.19,0.119,1.739,0.356c0.55,0.237,1.027,0.563,1.435,0.975
			c0.407,0.413,0.728,0.893,0.961,1.44c0.234,0.546,0.351,1.13,0.351,1.75c0,0.641-0.117,1.238-0.351,1.795
			c-0.234,0.559-0.555,1.045-0.961,1.456c-0.407,0.413-0.885,0.738-1.435,0.976c-0.549,0.238-1.129,0.355-1.739,0.355
			c-0.407,0-0.773-0.063-1.099-0.186l-0.763,3.128c0.569,0.145,1.19,0.216,1.861,0.216c1.038,0,2.024-0.2,2.96-0.604
			c0.936-0.402,1.75-0.955,2.442-1.656c0.691-0.701,1.241-1.522,1.648-2.463c0.407-0.938,0.61-1.944,0.61-3.019
			c0-1.053-0.204-2.048-0.61-2.988C27.448,11.122,26.898,10.301,26.207,9.599z M42.475,9.568c-0.692-0.702-1.5-1.254-2.426-1.657
			c-0.926-0.402-1.908-0.604-2.945-0.604c-1.059,0-2.05,0.202-2.976,0.604c-0.926,0.402-1.729,0.955-2.411,1.657
			c-0.682,0.702-1.221,1.522-1.617,2.461c-0.397,0.939-0.595,1.946-0.595,3.019c0,1.073,0.198,2.08,0.595,3.019
			c0.396,0.939,0.935,1.756,1.617,2.447c0.681,0.691,1.485,1.237,2.411,1.641c0.926,0.402,1.917,0.604,2.976,0.604
			c1.037,0,2.019-0.2,2.945-0.604c0.925-0.402,1.734-0.948,2.426-1.641c0.691-0.691,1.241-1.508,1.648-2.447
			c0.407-0.938,0.61-1.944,0.61-3.019c0-1.074-0.203-2.08-0.61-3.019C43.715,11.09,43.166,10.27,42.475,9.568z M41.208,16.798
			c-0.234,0.548-0.549,1.022-0.946,1.425s-0.87,0.723-1.419,0.961c-0.549,0.236-1.128,0.355-1.739,0.355s-1.191-0.119-1.74-0.355
			c-0.55-0.238-1.028-0.559-1.434-0.961c-0.408-0.402-0.728-0.877-0.962-1.425c-0.234-0.547-0.351-1.13-0.351-1.749
			c0-0.619,0.117-1.208,0.351-1.765c0.234-0.557,0.554-1.037,0.962-1.44c0.406-0.402,0.884-0.722,1.434-0.959
			c0.549-0.237,1.129-0.356,1.74-0.356s1.19,0.119,1.739,0.356c0.55,0.237,1.022,0.557,1.419,0.959
			c0.396,0.403,0.712,0.883,0.946,1.44c0.234,0.558,0.351,1.146,0.351,1.765C41.559,15.668,41.442,16.251,41.208,16.798z
			 M59.135,9.568c-0.691-0.702-1.5-1.254-2.426-1.657c-0.926-0.403-1.907-0.604-2.945-0.604c-1.058,0-2.05,0.202-2.975,0.604
			c-0.928,0.402-1.73,0.955-2.411,1.657c-0.683,0.702-1.221,1.522-1.618,2.461c-0.396,0.939-0.595,1.946-0.595,3.019
			c0,1.073,0.198,2.08,0.595,3.019c0.397,0.939,0.936,1.756,1.618,2.447c0.681,0.691,1.483,1.237,2.411,1.641
			c0.925,0.402,1.917,0.604,2.975,0.604c1.038,0,2.02-0.2,2.945-0.604c0.926-0.402,1.734-0.948,2.426-1.641
			c0.691-0.691,1.241-1.508,1.648-2.447c0.406-0.938,0.609-1.944,0.609-3.019c0-1.074-0.203-2.08-0.609-3.019
			C60.376,11.09,59.827,10.27,59.135,9.568z M57.869,16.798c-0.234,0.548-0.549,1.022-0.946,1.425s-0.87,0.723-1.419,0.961
			c-0.549,0.236-1.13,0.355-1.74,0.355c-0.611,0-1.189-0.119-1.738-0.355c-0.551-0.238-1.027-0.559-1.436-0.961
			c-0.406-0.402-0.729-0.877-0.961-1.425c-0.234-0.547-0.352-1.13-0.352-1.749c0-0.619,0.117-1.208,0.352-1.765
			c0.232-0.557,0.555-1.037,0.961-1.44c0.407-0.402,0.885-0.722,1.436-0.959c0.549-0.237,1.127-0.356,1.738-0.356
			c0.61,0,1.19,0.119,1.74,0.356c0.551,0.237,1.021,0.557,1.419,0.959c0.396,0.403,0.711,0.883,0.946,1.44
			c0.234,0.558,0.352,1.146,0.352,1.765C58.221,15.668,58.104,16.251,57.869,16.798z M76.102,9.599
			c-0.691-0.701-1.506-1.259-2.44-1.671c-0.937-0.413-1.935-0.62-2.991-0.62s-2.057,0.207-2.99,0.62
			c-0.937,0.413-1.75,0.97-2.441,1.671c-0.691,0.702-1.235,1.523-1.633,2.462c-0.396,0.94-0.584,1.936-0.564,2.988v7.74h3.174v-7.74
			c0-0.619,0.117-1.208,0.352-1.765c0.233-0.557,0.556-1.037,0.961-1.44c0.408-0.402,0.881-0.722,1.421-0.959
			c0.538-0.237,1.112-0.356,1.724-0.356s1.186,0.119,1.725,0.356c0.539,0.237,1.013,0.557,1.42,0.959
			c0.406,0.403,0.727,0.883,0.961,1.44c0.233,0.558,0.352,1.146,0.352,1.765v7.74h3.174v-7.74c0.021-1.053-0.168-2.048-0.564-2.988
			C77.338,11.122,76.793,10.301,76.102,9.599z M91.498,7.277c-1.036,0-2.014,0.201-2.93,0.604c-0.916,0.402-1.715,0.955-2.396,1.657
			c-0.683,0.702-1.221,1.517-1.618,2.446c-0.396,0.929-0.604,1.92-0.625,2.972c0,0.62-0.117,1.204-0.352,1.75
			c-0.232,0.547-0.549,1.021-0.946,1.425c-0.396,0.401-0.864,0.723-1.403,0.959c-0.539,0.238-1.113,0.355-1.725,0.355v3.313
			c1.038,0,2.02-0.2,2.945-0.604c0.926-0.402,1.74-0.948,2.441-1.641c0.701-0.691,1.256-1.496,1.664-2.416
			c0.404-0.918,0.619-1.904,0.639-2.957c0-0.62,0.117-1.203,0.353-1.75c0.233-0.547,0.55-1.032,0.945-1.455
			c0.397-0.423,0.864-0.753,1.405-0.991c0.537-0.237,1.111-0.356,1.724-0.356L91.498,7.277z"/>
	</g>
</g>
<g>
	<path fill="#E2027B" d="M1.45-6.094C1.034-5.672-12.833,8.127-15.95,7.101c-3.034-1.001-1.251-11.89-1.099-12.759
		c-0.158,0.865-2.189,11.69-5.888,13.684c-3.87,2.087-10.64-5.545-10.776-5.703c0.135,0.158,6.827,7.84,4.623,11.704
		c-2.243,3.927-14.762,4.659-14.762,4.659s12.366-1.285,13.183,2.891c0.711,3.621-9.93,14.518-9.93,14.518
		s10.56-11.242,13.755-10.373c1.457,0.395,4.487,0.02,4.244,0.057c-4.806,0.732-8.528-2.773-7.506-7.865
		c1.023-5.09,5.747-9.814,10.555-10.529c4.179-0.621,5.626,0.332,6.584,3.696c0,0,0.104,0.246,0.076,0.064
		C-13.393,7.848,1.033-5.669,1.45-6.094z M-17.461-5.596c0.01-0.056,0.015-0.086,0.015-0.086S-17.451-5.652-17.461-5.596z"/>
	<g>
		<g>
			<path fill="#FFFFFF" d="M-15.098,21.024l0.254,0.367c-0.075,0.075-0.151,0.142-0.226,0.196c-0.075,0.058-0.151,0.115-0.226,0.17
				c-0.81,0.566-1.616,0.996-2.416,1.287c-0.803,0.293-1.543,0.439-2.221,0.439c-0.075,0-0.15,0-0.224,0
				c-0.076,0-0.152-0.01-0.227-0.027c-0.301-0.02-0.622-0.068-0.96-0.143c-0.34-0.074-0.763-0.209-1.272-0.396
				c-0.15,0.039-0.305,0.082-0.465,0.127c-0.162,0.047-0.317,0.09-0.468,0.129c-0.224,0.055-0.457,0.117-0.692,0.186
				c-0.236,0.063-0.477,0.107-0.72,0.125c-0.32,0-0.561-0.123-0.723-0.365c-0.158-0.246-0.267-0.51-0.324-0.793
				c-0.037-0.133-0.061-0.256-0.07-0.367c-0.009-0.113-0.016-0.217-0.016-0.311c0-0.076,0.007-0.143,0.016-0.198
				c0.009-0.056,0.023-0.112,0.043-0.169c0.075-0.114,0.183-0.241,0.323-0.381c0.143-0.145,0.364-0.326,0.666-0.553
				c0.282-0.227,0.556-0.465,0.82-0.721c0.265-0.252,0.529-0.504,0.792-0.746c0.094-0.114,0.192-0.223,0.297-0.326
				c0.103-0.104,0.202-0.203,0.295-0.297c-0.077-0.281-0.13-0.527-0.168-0.734c-0.039-0.209-0.068-0.415-0.085-0.621
				c-0.019-0.096-0.029-0.189-0.029-0.283s0-0.197,0-0.313c0-1.11,0.329-2.096,0.985-2.951c0.657-0.86,1.584-1.286,2.784-1.286
				c0.43,0,0.765,0.121,0.999,0.369c0.233,0.242,0.353,0.592,0.353,1.046c0,0.414-0.101,0.837-0.301,1.27
				c-0.2,0.433-0.527,0.915-0.977,1.442c0.149,0.318,0.29,0.668,0.421,1.044c0.133,0.378,0.227,0.745,0.284,1.103
				c0.019,0.133,0.031,0.261,0.041,0.382c0.009,0.122,0.016,0.251,0.016,0.382c0,0.791-0.303,1.487-0.904,2.09
				c-0.603,0.604-1.496,1.093-2.683,1.471c0.283,0.073,0.527,0.139,0.734,0.199c0.207,0.053,0.415,0.092,0.621,0.111
				c0.095,0,0.197,0.004,0.313,0.014c0.111,0.01,0.223,0.014,0.338,0.014c0.902,0,1.789-0.195,2.655-0.582
				c0.868-0.387,1.65-0.842,2.347-1.371V21.024z M-22.635,22.338c0.03-0.027,0.053-0.05,0.07-0.07
				c0.171-0.188,0.283-0.376,0.34-0.564c0.057-0.189,0.087-0.405,0.087-0.652c0-0.264-0.04-0.545-0.113-0.846
				c-0.079-0.303-0.218-0.738-0.425-1.301c-0.227,0.226-0.457,0.441-0.694,0.65c-0.235,0.206-0.476,0.412-0.721,0.621
				c-0.019,0.02-0.043,0.038-0.07,0.057c-0.028,0.019-0.061,0.038-0.1,0.055c-0.131,0.133-0.264,0.256-0.395,0.369
				c-0.132,0.113-0.267,0.227-0.397,0.34l2.319,1.412C-22.695,22.393-22.664,22.369-22.635,22.338z M-19.512,15.717
				c0.24-0.301,0.424-0.584,0.555-0.849c0.129-0.263,0.221-0.528,0.275-0.791c0-0.075,0.005-0.151,0.015-0.228
				c0.01-0.075,0.013-0.15,0.013-0.225c0-0.34-0.064-0.617-0.193-0.836c-0.129-0.216-0.306-0.324-0.528-0.324
				c-0.166,0-0.302,0.09-0.413,0.27c-0.111,0.179-0.166,0.41-0.166,0.691c0,0.02,0,0.043,0,0.071c0,0.027,0,0.062,0,0.099
				c0.019,0.302,0.06,0.622,0.125,0.96c0.063,0.34,0.169,0.739,0.317,1.19V15.717z"/>
			<path fill="#FFFFFF" d="M-8.209,12.326l-2.941,7.864c-0.131,0.357-0.228,0.658-0.284,0.9c-0.056,0.245-0.085,0.451-0.085,0.623
				c0,0.26,0.096,0.479,0.286,0.647c0.188,0.169,0.433,0.254,0.737,0.254c0.283,0,0.628-0.067,1.035-0.198
				c0.406-0.133,0.818-0.32,1.233-0.563c0.113-0.057,0.223-0.118,0.326-0.186c0.104-0.064,0.211-0.135,0.327-0.211l-0.058-0.422
				c0-0.148,0.029-0.334,0.085-0.549c0.057-0.216,0.151-0.504,0.283-0.859l2.375-6.424l4.553-0.85l-2.969,7.808
				c-0.113,0.32-0.198,0.606-0.252,0.862c-0.059,0.25-0.086,0.473-0.086,0.659c0,0.283,0.089,0.51,0.27,0.678
				c0.177,0.169,0.409,0.254,0.693,0.254c0.432,0,0.975-0.148,1.624-0.44c0.652-0.292,1.382-0.721,2.193-1.286l0.227,0.312
				c-0.641,0.49-1.238,0.881-1.783,1.173c-0.545,0.294-1.083,0.515-1.613,0.665c-0.337,0.113-0.683,0.189-1.03,0.227
				c-0.349,0.037-0.712,0.055-1.091,0.055c-0.811,0-1.479-0.107-2.009-0.324c-0.526-0.217-0.952-0.56-1.272-1.033
				c-0.228,0.133-0.444,0.256-0.651,0.368c-0.207,0.114-0.426,0.208-0.651,0.282c-0.528,0.229-1.066,0.393-1.613,0.496
				c-0.548,0.104-1.125,0.156-1.727,0.156c-1.021,0-1.828-0.203-2.422-0.607c-0.593-0.404-0.89-0.953-0.89-1.647
				c0-0.169,0.019-0.353,0.057-0.548c0.038-0.199,0.085-0.4,0.141-0.607c0.018-0.056,0.034-0.107,0.042-0.154
				c0.012-0.047,0.024-0.102,0.043-0.154l2.376-6.398L-8.209,12.326z"/>
			<path fill="#FFFFFF" d="M4.202,22.375l-0.057,0.228l0.057,0.112c0.038,0.02,0.08,0,0.127-0.059
				c0.047-0.054,0.1-0.129,0.156-0.225c0.245-0.564,0.533-1.217,0.861-1.96c0.332-0.743,0.691-1.509,1.09-2.301
				c0.772-1.485,1.705-2.85,2.8-4.092c1.093-1.243,2.348-1.863,3.762-1.863c0.661,0,1.182,0.166,1.57,0.494
				c0.386,0.329,0.58,0.776,0.58,1.34c0,0.171-0.019,0.339-0.056,0.509c-0.039,0.169-0.085,0.337-0.139,0.506l-2.223,5.333
				c-0.092,0.264-0.168,0.496-0.224,0.694c-0.057,0.198-0.083,0.37-0.083,0.521c0,0.3,0.103,0.536,0.31,0.706
				c0.207,0.168,0.491,0.254,0.85,0.254c0.526,0,1.027-0.113,1.498-0.34c0.473-0.225,0.933-0.48,1.385-0.764
				c0.134-0.074,0.267-0.154,0.397-0.24c0.132-0.084,0.264-0.165,0.396-0.242l0.254,0.313c-0.188,0.15-0.372,0.287-0.553,0.412
				c-0.18,0.122-0.361,0.238-0.548,0.352c-0.738,0.436-1.472,0.754-2.208,0.963c-0.735,0.207-1.488,0.311-2.262,0.311
				c-1.076,0-1.91-0.213-2.504-0.635c-0.593-0.426-0.89-1.011-0.89-1.766c0-0.15,0.01-0.305,0.028-0.465
				c0.019-0.159,0.056-0.326,0.112-0.492c0.018-0.096,0.048-0.195,0.083-0.299c0.038-0.104,0.075-0.203,0.112-0.295l2.503-6.123
				l0.083-0.257c0-0.018-0.01-0.033-0.028-0.041c-0.019-0.01-0.046-0.016-0.085-0.016c-0.017,0-0.036,0-0.055,0
				c-0.02,0-0.048,0.016-0.086,0.042c-0.038,0.027-0.093,0.082-0.168,0.157c-0.849,0.677-1.627,1.523-2.332,2.541
				c-0.708,1.012-1.363,2.06-1.967,3.129c-0.32,0.584-0.627,1.162-0.919,1.736c-0.292,0.574-0.571,1.126-0.834,1.651
				c-0.02,0.018-0.034,0.037-0.042,0.054c-0.009,0.021-0.014,0.038-0.014,0.06c-0.227,0.414-0.468,0.688-0.722,0.818
				c-0.254,0.131-0.618,0.199-1.088,0.199c-0.813,0-1.429-0.162-1.853-0.481c-0.425-0.319-0.639-0.791-0.639-1.411
				c0-0.206,0.031-0.437,0.087-0.691c0.057-0.252,0.141-0.54,0.254-0.861l2.459-6.659l4.497-0.819L4.202,22.375z"/>
			<path fill="#FFFFFF" d="M20.609,22.189l-0.086,0.338c0,0.038,0.005,0.061,0.016,0.071c0.007,0.011,0.021,0.024,0.04,0.042h0.03
				c0.054,0,0.179-0.159,0.367-0.48c0.189-0.318,0.386-0.678,0.592-1.073c0.02-0.038,0.039-0.073,0.058-0.112
				c0.017-0.039,0.039-0.074,0.058-0.114c0.186-0.395,0.366-0.763,0.537-1.1c0.169-0.339,0.273-0.558,0.31-0.652
				c0.171-0.356,0.355-0.748,0.553-1.169c0.198-0.426,0.411-0.846,0.636-1.258c0.584-1.112,1.294-2.135,2.135-3.065
				c0.837-0.935,1.899-1.401,3.181-1.401c0.811,0,1.46,0.175,1.949,0.523c0.493,0.35,0.738,0.808,0.738,1.374
				c0,1.169-0.709,2.209-2.137,3.112c-1.423,0.909-3.171,1.437-5.246,1.588l0.03,0.057c0.772,0.019,1.411,0.074,1.909,0.168
				c0.5,0.096,0.965,0.282,1.399,0.561c0.225,0.153,0.457,0.334,0.691,0.549c0.236,0.217,0.497,0.465,0.781,0.745
				c0.207,0.227,0.403,0.411,0.592,0.552c0.188,0.138,0.377,0.249,0.567,0.32c0.131,0.06,0.261,0.102,0.395,0.128
				c0.134,0.028,0.262,0.043,0.396,0.043c0.094,0,0.184-0.005,0.269-0.015c0.084-0.008,0.172-0.022,0.268-0.043
				c0.189-0.037,0.4-0.117,0.638-0.238c0.235-0.125,0.532-0.31,0.891-0.553l0.252,0.312c-0.792,0.659-1.605,1.146-2.444,1.456
				c-0.84,0.313-1.702,0.465-2.59,0.465c-1.149,0-2.14-0.324-2.967-0.974c-0.831-0.649-1.574-1.692-2.234-3.124
				c-0.188,0.319-0.34,0.599-0.452,0.834c-0.113,0.234-0.227,0.457-0.34,0.664l-0.029,0.027c-0.017,0.037-0.041,0.08-0.068,0.127
				c-0.028,0.047-0.052,0.1-0.07,0.156c-0.189,0.396-0.36,0.726-0.511,0.989c-0.151,0.264-0.301,0.481-0.451,0.652
				c-0.208,0.263-0.435,0.429-0.68,0.495c-0.244,0.064-0.555,0.098-0.931,0.098c-0.792,0-1.417-0.184-1.868-0.551
				c-0.452-0.368-0.679-0.868-0.679-1.511c0-0.225,0.022-0.483,0.073-0.774c0.046-0.291,0.125-0.588,0.238-0.889l5.034-14.253
				l4.47-0.876L20.609,22.189z M23.461,18.666c0.716-0.303,1.38-0.689,1.995-1.16c0.611-0.473,1.118-0.973,1.513-1.498
				c0.245-0.32,0.438-0.637,0.58-0.949c0.144-0.312,0.214-0.608,0.214-0.891c0-0.207-0.059-0.381-0.171-0.522
				c-0.112-0.143-0.266-0.214-0.452-0.214c-0.323,0-0.731,0.312-1.231,0.934c-0.498,0.624-1.014,1.445-1.542,2.461
				c-0.151,0.283-0.301,0.58-0.452,0.889c-0.15,0.313-0.303,0.641-0.453,0.978V18.666z"/>
			<path fill="#FFFFFF" d="M37.265,20.658c-0.056,0.207-0.104,0.4-0.141,0.578c-0.039,0.182-0.056,0.355-0.056,0.525
				c0,0.303,0.093,0.537,0.282,0.707c0.189,0.171,0.461,0.254,0.819,0.254c0.51,0,0.994-0.115,1.457-0.352
				c0.461-0.237,0.899-0.505,1.315-0.807c0.149-0.094,0.295-0.188,0.438-0.282c0.142-0.095,0.288-0.189,0.438-0.284l0.255,0.254
				c-0.848,0.756-1.711,1.297-2.587,1.627c-0.877,0.33-1.825,0.496-2.843,0.496c-1.131,0-2.017-0.174-2.657-0.523
				c-0.644-0.35-0.961-0.844-0.961-1.486c0-0.15,0.017-0.316,0.056-0.496c0.037-0.18,0.075-0.363,0.115-0.553
				c0-0.037,0.004-0.072,0.011-0.111c0.01-0.037,0.023-0.074,0.042-0.113l2.545-7.016l4.524-0.934L37.265,20.658z"/>
			<path fill="#FFFFFF" d="M52.267,21.024l0.255,0.367c-0.074,0.075-0.149,0.142-0.225,0.196c-0.077,0.058-0.151,0.115-0.227,0.17
				c-0.811,0.566-1.618,0.996-2.418,1.287c-0.802,0.293-1.539,0.439-2.219,0.439c-0.074,0-0.15,0-0.229,0
				c-0.074,0-0.146-0.01-0.223-0.027c-0.301-0.02-0.623-0.068-0.961-0.143c-0.337-0.074-0.761-0.209-1.271-0.396
				c-0.149,0.039-0.305,0.082-0.467,0.127c-0.157,0.047-0.313,0.09-0.464,0.129c-0.228,0.055-0.457,0.117-0.695,0.186
				c-0.233,0.063-0.474,0.107-0.721,0.125c-0.319,0-0.561-0.123-0.721-0.365c-0.16-0.246-0.267-0.51-0.323-0.793
				c-0.039-0.133-0.063-0.256-0.073-0.367c-0.009-0.113-0.011-0.217-0.011-0.311c0-0.076,0.002-0.143,0.011-0.198
				c0.01-0.056,0.025-0.112,0.044-0.169c0.074-0.114,0.183-0.241,0.325-0.381c0.141-0.145,0.363-0.326,0.664-0.553
				c0.284-0.227,0.556-0.465,0.82-0.721c0.264-0.252,0.529-0.504,0.793-0.746c0.093-0.114,0.194-0.223,0.295-0.326
				c0.104-0.104,0.203-0.203,0.298-0.297c-0.076-0.281-0.132-0.527-0.171-0.734c-0.039-0.209-0.065-0.415-0.084-0.621
				c-0.019-0.096-0.027-0.189-0.027-0.283s0-0.197,0-0.313c0-1.11,0.328-2.096,0.983-2.951c0.657-0.86,1.584-1.286,2.785-1.286
				c0.432,0,0.762,0.121,0.999,0.369c0.233,0.242,0.353,0.592,0.353,1.046c0,0.414-0.103,0.837-0.302,1.27
				c-0.201,0.433-0.527,0.915-0.98,1.442c0.151,0.318,0.292,0.668,0.425,1.044c0.133,0.378,0.227,0.745,0.285,1.103
				c0.017,0.133,0.032,0.261,0.041,0.382c0.009,0.122,0.013,0.251,0.013,0.382c0,0.791-0.302,1.487-0.903,2.09
				c-0.602,0.604-1.495,1.093-2.681,1.471c0.279,0.073,0.527,0.139,0.732,0.199c0.207,0.053,0.415,0.092,0.622,0.111
				c0.094,0,0.195,0.004,0.31,0.014s0.228,0.014,0.339,0.014c0.903,0,1.788-0.195,2.655-0.582c0.87-0.387,1.651-0.842,2.348-1.371
				V21.024z M44.731,22.338c0.027-0.027,0.051-0.05,0.073-0.07c0.167-0.188,0.284-0.376,0.337-0.564
				c0.056-0.189,0.083-0.405,0.083-0.652c0-0.264-0.037-0.545-0.11-0.846c-0.079-0.303-0.217-0.738-0.426-1.301
				c-0.227,0.226-0.458,0.441-0.692,0.65c-0.235,0.206-0.476,0.412-0.722,0.621c-0.019,0.02-0.04,0.038-0.068,0.057
				c-0.03,0.019-0.063,0.038-0.102,0.055c-0.131,0.133-0.263,0.256-0.396,0.369c-0.131,0.113-0.262,0.227-0.396,0.34l2.321,1.412
				C44.67,22.393,44.703,22.369,44.731,22.338z M47.855,15.717c0.239-0.301,0.423-0.584,0.552-0.849
				c0.127-0.263,0.222-0.528,0.276-0.791c0-0.075,0.006-0.151,0.014-0.228c0.01-0.075,0.014-0.15,0.014-0.225
				c0-0.34-0.063-0.617-0.193-0.836c-0.131-0.216-0.305-0.324-0.525-0.324c-0.167,0-0.307,0.09-0.418,0.27
				c-0.107,0.179-0.165,0.41-0.165,0.691c0,0.02,0,0.043,0,0.071c0,0.027,0,0.062,0,0.099c0.021,0.302,0.062,0.622,0.126,0.96
				c0.063,0.34,0.17,0.739,0.32,1.19V15.717z"/>
			<path fill="#FFFFFF" d="M62.76,21.024l0.254,0.367c-0.074,0.075-0.151,0.142-0.227,0.196c-0.074,0.058-0.151,0.115-0.227,0.17
				c-0.81,0.566-1.615,0.996-2.415,1.287c-0.802,0.293-1.543,0.439-2.221,0.439c-0.074,0-0.149,0-0.225,0
				c-0.076,0-0.152-0.01-0.227-0.027c-0.301-0.02-0.621-0.068-0.96-0.143c-0.341-0.074-0.763-0.209-1.271-0.396
				c-0.147,0.039-0.308,0.082-0.467,0.127c-0.159,0.047-0.313,0.09-0.466,0.129c-0.224,0.055-0.457,0.117-0.692,0.186
				c-0.236,0.063-0.476,0.107-0.72,0.125c-0.321,0-0.563-0.123-0.722-0.365c-0.16-0.246-0.268-0.51-0.326-0.793
				c-0.037-0.133-0.059-0.256-0.068-0.367c-0.011-0.113-0.018-0.217-0.018-0.311c0-0.076,0.007-0.143,0.018-0.198
				c0.01-0.056,0.021-0.112,0.041-0.169c0.075-0.114,0.184-0.241,0.325-0.381c0.141-0.145,0.364-0.326,0.665-0.553
				c0.282-0.227,0.554-0.465,0.817-0.721c0.265-0.252,0.53-0.504,0.794-0.746c0.095-0.114,0.192-0.223,0.296-0.326
				c0.103-0.104,0.202-0.203,0.296-0.297c-0.076-0.281-0.129-0.527-0.166-0.734c-0.04-0.209-0.07-0.415-0.087-0.621
				c-0.019-0.096-0.028-0.189-0.028-0.283s0-0.197,0-0.313c0-1.11,0.327-2.096,0.984-2.951c0.656-0.86,1.584-1.286,2.784-1.286
				c0.431,0,0.766,0.121,0.999,0.369c0.233,0.242,0.351,0.592,0.351,1.046c0,0.414-0.097,0.837-0.3,1.27
				c-0.199,0.433-0.526,0.915-0.977,1.442c0.147,0.318,0.29,0.668,0.423,1.044c0.131,0.378,0.225,0.745,0.28,1.103
				c0.021,0.133,0.033,0.261,0.042,0.382c0.011,0.122,0.017,0.251,0.017,0.382c0,0.791-0.302,1.487-0.904,2.09
				c-0.603,0.604-1.497,1.093-2.683,1.471c0.283,0.073,0.527,0.139,0.733,0.199c0.208,0.053,0.415,0.092,0.621,0.111
				c0.098,0,0.197,0.004,0.313,0.014c0.112,0.01,0.224,0.014,0.337,0.014c0.905,0,1.791-0.195,2.657-0.582
				c0.867-0.387,1.649-0.842,2.348-1.371V21.024z M55.221,22.338c0.03-0.027,0.053-0.05,0.071-0.07
				c0.171-0.188,0.284-0.376,0.341-0.564c0.056-0.189,0.086-0.405,0.086-0.652c0-0.264-0.039-0.545-0.114-0.846
				c-0.077-0.303-0.217-0.738-0.425-1.301c-0.225,0.226-0.457,0.441-0.692,0.65c-0.236,0.206-0.477,0.412-0.721,0.621
				c-0.02,0.02-0.044,0.038-0.071,0.057s-0.062,0.038-0.101,0.055c-0.133,0.133-0.263,0.256-0.394,0.369
				c-0.134,0.113-0.267,0.227-0.397,0.34l2.32,1.412C55.161,22.393,55.192,22.369,55.221,22.338z M58.344,15.717
				c0.24-0.301,0.425-0.584,0.556-0.849c0.13-0.263,0.221-0.528,0.274-0.791c0-0.075,0.006-0.151,0.016-0.228
				c0.009-0.075,0.014-0.15,0.014-0.225c0-0.34-0.064-0.617-0.194-0.836c-0.128-0.216-0.305-0.324-0.528-0.324
				c-0.164,0-0.302,0.09-0.412,0.27c-0.109,0.179-0.165,0.41-0.165,0.691c0,0.02,0,0.043,0,0.071c0,0.027,0,0.062,0,0.099
				c0.018,0.302,0.059,0.622,0.124,0.96c0.063,0.34,0.17,0.739,0.316,1.19V15.717z"/>
			<path fill="#FFFFFF" d="M74.142,20.996l0.229,0.396c-0.357,0.243-0.71,0.462-1.049,0.649c-0.339,0.189-0.678,0.359-1.017,0.509
				c-0.813,0.341-1.636,0.581-2.478,0.722c-0.835,0.143-1.776,0.213-2.813,0.213c-0.206,0-0.429-0.006-0.665-0.014
				c-0.234-0.01-0.467-0.025-0.69-0.041c-0.773-0.096-1.48-0.322-2.124-0.68c-0.64-0.357-0.962-0.996-0.962-1.922
				c0-0.431,0.067-0.939,0.198-1.523c0.134-0.582,0.332-1.243,0.593-1.977c0.566-1.525,1.41-2.759,2.531-3.701
				c1.119-0.939,2.528-1.411,4.224-1.411c0.866,0,1.525,0.166,1.979,0.494c0.45,0.329,0.679,0.824,0.679,1.481
				c0,0.077-0.009,0.148-0.018,0.213c-0.009,0.064-0.013,0.135-0.013,0.213c-0.131,0.979-0.718,1.924-1.767,2.837
				c-1.043,0.912-2.413,1.689-4.106,2.328c-0.037,0.227-0.065,0.41-0.084,0.555c-0.018,0.139-0.029,0.275-0.029,0.408
				c0,0.018,0,0.041,0,0.068s0,0.052,0,0.072c0,0.604,0.195,1.074,0.582,1.424c0.384,0.351,0.915,0.523,1.595,0.523
				c0.773,0,1.604-0.154,2.489-0.465c0.889-0.313,1.793-0.761,2.715-1.345V20.996z M67.009,19.201c0.224-0.17,0.493-0.41,0.805-0.72
				c0.311-0.311,0.636-0.665,0.977-1.062c0.208-0.227,0.405-0.467,0.594-0.721c0.187-0.256,0.376-0.504,0.565-0.75
				c0.357-0.509,0.652-1.007,0.892-1.499c0.233-0.49,0.352-0.905,0.352-1.246c0-0.188-0.061-0.342-0.185-0.466
				c-0.123-0.123-0.268-0.184-0.438-0.184c-0.057,0-0.108,0.006-0.155,0.015c-0.047,0.01-0.091,0.024-0.127,0.043
				c-0.414,0.171-0.816,0.592-1.203,1.272c-0.385,0.679-0.74,1.413-1.062,2.205c-0.242,0.623-0.455,1.223-0.634,1.797
				c-0.18,0.576-0.308,1.021-0.381,1.342V19.201z"/>
			<path fill="#FFFFFF" d="M90.452,21.027l0.228,0.339c-0.867,0.716-1.76,1.231-2.672,1.542c-0.917,0.311-1.968,0.467-3.155,0.467
				c-0.866,0-1.563-0.098-2.093-0.285c-0.527-0.188-0.95-0.49-1.273-0.902c-0.64,0.412-1.338,0.721-2.091,0.916
				c-0.755,0.199-1.539,0.299-2.348,0.299c-1.037,0-1.815-0.23-2.335-0.695c-0.518-0.463-0.776-1.158-0.776-2.084
				c0-0.398,0.037-0.81,0.112-1.232c0.074-0.426,0.188-0.856,0.342-1.293c0.546-1.492,1.459-2.859,2.741-4.098
				c1.282-1.238,2.734-1.857,4.354-1.857c0.435,0,0.83,0.043,1.189,0.127c0.357,0.083,0.698,0.23,1.018,0.438
				c0.057,0.037,0.119,0.079,0.184,0.125c0.068,0.048,0.128,0.092,0.185,0.128l2.741-7.733L91.3,4.41l-5.741,16.309
				c-0.073,0.206-0.126,0.374-0.155,0.506c-0.028,0.133-0.039,0.256-0.039,0.367c0,0.34,0.116,0.601,0.349,0.779
				c0.239,0.178,0.562,0.268,0.98,0.268c0.507,0,1.082-0.131,1.721-0.395c0.645-0.266,1.32-0.663,2.038-1.189V21.027z M83.17,12.892
				c-0.273-0.16-0.578-0.241-0.919-0.241c-0.227,0-0.437,0.048-0.635,0.143s-0.392,0.246-0.58,0.454
				c-0.283,0.304-0.575,0.756-0.879,1.363c-0.301,0.605-0.641,1.408-1.017,2.412c-0.453,1.191-0.754,2.063-0.906,2.609
				c-0.148,0.549-0.235,1.031-0.254,1.447c0,0.02,0,0.039,0,0.057c0,0.021,0,0.039,0,0.058c0,0.416,0.124,0.747,0.367,0.993
				c0.247,0.246,0.576,0.369,0.992,0.369c0.131,0,0.262-0.01,0.395-0.03c0.132-0.017,0.264-0.056,0.395-0.111
				c0.208-0.077,0.411-0.177,0.609-0.298c0.199-0.123,0.4-0.28,0.607-0.47l-0.056-0.512c0-0.017,0-0.036,0-0.056
				c0-0.092,0.02-0.203,0.056-0.327c0.037-0.121,0.097-0.296,0.169-0.522l2.348-6.612C83.675,13.295,83.443,13.054,83.17,12.892z"/>
		</g>
		<polygon fill="#FFFFFF" points="41.802,7.691 37.321,8.607 36.326,11.481 40.825,10.549 		"/>
	</g>
	<path fill="#E2027B" d="M-15.463,26.166c-0.085-0.592-0.964-0.756-1.963-0.756c-0.879,0-1.623,0.299-1.623,0.768
		c0,0.23,0.205,0.465,0.964,0.551L-15.787,27c0.999,0.117,1.46,0.51,1.46,1.033c0,0.844-1.101,1.355-2.929,1.355
		c-1.75,0-2.766-0.445-2.877-1.379h0.939c0.025,0.57,0.82,0.898,1.989,0.898c1.281,0,1.989-0.348,1.989-0.811
		c0-1.174-4.722-0.109-4.722-1.885c0-0.814,1.008-1.283,2.689-1.283c1.282,0,2.638,0.264,2.724,1.236H-15.463z"/>
	<path fill="#E2027B" d="M-4.312,24.93c2.589,0,3.467,1.221,3.467,2.227c0,1.012-0.878,2.232-3.467,2.232
		c-2.585,0-3.466-1.221-3.466-2.232C-7.777,26.15-6.897,24.93-4.312,24.93z M-4.312,28.908c1.496,0,2.529-0.705,2.529-1.752
		c0-1.043-1.033-1.746-2.529-1.746c-1.494,0-2.526,0.703-2.526,1.746C-6.838,28.203-5.805,28.908-4.312,28.908z"/>
	<path fill="#E2027B" d="M6.946,25.039h0.889v3.758h3.551v0.48h-4.44V25.039z"/>
	<path fill="#E2027B" d="M22.667,25.039h0.888v2.531c0,1.209-1.196,1.818-2.869,1.818c-1.673,0-2.868-0.609-2.868-1.818v-2.531
		h0.887v2.559c0,0.811,0.708,1.311,1.981,1.311s1.981-0.5,1.981-1.311V25.039z"/>
	<path fill="#E2027B" d="M33.066,25.557h-2.613v-0.518h6.114v0.518h-2.613v3.721h-0.889V25.557z"/>
	<path fill="#E2027B" d="M44.218,25.039h0.889v4.238h-0.889V25.039z"/>
	<path fill="#E2027B" d="M56.201,24.93c2.588,0,3.468,1.221,3.468,2.227c0,1.012-0.88,2.232-3.468,2.232
		c-2.587,0-3.467-1.221-3.467-2.232C52.734,26.15,53.614,24.93,56.201,24.93z M56.201,28.908c1.493,0,2.527-0.705,2.527-1.752
		c0-1.043-1.034-1.746-2.527-1.746c-1.494,0-2.527,0.703-2.527,1.746C53.674,28.203,54.707,28.908,56.201,28.908z"/>
	<path fill="#E2027B" d="M71.763,25.039h0.889v4.238h-1.212l-3.775-3.615h-0.017v3.615H66.76v-4.238h1.212l3.773,3.617h0.018V25.039
		z"/>
	<path fill="#E2027B" d="M84.318,26.166c-0.084-0.592-0.965-0.756-1.963-0.756c-0.881,0-1.623,0.299-1.623,0.768
		c0,0.23,0.205,0.465,0.966,0.551L83.993,27c1,0.117,1.46,0.51,1.46,1.033c0,0.844-1.101,1.355-2.927,1.355
		c-1.751,0-2.767-0.445-2.878-1.379h0.939c0.026,0.57,0.82,0.898,1.989,0.898c1.281,0,1.989-0.348,1.989-0.811
		c0-1.174-4.721-0.109-4.721-1.885c0-0.814,1.007-1.283,2.688-1.283c1.282,0,2.64,0.264,2.724,1.236H84.318z"/>
</g>
</svg>
