<?xml version="1.0" encoding="utf-8"?>
<!-- Generator: Adobe Illustrator 15.0.0, SVG Export Plug-In . SVG Version: 6.00 Build 0)  -->
<!DOCTYPE svg PUBLIC "-//W3C//DTD SVG 1.1//EN" "http://www.w3.org/Graphics/SVG/1.1/DTD/svg11.dtd">
<svg version="1.1" id="Calque_1" xmlns="http://www.w3.org/2000/svg" xmlns:xlink="http://www.w3.org/1999/xlink" x="0px" y="0px"
	 width="179.853px" height="55.923px" viewBox="-87.853 -19.829 179.853 55.923"
	 enable-background="new -87.853 -19.829 179.853 55.923" xml:space="preserve">
<g display="none">
	<g display="inline">
		<path fill="#FFFFFF" d="M9.028,7.88C8.112,8.283,7.314,8.835,6.632,9.537c-0.682,0.702-1.221,1.517-1.618,2.446
			c-0.397,0.929-0.605,1.92-0.625,2.972c0,0.62-0.117,1.204-0.351,1.75c-0.234,0.547-0.549,1.021-0.946,1.425
			c-0.397,0.401-0.865,0.724-1.404,0.959c-0.54,0.238-1.114,0.356-1.725,0.356v3.313c1.038,0,2.019-0.201,2.945-0.604
			c0.925-0.403,1.739-0.949,2.441-1.643c0.702-0.691,1.256-1.496,1.663-2.414c0.407-0.918,0.621-1.904,0.641-2.958
			c0-0.62,0.117-1.203,0.351-1.75c0.234-0.547,0.549-1.032,0.946-1.455c0.396-0.423,0.864-0.753,1.404-0.991
			c0.539-0.237,1.114-0.356,1.724-0.356l-0.122-3.313C10.92,7.277,9.943,7.478,9.028,7.88z M26.207,9.599
			c-0.692-0.701-1.506-1.259-2.442-1.671c-0.936-0.413-1.922-0.62-2.96-0.62c-1.058,0-2.05,0.207-2.976,0.62
			c-0.926,0.413-1.729,0.97-2.411,1.671c-0.682,0.702-1.221,1.523-1.618,2.462c-0.396,0.94-0.595,1.936-0.595,2.988v11.768
			l3.112,3.188V15.049c0-0.619,0.117-1.203,0.351-1.75c0.234-0.547,0.554-1.027,0.961-1.44c0.407-0.413,0.885-0.738,1.435-0.975
			c0.549-0.237,1.129-0.356,1.739-0.356c0.61,0,1.19,0.119,1.739,0.356c0.55,0.237,1.027,0.563,1.435,0.975
			c0.407,0.413,0.728,0.893,0.961,1.44c0.234,0.546,0.351,1.13,0.351,1.75c0,0.641-0.117,1.238-0.351,1.795
			c-0.234,0.559-0.555,1.045-0.961,1.456c-0.407,0.413-0.885,0.738-1.435,0.976c-0.549,0.238-1.129,0.355-1.739,0.355
			c-0.407,0-0.773-0.063-1.099-0.186l-0.763,3.128c0.569,0.145,1.19,0.216,1.861,0.216c1.038,0,2.024-0.2,2.96-0.604
			c0.936-0.402,1.75-0.955,2.442-1.656c0.691-0.701,1.241-1.522,1.648-2.463c0.407-0.938,0.61-1.944,0.61-3.019
			c0-1.053-0.204-2.048-0.61-2.988C27.448,11.122,26.898,10.301,26.207,9.599z M42.475,9.568c-0.692-0.702-1.5-1.254-2.426-1.657
			c-0.926-0.402-1.908-0.604-2.945-0.604c-1.059,0-2.05,0.202-2.976,0.604c-0.926,0.402-1.729,0.955-2.411,1.657
			c-0.682,0.702-1.221,1.522-1.617,2.461c-0.397,0.939-0.595,1.946-0.595,3.019c0,1.073,0.198,2.08,0.595,3.019
			c0.396,0.939,0.935,1.756,1.617,2.447c0.681,0.691,1.485,1.237,2.411,1.641c0.926,0.402,1.917,0.604,2.976,0.604
			c1.037,0,2.019-0.2,2.945-0.604c0.925-0.402,1.734-0.948,2.426-1.641c0.691-0.691,1.241-1.508,1.648-2.447
			c0.407-0.938,0.61-1.944,0.61-3.019c0-1.074-0.203-2.08-0.61-3.019C43.715,11.09,43.166,10.27,42.475,9.568z M41.208,16.798
			c-0.234,0.548-0.549,1.022-0.946,1.425s-0.87,0.723-1.419,0.961c-0.549,0.236-1.128,0.355-1.739,0.355s-1.191-0.119-1.74-0.355
			c-0.55-0.238-1.028-0.559-1.434-0.961c-0.408-0.402-0.728-0.877-0.962-1.425c-0.234-0.547-0.351-1.13-0.351-1.749
			c0-0.619,0.117-1.208,0.351-1.765c0.234-0.557,0.554-1.037,0.962-1.44c0.406-0.402,0.884-0.722,1.434-0.959
			c0.549-0.237,1.129-0.356,1.74-0.356s1.19,0.119,1.739,0.356c0.55,0.237,1.022,0.557,1.419,0.959
			c0.396,0.403,0.712,0.883,0.946,1.44c0.234,0.558,0.351,1.146,0.351,1.765C41.559,15.668,41.442,16.251,41.208,16.798z
			 M59.135,9.568c-0.691-0.702-1.5-1.254-2.426-1.657c-0.926-0.403-1.907-0.604-2.945-0.604c-1.058,0-2.05,0.202-2.975,0.604
			c-0.928,0.402-1.73,0.955-2.411,1.657c-0.683,0.702-1.221,1.522-1.618,2.461c-0.396,0.939-0.595,1.946-0.595,3.019
			c0,1.073,0.198,2.08,0.595,3.019c0.397,0.939,0.936,1.756,1.618,2.447c0.681,0.691,1.483,1.237,2.411,1.641
			c0.925,0.402,1.917,0.604,2.975,0.604c1.038,0,2.02-0.2,2.945-0.604c0.926-0.402,1.734-0.948,2.426-1.641
			c0.691-0.691,1.241-1.508,1.648-2.447c0.406-0.938,0.609-1.944,0.609-3.019c0-1.074-0.203-2.08-0.609-3.019
			C60.376,11.09,59.827,10.27,59.135,9.568z M57.869,16.798c-0.234,0.548-0.549,1.022-0.946,1.425s-0.87,0.723-1.419,0.961
			c-0.549,0.236-1.13,0.355-1.74,0.355c-0.611,0-1.189-0.119-1.738-0.355c-0.551-0.238-1.027-0.559-1.436-0.961
			c-0.406-0.402-0.729-0.877-0.961-1.425c-0.234-0.547-0.352-1.13-0.352-1.749c0-0.619,0.117-1.208,0.352-1.765
			c0.232-0.557,0.555-1.037,0.961-1.44c0.407-0.402,0.885-0.722,1.436-0.959c0.549-0.237,1.127-0.356,1.738-0.356
			c0.61,0,1.19,0.119,1.74,0.356c0.551,0.237,1.021,0.557,1.419,0.959c0.396,0.403,0.711,0.883,0.946,1.44
			c0.234,0.558,0.352,1.146,0.352,1.765C58.221,15.668,58.104,16.251,57.869,16.798z M76.102,9.599
			c-0.691-0.701-1.506-1.259-2.44-1.671c-0.937-0.413-1.935-0.62-2.991-0.62s-2.057,0.207-2.99,0.62
			c-0.937,0.413-1.75,0.97-2.441,1.671c-0.691,0.702-1.235,1.523-1.633,2.462c-0.396,0.94-0.584,1.936-0.564,2.988v7.74h3.174v-7.74
			c0-0.619,0.117-1.208,0.352-1.765c0.233-0.557,0.556-1.037,0.961-1.44c0.408-0.402,0.881-0.722,1.421-0.959
			c0.538-0.237,1.112-0.356,1.724-0.356s1.186,0.119,1.725,0.356c0.539,0.237,1.013,0.557,1.42,0.959
			c0.406,0.403,0.727,0.883,0.961,1.44c0.233,0.558,0.352,1.146,0.352,1.765v7.74h3.174v-7.74c0.021-1.053-0.168-2.048-0.564-2.988
			C77.338,11.122,76.793,10.301,76.102,9.599z M91.498,7.277c-1.036,0-2.014,0.201-2.93,0.604c-0.916,0.402-1.715,0.955-2.396,1.657
			c-0.683,0.702-1.221,1.517-1.618,2.446c-0.396,0.929-0.604,1.92-0.625,2.972c0,0.62-0.117,1.204-0.352,1.75
			c-0.232,0.547-0.549,1.021-0.946,1.425c-0.396,0.401-0.864,0.723-1.403,0.959c-0.539,0.238-1.113,0.355-1.725,0.355v3.313
			c1.038,0,2.02-0.2,2.945-0.604c0.926-0.402,1.74-0.948,2.441-1.641c0.701-0.691,1.256-1.496,1.664-2.416
			c0.404-0.918,0.619-1.904,0.639-2.957c0-0.62,0.117-1.203,0.353-1.75c0.233-0.547,0.55-1.032,0.945-1.455
			c0.397-0.423,0.864-0.753,1.405-0.991c0.537-0.237,1.111-0.356,1.724-0.356L91.498,7.277z"/>
	</g>
</g>
<g>
	<path fill="#E2027B" d="M-27.801-19.829C-28.353-19.27-46.735-0.978-50.866-2.338c-4.021-1.328-1.659-15.76-1.457-16.913
		c-0.209,1.147-2.902,15.496-7.804,18.138c-5.13,2.767-14.104-7.35-14.285-7.559c0.179,0.209,9.049,10.392,6.127,15.514
		c-2.973,5.206-19.568,6.176-19.568,6.176s16.392-1.704,17.475,3.832c0.942,4.8-13.163,19.244-13.163,19.244
		s13.998-14.902,18.233-13.75c1.931,0.522,5.948,0.025,5.625,0.075c-6.371,0.971-11.305-3.677-9.95-10.426
		c1.356-6.748,7.618-13.009,13.992-13.957c5.54-0.823,7.458,0.439,8.728,4.9c0,0,0.138,0.326,0.101,0.085
		C-47.476-1.348-28.354-19.266-27.801-19.829z M-52.869-19.169c0.013-0.074,0.019-0.114,0.019-0.114S-52.856-19.243-52.869-19.169z"
		/>
	<g>
		<g>
			<path fill="#FFFFFF" d="M-49.736,16.118l0.337,0.487c-0.099,0.1-0.2,0.188-0.299,0.26c-0.099,0.076-0.2,0.152-0.299,0.226
				c-1.074,0.75-2.142,1.32-3.203,1.706c-1.064,0.388-2.045,0.582-2.944,0.582c-0.099,0-0.199,0-0.297,0
				c-0.101,0-0.202-0.013-0.3-0.036c-0.399-0.025-0.824-0.091-1.272-0.188c-0.451-0.099-1.011-0.277-1.687-0.526
				c-0.198,0.052-0.404,0.109-0.616,0.169c-0.214,0.062-0.42,0.119-0.62,0.171c-0.297,0.072-0.606,0.155-0.918,0.246
				c-0.313,0.082-0.632,0.142-0.955,0.165c-0.425,0-0.744-0.163-0.958-0.484c-0.21-0.326-0.354-0.675-0.43-1.051
				c-0.049-0.176-0.081-0.339-0.093-0.486c-0.012-0.15-0.021-0.288-0.021-0.412c0-0.101,0.009-0.188,0.021-0.263
				c0.012-0.073,0.031-0.148,0.057-0.224c0.1-0.151,0.243-0.32,0.428-0.505c0.189-0.191,0.483-0.433,0.882-0.733
				c0.374-0.3,0.736-0.616,1.086-0.955c0.351-0.334,0.701-0.668,1.05-0.989c0.125-0.151,0.255-0.295,0.395-0.432
				c0.136-0.139,0.268-0.27,0.392-0.394c-0.102-0.373-0.173-0.699-0.223-0.974c-0.051-0.277-0.09-0.55-0.113-0.823
				c-0.025-0.127-0.039-0.251-0.039-0.375c0-0.124,0-0.261,0-0.414c0-1.471,0.436-2.778,1.306-3.912c0.87-1.14,2.1-1.705,3.69-1.705
				c0.569,0,1.014,0.16,1.324,0.488c0.309,0.321,0.467,0.785,0.467,1.387c0,0.549-0.133,1.11-0.399,1.683
				c-0.266,0.574-0.698,1.212-1.295,1.912c0.198,0.422,0.384,0.885,0.559,1.384c0.176,0.501,0.3,0.987,0.377,1.461
				c0.024,0.176,0.041,0.346,0.054,0.506c0.012,0.162,0.021,0.333,0.021,0.506c0,1.048-0.401,1.971-1.199,2.77
				c-0.799,0.8-1.983,1.448-3.556,1.949c0.375,0.098,0.699,0.185,0.973,0.265c0.274,0.069,0.55,0.121,0.823,0.147
				c0.126,0,0.262,0.005,0.414,0.019c0.148,0.013,0.296,0.018,0.449,0.018c1.196,0,2.371-0.259,3.52-0.771
				c1.15-0.513,2.188-1.116,3.111-1.817V16.118z M-59.727,17.859c0.04-0.036,0.07-0.066,0.093-0.093
				c0.227-0.249,0.375-0.499,0.451-0.749c0.076-0.251,0.115-0.537,0.115-0.864c0-0.35-0.053-0.722-0.15-1.121
				c-0.104-0.401-0.289-0.979-0.564-1.724c-0.301,0.299-0.605,0.585-0.919,0.862c-0.312,0.273-0.63,0.546-0.956,0.824
				c-0.024,0.026-0.058,0.05-0.092,0.075c-0.037,0.025-0.081,0.051-0.132,0.073c-0.173,0.176-0.35,0.339-0.523,0.489
				c-0.175,0.15-0.354,0.301-0.526,0.451l3.074,1.871C-59.807,17.932-59.765,17.9-59.727,17.859z M-55.588,9.083
				c0.318-0.399,0.563-0.775,0.735-1.125c0.171-0.348,0.292-0.7,0.365-1.049c0-0.1,0.007-0.201,0.02-0.301
				c0.013-0.099,0.018-0.199,0.018-0.298c0-0.451-0.085-0.818-0.256-1.108c-0.171-0.286-0.405-0.43-0.7-0.43
				c-0.219,0-0.4,0.119-0.547,0.358c-0.147,0.237-0.22,0.543-0.22,0.917c0,0.026,0,0.057,0,0.095c0,0.036,0,0.082,0,0.13
				c0.025,0.401,0.08,0.824,0.166,1.273c0.083,0.45,0.225,0.979,0.42,1.577V9.083z"/>
			<path fill="#FFFFFF" d="M-40.605,4.588l-3.899,10.424c-0.174,0.474-0.301,0.872-0.376,1.193
				c-0.074,0.325-0.113,0.598-0.113,0.826c0,0.344,0.127,0.636,0.379,0.858c0.249,0.224,0.573,0.336,0.977,0.336
				c0.375,0,0.833-0.089,1.372-0.263c0.539-0.176,1.084-0.425,1.634-0.745c0.15-0.075,0.296-0.157,0.432-0.246
				c0.138-0.086,0.28-0.179,0.434-0.28l-0.077-0.559c0-0.197,0.039-0.443,0.113-0.728c0.075-0.286,0.2-0.668,0.375-1.139
				l3.148-8.515l6.035-1.126l-3.935,10.35c-0.149,0.424-0.262,0.804-0.334,1.143c-0.079,0.331-0.115,0.626-0.115,0.874
				c0,0.375,0.118,0.676,0.358,0.898c0.234,0.224,0.542,0.336,0.918,0.336c0.572,0,1.292-0.196,2.152-0.584
				c0.864-0.387,1.832-0.955,2.907-1.704l0.3,0.412c-0.849,0.65-1.641,1.168-2.364,1.555c-0.722,0.39-1.436,0.683-2.138,0.882
				c-0.447,0.15-0.906,0.251-1.366,0.301c-0.462,0.049-0.944,0.072-1.446,0.072c-1.075,0-1.961-0.143-2.664-0.43
				c-0.698-0.287-1.262-0.742-1.687-1.37c-0.301,0.177-0.588,0.34-0.863,0.488c-0.274,0.151-0.565,0.275-0.863,0.374
				c-0.7,0.303-1.413,0.521-2.138,0.658c-0.727,0.137-1.491,0.207-2.289,0.207c-1.353,0-2.422-0.27-3.211-0.806
				c-0.786-0.536-1.18-1.264-1.18-2.184c0-0.224,0.024-0.468,0.075-0.726c0.05-0.264,0.112-0.531,0.187-0.805
				c0.024-0.074,0.045-0.143,0.056-0.205c0.015-0.062,0.032-0.135,0.057-0.205l3.149-8.481L-40.605,4.588z"/>
			<path fill="#FFFFFF" d="M-24.154,17.908l-0.075,0.302l0.075,0.149c0.05,0.025,0.105,0,0.169-0.078
				c0.062-0.071,0.133-0.171,0.207-0.298c0.324-0.748,0.706-1.612,1.142-2.598c0.44-0.985,0.917-2,1.445-3.05
				c1.023-1.969,2.26-3.778,3.711-5.425c1.449-1.648,3.112-2.469,4.986-2.469c0.875,0,1.567,0.22,2.081,0.655
				c0.511,0.436,0.768,1.029,0.768,1.776c0,0.227-0.025,0.45-0.074,0.675C-9.77,7.773-9.832,7.995-9.903,8.219l-2.946,7.069
				c-0.122,0.349-0.223,0.658-0.296,0.92c-0.075,0.263-0.111,0.49-0.111,0.691c0,0.397,0.137,0.711,0.411,0.936
				c0.274,0.223,0.65,0.337,1.126,0.337c0.698,0,1.361-0.15,1.985-0.45c0.626-0.298,1.237-0.638,1.835-1.013
				c0.177-0.099,0.354-0.204,0.527-0.318c0.175-0.111,0.35-0.219,0.525-0.321l0.337,0.414c-0.25,0.199-0.493,0.381-0.733,0.547
				c-0.238,0.161-0.479,0.315-0.726,0.466c-0.978,0.577-1.952,0.999-2.928,1.276c-0.975,0.274-1.972,0.411-2.998,0.411
				c-1.426,0-2.532-0.282-3.319-0.841c-0.786-0.564-1.179-1.34-1.179-2.341c0-0.199,0.013-0.403,0.038-0.616
				c0.025-0.211,0.074-0.432,0.148-0.652c0.023-0.127,0.063-0.259,0.111-0.396c0.05-0.139,0.099-0.269,0.148-0.391l3.317-8.116
				l0.11-0.34c0-0.024-0.013-0.043-0.038-0.054c-0.025-0.013-0.062-0.021-0.113-0.021c-0.022,0-0.048,0-0.072,0
				c-0.027,0-0.064,0.021-0.115,0.056c-0.05,0.036-0.124,0.109-0.223,0.208c-1.125,0.897-2.157,2.019-3.091,3.368
				c-0.939,1.341-1.807,2.73-2.608,4.147c-0.424,0.774-0.832,1.541-1.218,2.302c-0.388,0.761-0.757,1.492-1.106,2.188
				c-0.026,0.023-0.044,0.05-0.056,0.071c-0.012,0.027-0.019,0.051-0.019,0.079c-0.3,0.549-0.621,0.911-0.957,1.085
				c-0.337,0.174-0.819,0.264-1.442,0.264c-1.077,0-1.895-0.215-2.456-0.638c-0.564-0.424-0.847-1.049-0.847-1.871
				c0-0.272,0.042-0.578,0.116-0.916c0.075-0.334,0.187-0.716,0.337-1.142l3.26-8.827l5.961-1.086L-24.154,17.908z"/>
			<path fill="#FFFFFF" d="M-2.405,17.663l-0.114,0.447c0,0.051,0.007,0.08,0.021,0.095c0.009,0.015,0.028,0.032,0.053,0.056h0.04
				c0.072,0,0.237-0.211,0.487-0.637c0.251-0.422,0.511-0.898,0.785-1.423c0.026-0.051,0.052-0.097,0.077-0.148
				c0.022-0.052,0.051-0.099,0.076-0.152c0.247-0.522,0.485-1.011,0.711-1.457c0.225-0.449,0.362-0.739,0.41-0.865
				c0.227-0.473,0.471-0.992,0.733-1.55c0.263-0.564,0.544-1.121,0.843-1.667c0.774-1.475,1.716-2.83,2.83-4.063
				C5.656,5.06,7.064,4.442,8.763,4.442c1.074,0,1.936,0.232,2.583,0.693c0.654,0.463,0.979,1.07,0.979,1.821
				c0,1.55-0.94,2.929-2.833,4.125c-1.886,1.205-4.204,1.904-6.954,2.105l0.04,0.075c1.024,0.025,1.871,0.099,2.531,0.223
				c0.664,0.127,1.279,0.374,1.854,0.743c0.298,0.203,0.605,0.443,0.917,0.728c0.313,0.288,0.659,0.616,1.035,0.988
				c0.274,0.3,0.534,0.545,0.785,0.731c0.249,0.183,0.5,0.33,0.751,0.425c0.174,0.078,0.346,0.134,0.523,0.169
				c0.178,0.038,0.347,0.058,0.525,0.058c0.125,0,0.244-0.007,0.357-0.02c0.111-0.011,0.229-0.03,0.354-0.058
				c0.251-0.049,0.531-0.155,0.846-0.315c0.312-0.166,0.705-0.41,1.18-0.732l0.334,0.413c-1.05,0.873-2.128,1.518-3.24,1.93
				c-1.114,0.414-2.256,0.616-3.433,0.616c-1.523,0-2.836-0.43-3.933-1.291c-1.102-0.86-2.087-2.243-2.962-4.141
				c-0.25,0.423-0.451,0.793-0.6,1.105c-0.15,0.311-0.3,0.605-0.45,0.88l-0.039,0.036c-0.022,0.05-0.054,0.106-0.09,0.169
				c-0.038,0.062-0.069,0.132-0.093,0.207c-0.251,0.524-0.478,0.962-0.677,1.312c-0.2,0.349-0.399,0.638-0.597,0.864
				c-0.276,0.349-0.576,0.568-0.902,0.656c-0.323,0.086-0.736,0.13-1.234,0.13c-1.05,0-1.877-0.244-2.476-0.73
				c-0.6-0.488-0.9-1.15-0.9-2.003c0-0.297,0.03-0.641,0.097-1.026c0.061-0.386,0.166-0.779,0.316-1.178L0.029-4.744l5.925-1.161
				L-2.405,17.663z M1.376,12.992c0.949-0.401,1.83-0.914,2.644-1.538c0.81-0.626,1.482-1.289,2.005-1.985
				C6.35,9.044,6.605,8.624,6.793,8.21c0.19-0.413,0.284-0.806,0.284-1.181c0-0.274-0.079-0.506-0.227-0.692
				c-0.148-0.189-0.352-0.283-0.6-0.283c-0.428,0-0.969,0.414-1.631,1.237c-0.66,0.827-1.344,1.916-2.043,3.262
				c-0.201,0.375-0.399,0.769-0.6,1.178c-0.199,0.416-0.401,0.849-0.601,1.295V12.992z"/>
			<path fill="#FFFFFF" d="M19.674,15.633c-0.074,0.274-0.138,0.531-0.187,0.767c-0.051,0.24-0.074,0.471-0.074,0.696
				c0,0.401,0.123,0.712,0.374,0.938c0.251,0.227,0.611,0.336,1.086,0.336c0.676,0,1.318-0.152,1.932-0.466
				c0.611-0.314,1.191-0.669,1.743-1.069c0.198-0.124,0.391-0.25,0.58-0.374c0.188-0.125,0.381-0.251,0.581-0.377l0.338,0.337
				c-1.124,1.002-2.268,1.719-3.429,2.156c-1.163,0.438-2.418,0.658-3.769,0.658c-1.499,0-2.674-0.23-3.522-0.694
				c-0.853-0.463-1.274-1.118-1.274-1.97c0-0.199,0.023-0.42,0.074-0.658c0.049-0.238,0.1-0.481,0.153-0.732
				c0-0.049,0.006-0.096,0.015-0.147c0.014-0.049,0.03-0.098,0.055-0.15l3.375-9.3l5.997-1.238L19.674,15.633z"/>
			<path fill="#FFFFFF" d="M39.559,16.118l0.338,0.487c-0.099,0.1-0.198,0.188-0.298,0.26c-0.102,0.076-0.201,0.152-0.3,0.226
				c-1.074,0.75-2.145,1.32-3.205,1.706c-1.063,0.388-2.04,0.582-2.941,0.582c-0.099,0-0.2,0-0.303,0
				c-0.098,0-0.194-0.013-0.295-0.036c-0.399-0.025-0.826-0.091-1.274-0.188c-0.447-0.099-1.008-0.277-1.684-0.526
				c-0.198,0.052-0.404,0.109-0.62,0.169c-0.208,0.062-0.416,0.119-0.615,0.171c-0.302,0.072-0.606,0.155-0.922,0.246
				c-0.309,0.082-0.628,0.142-0.955,0.165c-0.423,0-0.744-0.163-0.956-0.484c-0.211-0.326-0.354-0.675-0.428-1.051
				c-0.051-0.176-0.083-0.339-0.097-0.486c-0.012-0.15-0.015-0.288-0.015-0.412c0-0.101,0.003-0.188,0.015-0.263
				c0.013-0.073,0.034-0.148,0.058-0.224c0.099-0.151,0.242-0.32,0.431-0.505c0.187-0.191,0.481-0.433,0.88-0.733
				c0.376-0.3,0.736-0.616,1.087-0.955c0.349-0.334,0.701-0.668,1.052-0.989c0.123-0.151,0.257-0.295,0.391-0.432
				c0.138-0.139,0.269-0.27,0.395-0.394c-0.101-0.373-0.175-0.699-0.227-0.974c-0.051-0.277-0.087-0.55-0.111-0.823
				c-0.024-0.127-0.036-0.251-0.036-0.375c0-0.124,0-0.261,0-0.414c0-1.471,0.434-2.778,1.303-3.912
				c0.871-1.14,2.1-1.705,3.692-1.705c0.572,0,1.01,0.16,1.324,0.488c0.31,0.321,0.467,0.785,0.467,1.387
				c0,0.549-0.136,1.11-0.4,1.683c-0.267,0.574-0.699,1.212-1.3,1.912c0.201,0.422,0.387,0.885,0.563,1.384
				c0.176,0.501,0.3,0.987,0.378,1.461c0.022,0.176,0.042,0.346,0.054,0.506c0.012,0.162,0.017,0.333,0.017,0.506
				c0,1.048-0.4,1.971-1.197,2.77c-0.797,0.8-1.982,1.448-3.553,1.949c0.37,0.098,0.699,0.185,0.971,0.265
				c0.274,0.069,0.55,0.121,0.825,0.147c0.124,0,0.259,0.005,0.41,0.019c0.152,0.013,0.302,0.018,0.449,0.018
				c1.198,0,2.37-0.259,3.52-0.771c1.153-0.513,2.189-1.116,3.112-1.817V16.118z M29.57,17.859c0.036-0.036,0.068-0.066,0.096-0.093
				c0.221-0.249,0.376-0.499,0.447-0.749c0.074-0.251,0.11-0.537,0.11-0.864c0-0.35-0.049-0.722-0.146-1.121
				c-0.104-0.401-0.287-0.979-0.564-1.724c-0.3,0.299-0.606,0.585-0.917,0.862c-0.312,0.273-0.631,0.546-0.958,0.824
				c-0.024,0.026-0.053,0.05-0.09,0.075c-0.041,0.025-0.083,0.051-0.135,0.073c-0.173,0.176-0.349,0.339-0.525,0.489
				c-0.173,0.15-0.347,0.301-0.525,0.451l3.076,1.871C29.489,17.932,29.533,17.9,29.57,17.859z M33.712,9.083
				c0.317-0.399,0.561-0.775,0.731-1.125c0.168-0.348,0.294-0.7,0.366-1.049c0-0.1,0.008-0.201,0.018-0.301
				c0.013-0.099,0.018-0.199,0.018-0.298c0-0.451-0.084-0.818-0.256-1.108c-0.173-0.286-0.404-0.43-0.696-0.43
				c-0.221,0-0.406,0.119-0.554,0.358c-0.142,0.237-0.219,0.543-0.219,0.917c0,0.026,0,0.057,0,0.095c0,0.036,0,0.082,0,0.13
				c0.027,0.401,0.082,0.824,0.167,1.273c0.084,0.45,0.226,0.979,0.425,1.577V9.083z"/>
			<path fill="#FFFFFF" d="M53.469,16.118l0.336,0.487c-0.098,0.1-0.2,0.188-0.3,0.26c-0.099,0.076-0.201,0.152-0.301,0.226
				c-1.073,0.75-2.141,1.32-3.201,1.706c-1.063,0.388-2.045,0.582-2.943,0.582c-0.099,0-0.198,0-0.298,0
				c-0.102,0-0.202-0.013-0.3-0.036c-0.399-0.025-0.823-0.091-1.272-0.188c-0.452-0.099-1.011-0.277-1.686-0.526
				c-0.195,0.052-0.408,0.109-0.619,0.169c-0.211,0.062-0.416,0.119-0.618,0.171c-0.296,0.072-0.606,0.155-0.918,0.246
				c-0.313,0.082-0.63,0.142-0.954,0.165c-0.426,0-0.746-0.163-0.957-0.484c-0.212-0.326-0.354-0.675-0.432-1.051
				c-0.049-0.176-0.078-0.339-0.091-0.486c-0.014-0.15-0.023-0.288-0.023-0.412c0-0.101,0.009-0.188,0.023-0.263
				c0.013-0.073,0.029-0.148,0.055-0.224c0.1-0.151,0.243-0.32,0.431-0.505c0.186-0.191,0.482-0.433,0.881-0.733
				c0.374-0.3,0.734-0.616,1.083-0.955c0.351-0.334,0.703-0.668,1.052-0.989c0.125-0.151,0.255-0.295,0.393-0.432
				c0.136-0.139,0.268-0.27,0.392-0.394c-0.101-0.373-0.171-0.699-0.22-0.974c-0.053-0.277-0.093-0.55-0.115-0.823
				c-0.024-0.127-0.038-0.251-0.038-0.375c0-0.124,0-0.261,0-0.414c0-1.471,0.434-2.778,1.305-3.912c0.87-1.14,2.1-1.705,3.69-1.705
				c0.571,0,1.016,0.16,1.325,0.488c0.309,0.321,0.464,0.785,0.464,1.387c0,0.549-0.128,1.11-0.397,1.683
				c-0.264,0.574-0.697,1.212-1.294,1.912c0.195,0.422,0.385,0.885,0.561,1.384c0.173,0.501,0.298,0.987,0.371,1.461
				c0.028,0.176,0.044,0.346,0.056,0.506c0.015,0.162,0.022,0.333,0.022,0.506c0,1.048-0.4,1.971-1.199,2.77
				c-0.798,0.8-1.984,1.448-3.556,1.949c0.375,0.098,0.699,0.185,0.972,0.265c0.276,0.069,0.55,0.121,0.823,0.147
				c0.129,0,0.262,0.005,0.415,0.019c0.148,0.013,0.296,0.018,0.446,0.018c1.2,0,2.374-0.259,3.522-0.771
				c1.149-0.513,2.187-1.116,3.112-1.817V16.118z M43.475,17.859c0.04-0.036,0.07-0.066,0.094-0.093
				c0.227-0.249,0.377-0.499,0.452-0.749c0.074-0.251,0.114-0.537,0.114-0.864c0-0.35-0.052-0.722-0.152-1.121
				c-0.102-0.401-0.287-0.979-0.563-1.724c-0.298,0.299-0.605,0.585-0.917,0.862c-0.313,0.273-0.632,0.546-0.956,0.824
				c-0.026,0.026-0.058,0.05-0.094,0.075c-0.037,0.025-0.082,0.051-0.134,0.073c-0.176,0.176-0.348,0.339-0.521,0.489
				c-0.177,0.15-0.354,0.301-0.527,0.451l3.076,1.871C43.396,17.932,43.438,17.9,43.475,17.859z M47.614,9.083
				c0.319-0.399,0.563-0.775,0.737-1.125c0.172-0.348,0.292-0.7,0.363-1.049c0-0.1,0.008-0.201,0.021-0.301
				c0.012-0.099,0.019-0.199,0.019-0.298c0-0.451-0.086-0.818-0.258-1.108c-0.17-0.286-0.403-0.43-0.7-0.43
				c-0.218,0-0.4,0.119-0.546,0.358c-0.146,0.237-0.219,0.543-0.219,0.917c0,0.026,0,0.057,0,0.095c0,0.036,0,0.082,0,0.13
				c0.022,0.401,0.077,0.824,0.164,1.273c0.083,0.45,0.226,0.979,0.419,1.577V9.083z"/>
			<path fill="#FFFFFF" d="M68.556,16.081l0.304,0.524c-0.474,0.322-0.94,0.612-1.39,0.86c-0.449,0.251-0.898,0.477-1.348,0.675
				c-1.077,0.451-2.168,0.77-3.284,0.956c-1.106,0.189-2.354,0.282-3.729,0.282c-0.272,0-0.568-0.008-0.881-0.018
				c-0.311-0.014-0.619-0.034-0.916-0.055c-1.024-0.127-1.962-0.427-2.815-0.901c-0.848-0.474-1.274-1.32-1.274-2.547
				c0-0.571,0.089-1.246,0.263-2.02c0.177-0.771,0.44-1.648,0.785-2.62c0.751-2.022,1.87-3.657,3.355-4.906
				c1.483-1.245,3.352-1.871,5.599-1.871c1.148,0,2.022,0.22,2.623,0.655c0.597,0.436,0.899,1.092,0.899,1.963
				c0,0.103-0.012,0.197-0.023,0.283c-0.012,0.085-0.017,0.179-0.017,0.282c-0.174,1.297-0.951,2.551-2.342,3.761
				c-1.383,1.209-3.198,2.24-5.443,3.086c-0.049,0.3-0.087,0.543-0.111,0.735c-0.023,0.184-0.039,0.365-0.039,0.541
				c0,0.023,0,0.055,0,0.091s0,0.068,0,0.096c0,0.8,0.26,1.424,0.771,1.888c0.509,0.465,1.213,0.693,2.114,0.693
				c1.025,0,2.127-0.204,3.3-0.616c1.178-0.414,2.377-1.008,3.599-1.782V16.081z M59.101,13.702
				c0.297-0.226,0.653-0.544,1.066-0.954c0.412-0.412,0.843-0.882,1.295-1.407c0.275-0.3,0.537-0.619,0.787-0.955
				c0.247-0.339,0.498-0.668,0.749-0.995c0.475-0.674,0.865-1.334,1.183-1.986c0.309-0.649,0.466-1.2,0.466-1.651
				c0-0.25-0.08-0.453-0.245-0.618c-0.163-0.163-0.354-0.244-0.58-0.244c-0.074,0-0.144,0.008-0.205,0.02
				c-0.063,0.013-0.121,0.033-0.169,0.057c-0.549,0.227-1.082,0.785-1.595,1.686c-0.51,0.9-0.981,1.873-1.407,2.923
				c-0.32,0.826-0.603,1.621-0.84,2.382c-0.238,0.764-0.407,1.354-0.505,1.779V13.702z"/>
			<path fill="#FFFFFF" d="M90.176,16.122l0.302,0.449c-1.149,0.949-2.332,1.633-3.541,2.044c-1.216,0.412-2.608,0.619-4.183,0.619
				c-1.148,0-2.071-0.13-2.774-0.378c-0.699-0.249-1.26-0.65-1.688-1.196c-0.848,0.546-1.773,0.955-2.771,1.214
				c-1,0.265-2.04,0.396-3.111,0.396c-1.375,0-2.406-0.306-3.096-0.922c-0.686-0.613-1.028-1.535-1.028-2.763
				c0-0.528,0.049-1.073,0.148-1.633c0.099-0.564,0.25-1.135,0.453-1.714c0.724-1.978,1.934-3.79,3.634-5.432
				c1.699-1.641,3.624-2.462,5.771-2.462c0.576,0,1.101,0.058,1.577,0.169c0.474,0.111,0.926,0.306,1.349,0.582
				c0.075,0.048,0.158,0.104,0.243,0.166c0.091,0.064,0.17,0.122,0.245,0.169l3.634-10.251L91.3-5.905l-7.61,21.618
				c-0.097,0.273-0.167,0.496-0.206,0.671c-0.037,0.176-0.052,0.339-0.052,0.486c0,0.451,0.154,0.797,0.462,1.033
				c0.317,0.235,0.745,0.354,1.3,0.354c0.672,0,1.435-0.173,2.281-0.522c0.854-0.353,1.75-0.879,2.701-1.577V16.122z M80.523,5.338
				c-0.362-0.212-0.767-0.319-1.219-0.319c-0.3,0-0.578,0.064-0.841,0.189c-0.263,0.125-0.52,0.326-0.77,0.602
				c-0.375,0.403-0.762,1.002-1.165,1.806c-0.398,0.803-0.849,1.866-1.348,3.197c-0.601,1.58-0.999,2.734-1.201,3.459
				c-0.196,0.728-0.312,1.367-0.336,1.918c0,0.026,0,0.052,0,0.075c0,0.027,0,0.052,0,0.076c0,0.552,0.164,0.99,0.486,1.316
				c0.328,0.326,0.764,0.489,1.315,0.489c0.174,0,0.347-0.013,0.522-0.04c0.175-0.021,0.35-0.073,0.523-0.147
				c0.275-0.103,0.545-0.234,0.808-0.395c0.265-0.163,0.531-0.372,0.806-0.623l-0.074-0.678c0-0.022,0-0.048,0-0.074
				c0-0.122,0.026-0.27,0.074-0.434c0.049-0.16,0.128-0.392,0.224-0.692l3.112-8.765C81.192,5.873,80.886,5.553,80.523,5.338z"/>
		</g>
		<polygon fill="#FFFFFF" points="25.688,-1.555 19.748,-0.342 18.429,3.469 24.393,2.233 		"/>
	</g>
	<path fill="#E2027B" d="M-50.221,22.934c-0.113-0.784-1.278-1.002-2.602-1.002c-1.166,0-2.151,0.396-2.151,1.018
		c0,0.306,0.272,0.616,1.278,0.73l3.045,0.359c1.324,0.155,1.935,0.676,1.935,1.37c0,1.118-1.459,1.797-3.882,1.797
		c-2.319,0-3.666-0.591-3.813-1.828h1.245c0.034,0.756,1.087,1.19,2.637,1.19c1.698,0,2.637-0.461,2.637-1.074
		c0-1.556-6.259-0.145-6.259-2.498c0-1.08,1.336-1.701,3.565-1.701c1.699,0,3.497,0.35,3.61,1.639H-50.221z"/>
	<path fill="#E2027B" d="M-35.438,21.295c3.432,0,4.596,1.618,4.596,2.951c0,1.342-1.164,2.96-4.596,2.96
		c-3.427,0-4.594-1.618-4.594-2.96C-40.033,22.913-38.866,21.295-35.438,21.295z M-35.438,26.568c1.983,0,3.352-0.935,3.352-2.322
		c0-1.382-1.369-2.314-3.352-2.314c-1.98,0-3.349,0.933-3.349,2.314C-38.787,25.634-37.418,26.568-35.438,26.568z"/>
	<path fill="#E2027B" d="M-20.516,21.44h1.178v4.98h4.707v0.637h-5.885V21.44z"/>
	<path fill="#E2027B" d="M0.323,21.44H1.5v3.354c0,1.603-1.585,2.411-3.803,2.411c-2.218,0-3.802-0.809-3.802-2.411V21.44h1.175
		v3.391c0,1.075,0.939,1.737,2.626,1.737s2.626-0.662,2.626-1.737V21.44z"/>
	<path fill="#E2027B" d="M14.107,22.126h-3.463V21.44h8.105v0.686h-3.463v4.932h-1.178V22.126z"/>
	<path fill="#E2027B" d="M28.891,21.44h1.178v5.617h-1.178V21.44z"/>
	<path fill="#E2027B" d="M44.774,21.295c3.431,0,4.597,1.618,4.597,2.951c0,1.342-1.166,2.96-4.597,2.96
		c-3.429,0-4.595-1.618-4.595-2.96C40.179,22.913,41.346,21.295,44.774,21.295z M44.774,26.568c1.979,0,3.351-0.935,3.351-2.322
		c0-1.382-1.371-2.314-3.351-2.314c-1.98,0-3.35,0.933-3.35,2.314C41.424,25.634,42.794,26.568,44.774,26.568z"/>
	<path fill="#E2027B" d="M65.402,21.44h1.178v5.617h-1.606l-5.004-4.792h-0.022v4.792h-1.177V21.44h1.606l5.002,4.794h0.023V21.44z"
		/>
	<path fill="#E2027B" d="M82.046,22.934c-0.111-0.784-1.279-1.002-2.603-1.002c-1.167,0-2.151,0.396-2.151,1.018
		c0,0.306,0.272,0.616,1.28,0.73l3.042,0.359c1.326,0.155,1.936,0.676,1.936,1.37c0,1.118-1.459,1.797-3.88,1.797
		c-2.321,0-3.667-0.591-3.814-1.828h1.245c0.035,0.756,1.087,1.19,2.637,1.19c1.698,0,2.637-0.461,2.637-1.074
		c0-1.556-6.257-0.145-6.257-2.498c0-1.08,1.334-1.701,3.562-1.701c1.7,0,3.499,0.35,3.61,1.639H82.046z"/>
</g>
</svg>
