<?xml version="1.0" encoding="utf-8"?>
<!-- Generator: Adobe Illustrator 15.0.0, SVG Export Plug-In . SVG Version: 6.00 Build 0)  -->
<!DOCTYPE svg PUBLIC "-//W3C//DTD SVG 1.1//EN" "http://www.w3.org/Graphics/SVG/1.1/DTD/svg11.dtd">
<svg version="1.1" id="Ebene_1" xmlns="http://www.w3.org/2000/svg" xmlns:xlink="http://www.w3.org/1999/xlink" x="0px" y="0px"
	 width="119.384px" height="20.916px" viewBox="0 0 119.384 20.916" enable-background="new 0 0 119.384 20.916"
	 xml:space="preserve">
<image overflow="visible" width="1275" height="339" xlink:href="84574732.jpg"  transform="matrix(1 0 0 1 -82.8594 -38.624)">
</image>
<image overflow="visible" width="1274" height="338" xlink:href="B8B23E53.jpg"  transform="matrix(1 0 0 1 80.6367 417.8721)">
</image>
<g>
	<path fill="#E2027B" d="M34.383,0c-0.325,0.208-11.186,7.052-13.404,6.595C18.82,6.152,20.71,0.87,20.868,0.449
		c-0.163,0.42-2.229,5.674-5.034,6.684C12.896,8.19,8.371,4.592,8.281,4.517c0.088,0.076,4.556,3.699,2.739,5.593
		C9.173,12.035,0,12.55,0,12.55s9.088-0.78,9.46,1.225c0.323,1.741-8.028,7.141-8.028,7.141s8.31-5.566,10.594-5.188
		c1.041,0.172,3.271-0.048,3.091-0.027c-3.543,0.416-6.071-1.229-5.049-3.702c1.021-2.471,4.722-4.813,8.268-5.219
		c3.082-0.354,4.086,0.087,4.603,1.7c0,0,0.062,0.117,0.052,0.029C22.805,6.924,34.058,0.21,34.383,0z M20.564,0.484
		c0.009-0.027,0.016-0.042,0.016-0.042S20.573,0.457,20.564,0.484z"/>
	<g>
		<g>
			<path fill="#FFFFFF" d="M23.221,18.201l0.229,0.331c-0.069,0.068-0.138,0.127-0.204,0.177c-0.068,0.053-0.136,0.104-0.204,0.154
				c-0.733,0.511-1.461,0.899-2.184,1.164c-0.725,0.264-1.394,0.396-2.006,0.396c-0.068,0-0.137,0-0.205,0
				c-0.068,0-0.136-0.008-0.204-0.025c-0.272-0.016-0.562-0.06-0.868-0.13c-0.309-0.066-0.689-0.186-1.149-0.357
				c-0.136,0.035-0.275,0.074-0.42,0.116c-0.146,0.042-0.286,0.082-0.423,0.116c-0.202,0.05-0.413,0.104-0.625,0.168
				c-0.213,0.057-0.43,0.095-0.652,0.112c-0.29,0-0.506-0.11-0.653-0.331c-0.143-0.221-0.241-0.46-0.293-0.714
				c-0.034-0.121-0.056-0.231-0.063-0.333c-0.009-0.103-0.016-0.197-0.016-0.281c0-0.066,0.006-0.128,0.016-0.179
				c0.007-0.05,0.021-0.101,0.038-0.153c0.069-0.102,0.167-0.218,0.292-0.344c0.129-0.131,0.329-0.295,0.602-0.499
				c0.255-0.204,0.501-0.42,0.74-0.651c0.238-0.23,0.478-0.456,0.715-0.678c0.086-0.102,0.174-0.198,0.27-0.292
				c0.092-0.094,0.182-0.184,0.267-0.27c-0.07-0.254-0.118-0.476-0.152-0.665c-0.036-0.188-0.062-0.373-0.078-0.56
				c-0.016-0.087-0.025-0.17-0.025-0.254c0-0.087,0-0.18,0-0.283c0-1.003,0.297-1.894,0.889-2.668
				c0.593-0.777,1.432-1.162,2.517-1.162c0.389,0,0.691,0.109,0.903,0.333c0.211,0.219,0.317,0.537,0.317,0.945
				c0,0.375-0.09,0.758-0.271,1.149c-0.182,0.39-0.476,0.825-0.882,1.301c0.134,0.29,0.261,0.604,0.381,0.943
				c0.119,0.341,0.204,0.675,0.257,0.997c0.016,0.121,0.028,0.236,0.035,0.346c0.009,0.11,0.015,0.224,0.015,0.342
				c0,0.716-0.274,1.346-0.817,1.89c-0.545,0.545-1.353,0.987-2.425,1.328c0.255,0.068,0.477,0.127,0.663,0.179
				c0.188,0.049,0.375,0.084,0.562,0.102c0.086,0,0.178,0.004,0.283,0.014c0.101,0.007,0.201,0.011,0.304,0.011
				c0.816,0,1.618-0.175,2.4-0.525c0.786-0.35,1.492-0.762,2.123-1.239V18.201z M16.407,19.386c0.027-0.023,0.048-0.045,0.064-0.062
				c0.153-0.171,0.256-0.341,0.307-0.511c0.05-0.171,0.078-0.366,0.078-0.589c0-0.238-0.035-0.492-0.104-0.765
				c-0.07-0.274-0.195-0.667-0.382-1.177c-0.207,0.206-0.414,0.4-0.627,0.588c-0.213,0.186-0.431,0.373-0.652,0.56
				c-0.017,0.019-0.039,0.036-0.063,0.053c-0.024,0.017-0.056,0.034-0.09,0.05c-0.119,0.119-0.238,0.23-0.355,0.334
				c-0.122,0.102-0.242,0.204-0.36,0.306l2.098,1.278C16.353,19.436,16.382,19.415,16.407,19.386z M19.23,13.402
				c0.216-0.271,0.384-0.527,0.503-0.766c0.115-0.238,0.198-0.478,0.246-0.716c0-0.068,0.005-0.137,0.014-0.206
				c0.009-0.068,0.012-0.135,0.012-0.202c0-0.309-0.055-0.56-0.173-0.756c-0.116-0.195-0.276-0.294-0.478-0.294
				c-0.15,0-0.273,0.082-0.373,0.246c-0.099,0.161-0.149,0.37-0.149,0.625c0,0.018,0,0.037,0,0.064c0,0.024,0,0.055,0,0.088
				c0.016,0.274,0.053,0.563,0.113,0.869c0.057,0.308,0.152,0.668,0.286,1.076V13.402z"/>
			<path fill="#FFFFFF" d="M29.446,10.338l-2.66,7.107c-0.117,0.324-0.203,0.596-0.255,0.815c-0.05,0.222-0.077,0.407-0.077,0.562
				c0,0.238,0.086,0.434,0.257,0.585c0.171,0.154,0.393,0.231,0.667,0.231c0.257,0,0.568-0.061,0.935-0.179
				c0.367-0.12,0.739-0.29,1.115-0.51c0.103-0.051,0.201-0.105,0.295-0.166c0.093-0.06,0.191-0.123,0.294-0.191l-0.05-0.38
				c0-0.134,0.025-0.302,0.076-0.497c0.051-0.195,0.136-0.456,0.257-0.776l2.146-5.806l4.115-0.768l-2.684,7.056
				c-0.103,0.288-0.18,0.548-0.229,0.778c-0.055,0.227-0.078,0.428-0.078,0.596c0,0.257,0.079,0.461,0.244,0.613
				c0.16,0.154,0.369,0.231,0.625,0.231c0.391,0,0.882-0.134,1.468-0.397c0.59-0.266,1.249-0.653,1.983-1.165l0.205,0.282
				c-0.581,0.444-1.119,0.796-1.611,1.061c-0.494,0.264-0.98,0.464-1.459,0.602c-0.306,0.102-0.617,0.17-0.933,0.203
				c-0.313,0.034-0.642,0.051-0.984,0.051c-0.732,0-1.338-0.098-1.815-0.293c-0.477-0.198-0.862-0.506-1.152-0.933
				c-0.206,0.118-0.401,0.228-0.588,0.332c-0.187,0.103-0.386,0.187-0.59,0.254c-0.476,0.208-0.962,0.355-1.457,0.45
				c-0.496,0.093-1.017,0.14-1.561,0.14c-0.922,0-1.652-0.183-2.191-0.546c-0.535-0.366-0.803-0.861-0.803-1.49
				c0-0.152,0.016-0.318,0.052-0.496c0.034-0.181,0.077-0.362,0.127-0.549c0.016-0.05,0.03-0.097,0.038-0.14
				c0.009-0.042,0.021-0.09,0.039-0.139l2.146-5.783L29.446,10.338z"/>
			<path fill="#FFFFFF" d="M40.664,19.421l-0.052,0.205l0.052,0.102c0.034,0.018,0.07,0,0.115-0.051
				c0.043-0.05,0.089-0.117,0.141-0.205c0.221-0.508,0.48-1.1,0.778-1.772c0.299-0.672,0.626-1.363,0.986-2.078
				c0.698-1.343,1.542-2.577,2.531-3.7c0.988-1.123,2.123-1.683,3.398-1.683c0.599,0,1.069,0.15,1.419,0.448
				c0.348,0.297,0.523,0.7,0.523,1.21c0,0.154-0.016,0.307-0.05,0.459c-0.034,0.154-0.077,0.306-0.127,0.458l-2.007,4.82
				c-0.083,0.238-0.152,0.449-0.203,0.627c-0.051,0.179-0.076,0.335-0.076,0.471c0,0.271,0.093,0.487,0.28,0.638
				c0.188,0.154,0.444,0.229,0.768,0.229c0.475,0,0.929-0.103,1.355-0.306c0.427-0.204,0.843-0.435,1.251-0.691
				c0.121-0.066,0.239-0.139,0.358-0.217c0.12-0.075,0.239-0.15,0.357-0.217l0.231,0.28c-0.17,0.137-0.336,0.26-0.5,0.373
				c-0.162,0.11-0.326,0.215-0.496,0.32c-0.666,0.392-1.329,0.68-1.994,0.869c-0.665,0.187-1.345,0.281-2.045,0.281
				c-0.972,0-1.726-0.193-2.263-0.573c-0.537-0.385-0.804-0.916-0.804-1.597c0-0.135,0.008-0.275,0.026-0.421
				c0.015-0.143,0.049-0.293,0.1-0.444c0.017-0.086,0.042-0.176,0.075-0.269c0.034-0.095,0.067-0.183,0.102-0.267l2.261-5.534
				l0.077-0.232c0-0.016-0.01-0.029-0.027-0.037c-0.015-0.008-0.041-0.014-0.076-0.014c-0.015,0-0.032,0-0.048,0
				c-0.02,0-0.044,0.014-0.079,0.039c-0.034,0.025-0.084,0.072-0.153,0.141c-0.766,0.612-1.471,1.377-2.106,2.296
				c-0.641,0.915-1.233,1.861-1.777,2.829c-0.291,0.526-0.567,1.05-0.831,1.57c-0.266,0.518-0.517,1.016-0.755,1.491
				c-0.018,0.017-0.03,0.034-0.039,0.05c-0.008,0.017-0.012,0.035-0.012,0.052c-0.205,0.375-0.423,0.623-0.652,0.742
				c-0.23,0.117-0.557,0.179-0.983,0.179c-0.734,0-1.292-0.146-1.675-0.434c-0.383-0.29-0.577-0.715-0.577-1.276
				c0-0.187,0.027-0.394,0.078-0.625c0.052-0.229,0.129-0.489,0.229-0.779l2.224-6.018l4.066-0.74L40.664,19.421z"/>
			<path fill="#FFFFFF" d="M55.493,19.252l-0.079,0.307c0,0.034,0.005,0.055,0.014,0.063c0.008,0.01,0.021,0.021,0.039,0.039h0.026
				c0.048,0,0.161-0.145,0.331-0.435c0.17-0.288,0.349-0.611,0.536-0.968c0.019-0.036,0.035-0.067,0.051-0.102
				c0.018-0.036,0.037-0.068,0.053-0.104c0.168-0.357,0.333-0.689,0.486-0.995c0.151-0.306,0.246-0.502,0.28-0.589
				c0.154-0.322,0.319-0.674,0.5-1.057c0.178-0.385,0.369-0.762,0.574-1.135c0.529-1.006,1.17-1.93,1.929-2.771
				c0.757-0.845,1.717-1.267,2.877-1.267c0.731,0,1.317,0.159,1.76,0.474c0.445,0.315,0.667,0.729,0.667,1.241
				c0,1.057-0.641,1.997-1.931,2.814c-1.285,0.821-2.866,1.298-4.74,1.435l0.026,0.051c0.698,0.016,1.275,0.066,1.727,0.152
				c0.452,0.087,0.871,0.255,1.262,0.507c0.205,0.137,0.413,0.302,0.625,0.496c0.214,0.195,0.449,0.419,0.706,0.674
				c0.188,0.204,0.365,0.37,0.537,0.496c0.169,0.127,0.341,0.225,0.51,0.292c0.119,0.053,0.238,0.089,0.36,0.114
				c0.12,0.027,0.236,0.039,0.356,0.039c0.086,0,0.167-0.003,0.242-0.012c0.076-0.01,0.158-0.021,0.243-0.04
				c0.171-0.034,0.362-0.107,0.576-0.218c0.212-0.111,0.482-0.277,0.806-0.498l0.227,0.282c-0.715,0.597-1.45,1.036-2.209,1.317
				c-0.759,0.279-1.539,0.419-2.34,0.419c-1.038,0-1.934-0.293-2.682-0.88c-0.75-0.587-1.423-1.53-2.019-2.824
				c-0.171,0.288-0.309,0.541-0.409,0.753c-0.103,0.213-0.204,0.413-0.308,0.601l-0.026,0.025c-0.016,0.034-0.038,0.071-0.062,0.115
				c-0.026,0.043-0.046,0.09-0.063,0.141c-0.17,0.357-0.327,0.656-0.461,0.894c-0.136,0.239-0.273,0.435-0.409,0.59
				c-0.187,0.236-0.391,0.387-0.612,0.445c-0.224,0.061-0.505,0.089-0.844,0.089c-0.716,0-1.28-0.165-1.689-0.497
				c-0.408-0.333-0.613-0.785-0.613-1.365c0-0.202,0.02-0.437,0.065-0.702c0.042-0.262,0.113-0.53,0.216-0.802l4.551-12.881
				l4.038-0.792L55.493,19.252z M58.07,16.069c0.647-0.273,1.25-0.624,1.803-1.049c0.551-0.43,1.01-0.88,1.366-1.355
				c0.223-0.29,0.396-0.576,0.525-0.857c0.129-0.281,0.194-0.549,0.194-0.806c0-0.186-0.055-0.344-0.155-0.471
				c-0.101-0.128-0.241-0.193-0.409-0.193c-0.29,0-0.661,0.283-1.112,0.844c-0.451,0.564-0.915,1.306-1.394,2.225
				c-0.137,0.256-0.272,0.524-0.407,0.804c-0.136,0.282-0.273,0.578-0.411,0.882V16.069z"/>
			<path fill="#FFFFFF" d="M70.546,17.869c-0.05,0.187-0.094,0.361-0.128,0.523c-0.035,0.162-0.05,0.319-0.05,0.475
				c0,0.274,0.084,0.486,0.256,0.639c0.169,0.153,0.418,0.229,0.741,0.229c0.46,0,0.899-0.104,1.316-0.317
				c0.418-0.214,0.812-0.457,1.188-0.729c0.137-0.085,0.268-0.169,0.395-0.256c0.129-0.084,0.26-0.17,0.397-0.255l0.228,0.23
				c-0.765,0.681-1.543,1.171-2.337,1.468c-0.794,0.298-1.65,0.45-2.568,0.45c-1.023,0-1.824-0.159-2.402-0.474
				c-0.581-0.315-0.871-0.763-0.871-1.344c0-0.135,0.017-0.285,0.051-0.448c0.035-0.161,0.069-0.326,0.105-0.497
				c0-0.034,0.002-0.068,0.01-0.101c0.01-0.035,0.022-0.068,0.035-0.105l2.302-6.338l4.09-0.844L70.546,17.869z"/>
			<path fill="#FFFFFF" d="M84.106,18.201l0.228,0.331c-0.064,0.068-0.135,0.127-0.203,0.177c-0.069,0.053-0.136,0.104-0.203,0.154
				c-0.733,0.511-1.464,0.899-2.187,1.164c-0.724,0.264-1.392,0.396-2.006,0.396c-0.067,0-0.133,0-0.204,0
				c-0.068,0-0.135-0.008-0.204-0.025c-0.271-0.016-0.561-0.06-0.868-0.13c-0.307-0.066-0.688-0.186-1.147-0.357
				c-0.137,0.035-0.277,0.074-0.423,0.116c-0.142,0.042-0.284,0.082-0.417,0.116c-0.209,0.05-0.416,0.104-0.631,0.168
				c-0.212,0.057-0.428,0.095-0.651,0.112c-0.288,0-0.506-0.11-0.653-0.331c-0.142-0.221-0.24-0.46-0.291-0.714
				c-0.032-0.121-0.055-0.231-0.064-0.333c-0.008-0.103-0.012-0.197-0.012-0.281c0-0.066,0.004-0.128,0.012-0.179
				c0.01-0.05,0.022-0.101,0.039-0.153c0.067-0.102,0.165-0.218,0.294-0.344c0.127-0.131,0.328-0.295,0.601-0.499
				c0.255-0.204,0.502-0.42,0.742-0.651c0.239-0.23,0.477-0.456,0.716-0.678c0.083-0.102,0.175-0.198,0.266-0.292
				c0.094-0.094,0.185-0.184,0.27-0.27c-0.068-0.254-0.12-0.476-0.154-0.665c-0.035-0.188-0.059-0.373-0.076-0.56
				c-0.018-0.087-0.025-0.17-0.025-0.254c0-0.087,0-0.18,0-0.283c0-1.003,0.295-1.894,0.889-2.668
				c0.591-0.777,1.431-1.162,2.515-1.162c0.391,0,0.691,0.109,0.903,0.333c0.211,0.219,0.32,0.537,0.32,0.945
				c0,0.375-0.093,0.758-0.273,1.149c-0.182,0.39-0.475,0.825-0.886,1.301c0.136,0.29,0.264,0.604,0.383,0.943
				c0.121,0.341,0.205,0.675,0.256,0.997c0.017,0.121,0.032,0.236,0.039,0.346c0.008,0.11,0.011,0.224,0.011,0.342
				c0,0.716-0.271,1.346-0.814,1.89c-0.545,0.545-1.353,0.987-2.425,1.328c0.253,0.068,0.479,0.127,0.664,0.179
				c0.187,0.049,0.375,0.084,0.562,0.102c0.086,0,0.178,0.004,0.28,0.014c0.103,0.007,0.206,0.011,0.307,0.011
				c0.817,0,1.615-0.175,2.401-0.525c0.785-0.35,1.492-0.762,2.122-1.239V18.201z M77.294,19.386
				c0.022-0.023,0.045-0.045,0.065-0.062c0.151-0.171,0.254-0.341,0.304-0.511c0.053-0.171,0.078-0.366,0.078-0.589
				c0-0.238-0.034-0.492-0.101-0.765c-0.071-0.274-0.197-0.667-0.385-1.177c-0.204,0.206-0.412,0.4-0.625,0.588
				c-0.214,0.186-0.431,0.373-0.651,0.56c-0.018,0.019-0.037,0.036-0.064,0.053c-0.028,0.017-0.056,0.034-0.09,0.05
				c-0.119,0.119-0.239,0.23-0.358,0.334c-0.119,0.102-0.238,0.204-0.359,0.306l2.099,1.278
				C77.239,19.436,77.27,19.415,77.294,19.386z M80.116,13.402c0.218-0.271,0.385-0.527,0.501-0.766
				c0.115-0.238,0.199-0.478,0.25-0.716c0-0.068,0.004-0.137,0.011-0.206c0.008-0.068,0.013-0.135,0.013-0.202
				c0-0.309-0.059-0.56-0.176-0.756c-0.117-0.195-0.276-0.294-0.474-0.294c-0.152,0-0.277,0.082-0.377,0.246
				c-0.098,0.161-0.149,0.37-0.149,0.625c0,0.018,0,0.037,0,0.064c0,0.024,0,0.055,0,0.088c0.018,0.274,0.056,0.563,0.115,0.869
				c0.056,0.308,0.153,0.668,0.287,1.076V13.402z"/>
			<path fill="#FFFFFF" d="M93.589,18.201l0.23,0.331c-0.07,0.068-0.139,0.127-0.205,0.177c-0.069,0.053-0.136,0.104-0.205,0.154
				c-0.732,0.511-1.461,0.899-2.186,1.164c-0.722,0.264-1.393,0.396-2.004,0.396c-0.069,0-0.135,0-0.204,0s-0.137-0.008-0.205-0.025
				c-0.271-0.016-0.562-0.06-0.869-0.13c-0.306-0.066-0.688-0.186-1.147-0.357c-0.133,0.035-0.278,0.074-0.421,0.116
				c-0.146,0.042-0.285,0.082-0.423,0.116c-0.202,0.05-0.414,0.104-0.625,0.168c-0.212,0.057-0.43,0.095-0.65,0.112
				c-0.29,0-0.508-0.11-0.652-0.331c-0.144-0.221-0.242-0.46-0.295-0.714c-0.033-0.121-0.054-0.231-0.062-0.333
				c-0.009-0.103-0.017-0.197-0.017-0.281c0-0.066,0.007-0.128,0.017-0.179c0.008-0.05,0.02-0.101,0.038-0.153
				c0.069-0.102,0.167-0.218,0.294-0.344c0.126-0.131,0.33-0.295,0.601-0.499c0.253-0.204,0.5-0.42,0.739-0.651
				c0.24-0.23,0.479-0.456,0.718-0.678c0.084-0.102,0.173-0.198,0.268-0.292c0.091-0.094,0.182-0.184,0.269-0.27
				c-0.071-0.254-0.118-0.476-0.153-0.665c-0.035-0.188-0.062-0.373-0.077-0.56c-0.018-0.087-0.026-0.17-0.026-0.254
				c0-0.087,0-0.18,0-0.283c0-1.003,0.295-1.894,0.888-2.668c0.595-0.777,1.433-1.162,2.518-1.162c0.389,0,0.691,0.109,0.904,0.333
				c0.208,0.219,0.317,0.537,0.317,0.945c0,0.375-0.089,0.758-0.273,1.149c-0.18,0.39-0.475,0.825-0.882,1.301
				c0.134,0.29,0.26,0.604,0.382,0.943c0.118,0.341,0.205,0.675,0.256,0.997c0.017,0.121,0.027,0.236,0.036,0.346
				c0.008,0.11,0.015,0.224,0.015,0.342c0,0.716-0.273,1.346-0.819,1.89c-0.544,0.545-1.351,0.987-2.423,1.328
				c0.255,0.068,0.478,0.127,0.663,0.179c0.188,0.049,0.375,0.084,0.563,0.102c0.085,0,0.177,0.004,0.281,0.014
				c0.101,0.007,0.202,0.011,0.305,0.011c0.816,0,1.619-0.175,2.401-0.525c0.783-0.35,1.49-0.762,2.122-1.239V18.201z
				 M86.776,19.386c0.026-0.023,0.046-0.045,0.063-0.062c0.155-0.171,0.257-0.341,0.308-0.511c0.052-0.171,0.077-0.366,0.077-0.589
				c0-0.238-0.035-0.492-0.102-0.765c-0.069-0.274-0.194-0.667-0.383-1.177c-0.205,0.206-0.415,0.4-0.627,0.588
				c-0.213,0.186-0.43,0.373-0.65,0.56c-0.019,0.019-0.04,0.036-0.065,0.053c-0.027,0.017-0.054,0.034-0.089,0.05
				c-0.121,0.119-0.238,0.23-0.356,0.334c-0.121,0.102-0.24,0.204-0.358,0.306l2.097,1.278
				C86.721,19.436,86.75,19.415,86.776,19.386z M89.599,13.402c0.216-0.271,0.382-0.527,0.5-0.766
				c0.117-0.238,0.199-0.478,0.248-0.716c0-0.068,0.005-0.137,0.015-0.206c0.007-0.068,0.012-0.135,0.012-0.202
				c0-0.309-0.058-0.56-0.174-0.756c-0.117-0.195-0.275-0.294-0.477-0.294c-0.15,0-0.275,0.082-0.375,0.246
				c-0.099,0.161-0.149,0.37-0.149,0.625c0,0.018,0,0.037,0,0.064c0,0.024,0,0.055,0,0.088c0.016,0.274,0.054,0.563,0.112,0.869
				c0.058,0.308,0.153,0.668,0.288,1.076V13.402z"/>
			<path fill="#FFFFFF" d="M103.876,18.174l0.207,0.357c-0.323,0.221-0.641,0.417-0.947,0.588c-0.306,0.169-0.614,0.323-0.92,0.458
				c-0.732,0.309-1.478,0.526-2.238,0.653c-0.755,0.127-1.606,0.191-2.542,0.191c-0.186,0-0.387-0.005-0.6-0.012
				c-0.213-0.009-0.422-0.021-0.626-0.038c-0.698-0.087-1.335-0.29-1.919-0.613c-0.579-0.323-0.87-0.9-0.87-1.736
				c0-0.391,0.062-0.851,0.179-1.378c0.122-0.526,0.3-1.125,0.537-1.787c0.511-1.379,1.273-2.493,2.288-3.345
				c1.011-0.849,2.286-1.275,3.818-1.275c0.783,0,1.378,0.15,1.788,0.448c0.406,0.297,0.613,0.745,0.613,1.339
				c0,0.069-0.008,0.133-0.015,0.192c-0.009,0.058-0.013,0.122-0.013,0.191c-0.12,0.884-0.65,1.74-1.596,2.564
				c-0.945,0.826-2.183,1.526-3.713,2.105c-0.034,0.205-0.06,0.37-0.077,0.501c-0.017,0.125-0.027,0.248-0.027,0.368
				c0,0.018,0,0.037,0,0.062c0,0.026,0,0.048,0,0.067c0,0.545,0.178,0.972,0.526,1.287c0.349,0.315,0.829,0.474,1.444,0.474
				c0.697,0,1.449-0.14,2.249-0.422c0.802-0.281,1.619-0.688,2.453-1.214V18.174z M97.428,16.552
				c0.204-0.153,0.447-0.372,0.729-0.651c0.281-0.28,0.574-0.601,0.881-0.959c0.188-0.204,0.367-0.422,0.536-0.652
				c0.168-0.23,0.339-0.455,0.512-0.677c0.322-0.46,0.589-0.91,0.806-1.354c0.21-0.443,0.317-0.82,0.317-1.126
				c0-0.17-0.056-0.31-0.166-0.421c-0.112-0.111-0.245-0.167-0.396-0.167c-0.052,0-0.098,0.005-0.139,0.014
				c-0.045,0.008-0.083,0.021-0.117,0.038c-0.375,0.155-0.737,0.536-1.085,1.15c-0.35,0.614-0.669,1.276-0.961,1.992
				c-0.217,0.564-0.411,1.104-0.573,1.625c-0.163,0.521-0.277,0.923-0.344,1.213V16.552z"/>
			<path fill="#FFFFFF" d="M118.617,18.201l0.206,0.308c-0.786,0.646-1.591,1.112-2.415,1.392c-0.83,0.283-1.778,0.424-2.851,0.424
				c-0.785,0-1.415-0.088-1.892-0.258c-0.479-0.17-0.861-0.444-1.151-0.815c-0.58,0.371-1.209,0.649-1.89,0.83
				c-0.684,0.177-1.392,0.268-2.122,0.268c-0.94,0-1.643-0.209-2.11-0.628c-0.469-0.418-0.701-1.047-0.701-1.885
				c0-0.358,0.032-0.729,0.102-1.113c0.065-0.385,0.168-0.773,0.306-1.166c0.496-1.351,1.321-2.585,2.478-3.706
				c1.16-1.118,2.473-1.678,3.938-1.678c0.393,0,0.75,0.038,1.073,0.115c0.324,0.077,0.633,0.208,0.921,0.397
				c0.052,0.033,0.105,0.07,0.166,0.113c0.059,0.043,0.115,0.083,0.167,0.116l2.477-6.989l4.064-0.74l-5.188,14.738
				c-0.068,0.188-0.115,0.339-0.142,0.46c-0.024,0.12-0.034,0.23-0.034,0.33c0,0.309,0.105,0.543,0.314,0.706
				c0.216,0.161,0.509,0.242,0.885,0.242c0.46,0,0.978-0.12,1.558-0.356c0.581-0.239,1.192-0.598,1.841-1.076V18.201z
				 M112.036,10.849c-0.248-0.144-0.522-0.216-0.83-0.216c-0.206,0-0.396,0.043-0.575,0.128c-0.18,0.084-0.354,0.222-0.524,0.41
				c-0.256,0.274-0.521,0.684-0.792,1.231c-0.275,0.546-0.581,1.271-0.92,2.179c-0.411,1.077-0.682,1.864-0.819,2.358
				c-0.134,0.497-0.213,0.932-0.231,1.309c0,0.018,0,0.034,0,0.051s0,0.035,0,0.052c0,0.375,0.113,0.676,0.334,0.896
				c0.222,0.224,0.52,0.336,0.896,0.336c0.117,0,0.236-0.008,0.356-0.028c0.119-0.017,0.238-0.049,0.357-0.1
				c0.187-0.069,0.371-0.16,0.55-0.271c0.18-0.111,0.363-0.252,0.549-0.422l-0.052-0.462c0-0.018,0-0.034,0-0.051
				c0-0.083,0.019-0.184,0.052-0.296c0.033-0.109,0.086-0.267,0.153-0.472l2.123-5.976C112.49,11.215,112.282,10.996,112.036,10.849
				z"/>
		</g>
		<polygon fill="#FFFFFF" points="74.647,6.149 70.597,6.977 69.697,9.574 73.763,8.731 		"/>
	</g>
</g>
</svg>
