<?xml version="1.0" encoding="utf-8"?>
<!-- Generator: Adobe Illustrator 15.0.0, SVG Export Plug-In . SVG Version: 6.00 Build 0)  -->
<!DOCTYPE svg PUBLIC "-//W3C//DTD SVG 1.1//EN" "http://www.w3.org/Graphics/SVG/1.1/DTD/svg11.dtd">
<svg version="1.1" id="Calque_1" xmlns="http://www.w3.org/2000/svg" xmlns:xlink="http://www.w3.org/1999/xlink" x="0px" y="0px"
	 width="92px" height="30px" viewBox="0 0 92 30" enable-background="new 0 0 92 30" xml:space="preserve">
<g display="none">
	<g>
		<path fill="#333333" d="M9.028,7.88C8.112,8.283,7.314,8.835,6.632,9.537c-0.682,0.702-1.221,1.517-1.618,2.446
			c-0.397,0.929-0.605,1.92-0.625,2.972c0,0.62-0.117,1.204-0.351,1.75c-0.234,0.547-0.549,1.021-0.946,1.425
			c-0.397,0.401-0.865,0.724-1.404,0.959c-0.54,0.238-1.114,0.356-1.725,0.356v3.313c1.038,0,2.019-0.201,2.945-0.604
			c0.925-0.403,1.739-0.949,2.441-1.643c0.702-0.691,1.256-1.496,1.663-2.414c0.407-0.918,0.621-1.904,0.641-2.958
			c0-0.62,0.117-1.203,0.351-1.75c0.234-0.547,0.549-1.032,0.946-1.455c0.396-0.423,0.864-0.753,1.404-0.991
			c0.539-0.237,1.114-0.356,1.724-0.356l-0.122-3.313C10.92,7.277,9.943,7.478,9.028,7.88z M26.207,9.599
			c-0.692-0.701-1.506-1.259-2.442-1.671c-0.936-0.413-1.922-0.62-2.96-0.62c-1.058,0-2.05,0.207-2.976,0.62
			c-0.926,0.413-1.729,0.97-2.411,1.671c-0.682,0.702-1.221,1.523-1.618,2.462c-0.396,0.94-0.595,1.936-0.595,2.988v11.768
			l3.112,3.188V15.049c0-0.619,0.117-1.203,0.351-1.75c0.234-0.547,0.554-1.027,0.961-1.44c0.407-0.413,0.885-0.738,1.435-0.975
			c0.549-0.237,1.129-0.356,1.739-0.356c0.61,0,1.19,0.119,1.739,0.356c0.55,0.237,1.027,0.563,1.435,0.975
			c0.407,0.413,0.728,0.893,0.961,1.44c0.234,0.546,0.351,1.13,0.351,1.75c0,0.641-0.117,1.238-0.351,1.795
			c-0.234,0.559-0.555,1.045-0.961,1.456c-0.407,0.413-0.885,0.738-1.435,0.976c-0.549,0.238-1.129,0.355-1.739,0.355
			c-0.407,0-0.773-0.063-1.099-0.186l-0.763,3.128c0.569,0.145,1.19,0.216,1.861,0.216c1.038,0,2.024-0.2,2.96-0.604
			c0.936-0.402,1.75-0.955,2.442-1.656c0.691-0.701,1.241-1.522,1.648-2.463c0.407-0.938,0.61-1.944,0.61-3.019
			c0-1.053-0.204-2.048-0.61-2.988C27.448,11.122,26.898,10.301,26.207,9.599z M42.475,9.568c-0.692-0.702-1.5-1.254-2.426-1.657
			c-0.926-0.402-1.908-0.604-2.945-0.604c-1.059,0-2.05,0.202-2.976,0.604c-0.926,0.402-1.729,0.955-2.411,1.657
			c-0.682,0.702-1.221,1.522-1.617,2.461c-0.397,0.939-0.595,1.946-0.595,3.019c0,1.073,0.198,2.08,0.595,3.019
			c0.396,0.939,0.935,1.756,1.617,2.447c0.681,0.691,1.485,1.237,2.411,1.641c0.926,0.402,1.917,0.604,2.976,0.604
			c1.037,0,2.019-0.2,2.945-0.604c0.925-0.402,1.734-0.948,2.426-1.641c0.691-0.691,1.241-1.508,1.648-2.447
			c0.407-0.938,0.61-1.944,0.61-3.019c0-1.074-0.203-2.08-0.61-3.019C43.715,11.09,43.166,10.27,42.475,9.568z M41.208,16.798
			c-0.234,0.548-0.549,1.022-0.946,1.425s-0.87,0.723-1.419,0.961c-0.549,0.236-1.128,0.355-1.739,0.355s-1.191-0.119-1.74-0.355
			c-0.55-0.238-1.028-0.559-1.434-0.961c-0.408-0.402-0.728-0.877-0.962-1.425c-0.234-0.547-0.351-1.13-0.351-1.749
			c0-0.619,0.117-1.208,0.351-1.765c0.234-0.557,0.554-1.037,0.962-1.44c0.406-0.402,0.884-0.722,1.434-0.959
			c0.549-0.237,1.129-0.356,1.74-0.356s1.19,0.119,1.739,0.356c0.55,0.237,1.022,0.557,1.419,0.959
			c0.396,0.403,0.712,0.883,0.946,1.44c0.234,0.558,0.351,1.146,0.351,1.765C41.559,15.668,41.442,16.251,41.208,16.798z
			 M59.135,9.568c-0.691-0.702-1.5-1.254-2.426-1.657c-0.926-0.403-1.907-0.604-2.945-0.604c-1.058,0-2.05,0.202-2.975,0.604
			c-0.928,0.402-1.73,0.955-2.411,1.657c-0.683,0.702-1.221,1.522-1.618,2.461c-0.396,0.939-0.595,1.946-0.595,3.019
			c0,1.073,0.198,2.08,0.595,3.019c0.397,0.939,0.936,1.756,1.618,2.447c0.681,0.691,1.483,1.237,2.411,1.641
			c0.925,0.402,1.917,0.604,2.975,0.604c1.038,0,2.02-0.2,2.945-0.604c0.926-0.402,1.734-0.948,2.426-1.641
			c0.691-0.691,1.241-1.508,1.648-2.447c0.406-0.938,0.609-1.944,0.609-3.019c0-1.074-0.203-2.08-0.609-3.019
			C60.376,11.09,59.827,10.27,59.135,9.568z M57.869,16.798c-0.234,0.548-0.549,1.022-0.946,1.425s-0.87,0.723-1.419,0.961
			c-0.549,0.236-1.13,0.355-1.74,0.355c-0.611,0-1.189-0.119-1.738-0.355c-0.551-0.238-1.027-0.559-1.436-0.961
			c-0.406-0.402-0.729-0.877-0.961-1.425c-0.234-0.547-0.352-1.13-0.352-1.749c0-0.619,0.117-1.208,0.352-1.765
			c0.232-0.557,0.555-1.037,0.961-1.44c0.407-0.402,0.885-0.722,1.436-0.959c0.549-0.237,1.127-0.356,1.738-0.356
			c0.61,0,1.19,0.119,1.74,0.356c0.551,0.237,1.021,0.557,1.419,0.959c0.396,0.403,0.711,0.883,0.946,1.44
			c0.234,0.558,0.352,1.146,0.352,1.765C58.221,15.668,58.104,16.251,57.869,16.798z M76.102,9.599
			c-0.691-0.701-1.506-1.259-2.44-1.671c-0.937-0.413-1.935-0.62-2.991-0.62s-2.057,0.207-2.99,0.62
			c-0.937,0.413-1.75,0.97-2.441,1.671c-0.691,0.702-1.235,1.523-1.633,2.462c-0.396,0.94-0.584,1.936-0.564,2.988v7.74h3.174v-7.74
			c0-0.619,0.117-1.208,0.352-1.765c0.233-0.557,0.556-1.037,0.961-1.44c0.408-0.402,0.881-0.722,1.421-0.959
			c0.538-0.237,1.112-0.356,1.724-0.356s1.186,0.119,1.725,0.356c0.539,0.237,1.013,0.557,1.42,0.959
			c0.406,0.403,0.727,0.883,0.961,1.44c0.233,0.558,0.352,1.146,0.352,1.765v7.74h3.174v-7.74c0.021-1.053-0.168-2.048-0.564-2.988
			C77.338,11.122,76.793,10.301,76.102,9.599z M91.498,7.277c-1.036,0-2.014,0.201-2.93,0.604c-0.916,0.402-1.715,0.955-2.396,1.657
			c-0.683,0.702-1.221,1.517-1.618,2.446c-0.396,0.929-0.604,1.92-0.625,2.972c0,0.62-0.117,1.204-0.352,1.75
			c-0.232,0.547-0.549,1.021-0.946,1.425c-0.396,0.401-0.864,0.723-1.403,0.959c-0.539,0.238-1.113,0.355-1.725,0.355v3.313
			c1.038,0,2.02-0.2,2.945-0.604c0.926-0.402,1.74-0.948,2.441-1.641c0.701-0.691,1.256-1.496,1.664-2.416
			c0.404-0.918,0.619-1.904,0.639-2.957c0-0.62,0.117-1.203,0.353-1.75c0.233-0.547,0.55-1.032,0.945-1.455
			c0.397-0.423,0.864-0.753,1.405-0.991c0.537-0.237,1.111-0.356,1.724-0.356L91.498,7.277z"/>
	</g>
</g>
<g>
	<path fill="#E2027B" d="M32.356,0.213c-0.291,0.295-10.012,9.969-12.197,9.25c-2.126-0.701-0.876-8.335-0.77-8.944
		c-0.111,0.607-1.535,8.194-4.127,9.592c-2.713,1.463-7.458-3.887-7.554-3.998c0.095,0.112,4.786,5.496,3.24,8.204
		C9.376,17.07,0.601,17.584,0.601,17.584s8.667-0.901,9.241,2.024c0.498,2.541-6.961,10.179-6.961,10.179s7.402-7.881,9.642-7.272
		c1.021,0.277,3.145,0.015,2.974,0.04c-3.369,0.513-5.979-1.944-5.261-5.515c0.717-3.567,4.029-6.878,7.398-7.379
		c2.93-0.436,3.944,0.232,4.615,2.591c0,0,0.073,0.172,0.054,0.045C21.953,9.987,32.064,0.511,32.356,0.213z M19.101,0.562
		c0.007-0.039,0.011-0.06,0.011-0.06S19.107,0.523,19.101,0.562z"/>
	<g>
		<g>
			<path fill="#FFFFFF" d="M20.757,19.224l0.178,0.257c-0.052,0.053-0.106,0.099-0.158,0.138c-0.052,0.041-0.106,0.081-0.158,0.119
				c-0.568,0.396-1.132,0.697-1.694,0.902c-0.562,0.205-1.081,0.308-1.557,0.308c-0.052,0-0.105,0-0.158,0s-0.106-0.007-0.158-0.02
				c-0.211-0.013-0.436-0.047-0.673-0.101c-0.239-0.052-0.535-0.145-0.892-0.277c-0.105,0.027-0.214,0.058-0.326,0.09
				c-0.114,0.033-0.222,0.063-0.328,0.09c-0.157,0.039-0.32,0.081-0.484,0.131c-0.167,0.044-0.334,0.073-0.505,0.087
				c-0.225,0-0.393-0.086-0.506-0.257c-0.111-0.171-0.188-0.356-0.228-0.554c-0.026-0.094-0.043-0.18-0.049-0.259
				c-0.007-0.079-0.012-0.152-0.012-0.218c0-0.052,0.005-0.1,0.012-0.139c0.006-0.039,0.017-0.078,0.03-0.119
				c0.053-0.079,0.129-0.169,0.227-0.267c0.1-0.102,0.255-0.229,0.467-0.387c0.198-0.158,0.389-0.326,0.574-0.505
				s0.371-0.354,0.556-0.525c0.065-0.079,0.134-0.154,0.208-0.227c0.072-0.072,0.142-0.143,0.208-0.209
				c-0.055-0.197-0.091-0.369-0.118-0.516c-0.027-0.146-0.047-0.289-0.06-0.435c-0.013-0.067-0.02-0.132-0.02-0.197
				c0-0.067,0-0.14,0-0.22c0-0.778,0.23-1.469,0.69-2.069c0.459-0.603,1.11-0.901,1.952-0.901c0.301,0,0.536,0.084,0.7,0.259
				c0.164,0.169,0.247,0.416,0.247,0.733c0,0.291-0.071,0.588-0.211,0.891c-0.141,0.303-0.37,0.64-0.685,1.01
				c0.104,0.225,0.203,0.469,0.296,0.731c0.092,0.265,0.158,0.523,0.199,0.773c0.013,0.094,0.021,0.183,0.028,0.269
				c0.006,0.085,0.012,0.174,0.012,0.266c0,0.555-0.213,1.044-0.634,1.466c-0.422,0.423-1.049,0.766-1.881,1.03
				c0.198,0.053,0.37,0.099,0.515,0.139c0.146,0.038,0.292,0.065,0.435,0.079c0.067,0,0.138,0.003,0.219,0.011
				c0.078,0.006,0.156,0.009,0.237,0.009c0.633,0,1.254-0.136,1.861-0.407c0.608-0.271,1.157-0.591,1.646-0.961V19.224z
				 M15.474,20.144c0.021-0.019,0.037-0.035,0.049-0.048c0.12-0.133,0.199-0.265,0.239-0.396c0.04-0.133,0.061-0.284,0.061-0.457
				c0-0.185-0.028-0.382-0.08-0.593c-0.055-0.213-0.152-0.518-0.298-0.913c-0.159,0.159-0.321,0.311-0.486,0.456
				c-0.165,0.145-0.333,0.289-0.505,0.435c-0.013,0.015-0.03,0.027-0.049,0.041c-0.019,0.013-0.042,0.026-0.07,0.039
				c-0.092,0.092-0.185,0.179-0.276,0.259c-0.094,0.079-0.188,0.158-0.279,0.237l1.626,0.991
				C15.432,20.182,15.454,20.165,15.474,20.144z M17.663,15.502c0.167-0.21,0.297-0.409,0.389-0.594
				c0.09-0.185,0.154-0.371,0.192-0.555c0-0.053,0.004-0.106,0.01-0.159c0.007-0.053,0.009-0.105,0.009-0.157
				c0-0.239-0.044-0.434-0.135-0.586c-0.091-0.152-0.214-0.228-0.371-0.228c-0.116,0-0.212,0.063-0.289,0.19
				c-0.078,0.125-0.116,0.287-0.116,0.485c0,0.013,0,0.029,0,0.049c0,0.019,0,0.043,0,0.068c0.013,0.212,0.042,0.437,0.087,0.674
				c0.044,0.239,0.119,0.518,0.222,0.834V15.502z"/>
			<path fill="#FFFFFF" d="M25.586,13.125l-2.063,5.512c-0.091,0.251-0.159,0.462-0.199,0.632c-0.039,0.172-0.06,0.315-0.06,0.436
				c0,0.185,0.066,0.336,0.2,0.454c0.132,0.119,0.304,0.179,0.517,0.179c0.199,0,0.44-0.047,0.726-0.139
				c0.285-0.093,0.573-0.225,0.864-0.396c0.08-0.04,0.157-0.082,0.228-0.129c0.073-0.046,0.149-0.096,0.229-0.148l-0.04-0.295
				c0-0.104,0.02-0.234,0.059-0.386s0.105-0.354,0.199-0.602l1.665-4.503l3.192-0.595l-2.082,5.473
				c-0.079,0.224-0.139,0.425-0.177,0.604c-0.042,0.176-0.061,0.332-0.061,0.462c0,0.199,0.062,0.357,0.189,0.476
				c0.124,0.119,0.286,0.179,0.485,0.179c0.303,0,0.684-0.104,1.138-0.308c0.458-0.206,0.969-0.506,1.538-0.903l0.159,0.219
				c-0.45,0.345-0.868,0.617-1.25,0.822c-0.383,0.205-0.76,0.36-1.131,0.467c-0.237,0.079-0.479,0.132-0.724,0.157
				c-0.243,0.026-0.498,0.039-0.763,0.039c-0.568,0-1.038-0.075-1.409-0.227c-0.37-0.153-0.668-0.393-0.893-0.724
				c-0.159,0.092-0.311,0.177-0.456,0.257c-0.145,0.08-0.298,0.146-0.457,0.197c-0.37,0.161-0.747,0.275-1.13,0.349
				c-0.384,0.072-0.789,0.108-1.21,0.108c-0.716,0-1.281-0.142-1.699-0.424c-0.416-0.284-0.624-0.668-0.624-1.155
				c0-0.118,0.013-0.247,0.04-0.385c0.027-0.141,0.059-0.281,0.099-0.426c0.012-0.039,0.023-0.075,0.029-0.108
				c0.007-0.032,0.016-0.07,0.03-0.108l1.666-4.485L25.586,13.125z"/>
			<path fill="#FFFFFF" d="M34.286,20.17l-0.04,0.159l0.04,0.079c0.026,0.014,0.055,0,0.089-0.04
				c0.033-0.039,0.069-0.091,0.109-0.159c0.171-0.394,0.372-0.853,0.604-1.374c0.232-0.521,0.485-1.058,0.765-1.612
				c0.541-1.041,1.195-1.998,1.963-2.869c0.767-0.871,1.646-1.305,2.636-1.305c0.464,0,0.829,0.116,1.101,0.347
				c0.271,0.23,0.406,0.543,0.406,0.938c0,0.119-0.013,0.238-0.039,0.356c-0.026,0.12-0.06,0.237-0.099,0.355l-1.557,3.738
				c-0.064,0.185-0.117,0.349-0.157,0.486c-0.04,0.139-0.059,0.26-0.059,0.365c0,0.211,0.072,0.378,0.217,0.495
				c0.146,0.119,0.345,0.178,0.596,0.178c0.369,0,0.721-0.079,1.051-0.237c0.331-0.157,0.654-0.337,0.971-0.536
				c0.094-0.051,0.186-0.107,0.278-0.168c0.093-0.058,0.186-0.116,0.277-0.168l0.179,0.217c-0.132,0.106-0.261,0.202-0.388,0.289
				c-0.126,0.086-0.253,0.167-0.385,0.248c-0.516,0.304-1.031,0.527-1.547,0.674c-0.516,0.145-1.043,0.218-1.586,0.218
				c-0.754,0-1.338-0.149-1.755-0.444c-0.416-0.299-0.623-0.71-0.623-1.238c0-0.104,0.006-0.214,0.021-0.326
				c0.012-0.111,0.038-0.228,0.077-0.345c0.013-0.067,0.033-0.137,0.059-0.209c0.026-0.073,0.052-0.142,0.079-0.207l1.753-4.292
				l0.06-0.181c0-0.012-0.008-0.022-0.021-0.028c-0.012-0.007-0.031-0.011-0.059-0.011c-0.012,0-0.025,0-0.038,0
				c-0.015,0-0.034,0.011-0.061,0.03c-0.026,0.02-0.065,0.056-0.119,0.109c-0.594,0.475-1.141,1.068-1.634,1.781
				c-0.497,0.709-0.956,1.443-1.379,2.194c-0.225,0.408-0.439,0.814-0.644,1.218c-0.206,0.401-0.401,0.788-0.586,1.156
				c-0.014,0.013-0.023,0.026-0.029,0.038c-0.007,0.014-0.01,0.027-0.01,0.041c-0.159,0.291-0.328,0.482-0.506,0.575
				c-0.179,0.091-0.433,0.139-0.763,0.139c-0.569,0-1.002-0.113-1.299-0.337c-0.297-0.225-0.447-0.555-0.447-0.989
				c0-0.145,0.021-0.306,0.061-0.484c0.04-0.178,0.1-0.38,0.178-0.604l1.725-4.667l3.153-0.574L34.286,20.17z"/>
			<path fill="#FFFFFF" d="M45.787,20.039l-0.062,0.238c0,0.026,0.005,0.042,0.011,0.049c0.007,0.008,0.017,0.017,0.03,0.03h0.021
				c0.038,0,0.125-0.112,0.257-0.338c0.132-0.223,0.271-0.474,0.415-0.751c0.015-0.027,0.027-0.052,0.04-0.079
				c0.014-0.027,0.028-0.053,0.041-0.08c0.131-0.277,0.258-0.534,0.376-0.771s0.191-0.39,0.218-0.457
				c0.119-0.25,0.247-0.523,0.388-0.82c0.138-0.298,0.286-0.591,0.445-0.88c0.409-0.78,0.907-1.497,1.496-2.149
				c0.587-0.656,1.332-0.982,2.23-0.982c0.567,0,1.022,0.123,1.365,0.367c0.346,0.245,0.518,0.565,0.518,0.962
				c0,0.82-0.498,1.549-1.498,2.183c-0.997,0.637-2.223,1.007-3.677,1.112l0.021,0.039c0.541,0.013,0.989,0.052,1.339,0.118
				c0.351,0.067,0.676,0.198,0.979,0.394c0.158,0.106,0.32,0.234,0.485,0.385c0.166,0.151,0.348,0.325,0.547,0.522
				c0.146,0.158,0.283,0.287,0.416,0.385c0.132,0.099,0.265,0.175,0.396,0.227c0.092,0.041,0.184,0.069,0.278,0.089
				c0.093,0.021,0.184,0.03,0.276,0.03c0.067,0,0.129-0.003,0.188-0.01c0.059-0.008,0.122-0.017,0.188-0.03
				c0.134-0.026,0.281-0.083,0.447-0.169c0.165-0.086,0.373-0.215,0.625-0.387l0.176,0.219c-0.555,0.463-1.125,0.804-1.713,1.021
				c-0.589,0.217-1.193,0.325-1.815,0.325c-0.805,0-1.499-0.227-2.08-0.683c-0.582-0.455-1.104-1.187-1.565-2.189
				c-0.133,0.223-0.239,0.419-0.317,0.584c-0.079,0.165-0.158,0.32-0.238,0.466l-0.021,0.02c-0.013,0.026-0.029,0.056-0.048,0.089
				c-0.021,0.033-0.036,0.07-0.05,0.109c-0.132,0.276-0.253,0.509-0.357,0.693c-0.105,0.185-0.212,0.337-0.316,0.457
				c-0.146,0.184-0.304,0.301-0.476,0.346c-0.173,0.047-0.392,0.069-0.654,0.069c-0.555,0-0.992-0.128-1.31-0.386
				c-0.316-0.258-0.476-0.608-0.476-1.059c0-0.156,0.016-0.339,0.051-0.544c0.033-0.203,0.088-0.411,0.168-0.622l3.529-9.991
				l3.132-0.615L45.787,20.039z M47.786,17.57c0.502-0.212,0.969-0.483,1.398-0.813c0.428-0.333,0.783-0.683,1.06-1.051
				c0.173-0.225,0.308-0.447,0.407-0.665s0.15-0.426,0.15-0.625c0-0.145-0.042-0.267-0.12-0.366c-0.078-0.1-0.187-0.15-0.317-0.15
				c-0.225,0-0.513,0.219-0.862,0.655c-0.35,0.438-0.71,1.012-1.081,1.725c-0.105,0.198-0.211,0.406-0.316,0.623
				c-0.105,0.219-0.212,0.448-0.318,0.685V17.57z"/>
			<path fill="#FFFFFF" d="M57.463,18.967c-0.039,0.145-0.073,0.28-0.1,0.405c-0.027,0.126-0.039,0.248-0.039,0.368
				c0,0.213,0.065,0.377,0.198,0.496c0.132,0.118,0.324,0.177,0.574,0.177c0.357,0,0.698-0.08,1.021-0.246
				c0.324-0.166,0.63-0.354,0.922-0.565c0.105-0.066,0.207-0.132,0.307-0.199c0.1-0.065,0.201-0.132,0.308-0.197l0.178,0.179
				c-0.594,0.527-1.197,0.908-1.813,1.139c-0.615,0.231-1.279,0.349-1.992,0.349c-0.794,0-1.414-0.123-1.863-0.367
				c-0.45-0.245-0.675-0.593-0.675-1.043c0-0.104,0.014-0.221,0.04-0.348c0.027-0.125,0.054-0.253,0.081-0.386
				c0-0.026,0.002-0.053,0.009-0.078c0.007-0.027,0.017-0.053,0.027-0.082l1.785-4.916l3.172-0.655L57.463,18.967z"/>
			<path fill="#FFFFFF" d="M67.979,19.224l0.177,0.257c-0.051,0.053-0.104,0.099-0.157,0.138c-0.054,0.041-0.105,0.081-0.158,0.119
				c-0.568,0.396-1.135,0.697-1.695,0.902c-0.562,0.205-1.079,0.308-1.556,0.308c-0.052,0-0.104,0-0.158,0
				c-0.053,0-0.104-0.007-0.158-0.02c-0.21-0.013-0.436-0.047-0.673-0.101c-0.237-0.052-0.534-0.145-0.89-0.277
				c-0.106,0.027-0.215,0.058-0.328,0.09c-0.11,0.033-0.221,0.063-0.324,0.09c-0.162,0.039-0.322,0.081-0.489,0.131
				c-0.164,0.044-0.332,0.073-0.505,0.087c-0.224,0-0.393-0.086-0.506-0.257c-0.111-0.171-0.187-0.356-0.227-0.554
				c-0.025-0.094-0.043-0.18-0.05-0.259s-0.01-0.152-0.01-0.218c0-0.052,0.003-0.1,0.01-0.139s0.018-0.078,0.03-0.119
				c0.053-0.079,0.128-0.169,0.228-0.267c0.099-0.102,0.255-0.229,0.466-0.387c0.197-0.158,0.39-0.326,0.575-0.505
				s0.37-0.354,0.556-0.525c0.065-0.079,0.136-0.154,0.207-0.227c0.072-0.072,0.143-0.143,0.209-0.209
				c-0.054-0.197-0.093-0.369-0.12-0.516c-0.027-0.146-0.046-0.289-0.059-0.435c-0.014-0.067-0.02-0.132-0.02-0.197
				c0-0.067,0-0.14,0-0.22c0-0.778,0.229-1.469,0.689-2.069c0.459-0.603,1.11-0.901,1.951-0.901c0.303,0,0.536,0.084,0.7,0.259
				c0.164,0.169,0.248,0.416,0.248,0.733c0,0.291-0.072,0.588-0.212,0.891c-0.142,0.303-0.369,0.64-0.687,1.01
				c0.105,0.225,0.204,0.469,0.297,0.731c0.094,0.265,0.159,0.523,0.199,0.773c0.013,0.094,0.024,0.183,0.029,0.269
				c0.007,0.085,0.009,0.174,0.009,0.266c0,0.555-0.21,1.044-0.632,1.466c-0.423,0.423-1.049,0.766-1.881,1.03
				c0.196,0.053,0.371,0.099,0.515,0.139c0.145,0.038,0.291,0.065,0.436,0.079c0.066,0,0.138,0.003,0.217,0.011
				c0.08,0.006,0.16,0.009,0.238,0.009c0.634,0,1.253-0.136,1.861-0.407c0.609-0.271,1.157-0.591,1.646-0.961V19.224z
				 M62.696,20.144c0.018-0.019,0.035-0.035,0.05-0.048c0.118-0.133,0.198-0.265,0.236-0.396c0.041-0.133,0.06-0.284,0.06-0.457
				c0-0.185-0.026-0.382-0.077-0.593c-0.055-0.213-0.153-0.518-0.299-0.913c-0.158,0.159-0.319,0.311-0.485,0.456
				c-0.166,0.145-0.334,0.289-0.505,0.435c-0.014,0.015-0.029,0.027-0.05,0.041c-0.021,0.013-0.044,0.026-0.07,0.039
				c-0.092,0.092-0.186,0.179-0.277,0.259c-0.093,0.079-0.185,0.158-0.278,0.237l1.628,0.991
				C62.653,20.182,62.677,20.165,62.696,20.144z M64.885,15.502c0.169-0.21,0.298-0.409,0.389-0.594
				c0.089-0.185,0.154-0.371,0.194-0.555c0-0.053,0.003-0.106,0.009-0.159s0.01-0.105,0.01-0.157c0-0.239-0.046-0.434-0.137-0.586
				c-0.09-0.152-0.214-0.228-0.367-0.228c-0.118,0-0.215,0.063-0.293,0.19c-0.076,0.125-0.116,0.287-0.116,0.485
				c0,0.013,0,0.029,0,0.049c0,0.019,0,0.043,0,0.068c0.014,0.212,0.043,0.437,0.089,0.674c0.044,0.239,0.119,0.518,0.223,0.834
				V15.502z"/>
			<path fill="#FFFFFF" d="M75.334,19.224l0.179,0.257c-0.054,0.053-0.107,0.099-0.159,0.138c-0.054,0.041-0.105,0.081-0.159,0.119
				c-0.567,0.396-1.133,0.697-1.694,0.902c-0.561,0.205-1.081,0.308-1.555,0.308c-0.054,0-0.105,0-0.159,0
				c-0.053,0-0.105-0.007-0.158-0.02c-0.21-0.013-0.436-0.047-0.673-0.101c-0.238-0.052-0.534-0.145-0.892-0.277
				c-0.103,0.027-0.215,0.058-0.326,0.09c-0.112,0.033-0.221,0.063-0.327,0.09c-0.157,0.039-0.321,0.081-0.485,0.131
				c-0.165,0.044-0.334,0.073-0.505,0.087c-0.225,0-0.394-0.086-0.506-0.257c-0.111-0.171-0.188-0.356-0.229-0.554
				c-0.025-0.094-0.041-0.18-0.048-0.259s-0.013-0.152-0.013-0.218c0-0.052,0.006-0.1,0.013-0.139s0.015-0.078,0.029-0.119
				c0.054-0.079,0.129-0.169,0.228-0.267c0.099-0.102,0.256-0.229,0.466-0.387c0.197-0.158,0.389-0.326,0.574-0.505
				s0.371-0.354,0.557-0.525c0.065-0.079,0.134-0.154,0.207-0.227c0.071-0.072,0.142-0.143,0.208-0.209
				c-0.055-0.197-0.092-0.369-0.118-0.516c-0.027-0.146-0.048-0.289-0.06-0.435c-0.014-0.067-0.021-0.132-0.021-0.197
				c0-0.067,0-0.14,0-0.22c0-0.778,0.229-1.469,0.689-2.069c0.461-0.603,1.111-0.901,1.952-0.901c0.302,0,0.536,0.084,0.701,0.259
				c0.162,0.169,0.246,0.416,0.246,0.733c0,0.291-0.069,0.588-0.212,0.891c-0.14,0.303-0.368,0.64-0.685,1.01
				c0.104,0.225,0.203,0.469,0.297,0.731c0.092,0.265,0.158,0.523,0.198,0.773c0.014,0.094,0.021,0.183,0.028,0.269
				c0.007,0.085,0.012,0.174,0.012,0.266c0,0.555-0.212,1.044-0.635,1.466c-0.423,0.423-1.049,0.766-1.88,1.03
				c0.198,0.053,0.37,0.099,0.514,0.139c0.146,0.038,0.291,0.065,0.437,0.079c0.066,0,0.138,0.003,0.218,0.011
				c0.079,0.006,0.156,0.009,0.237,0.009c0.633,0,1.255-0.136,1.862-0.407s1.155-0.591,1.646-0.961V19.224z M70.05,20.144
				c0.021-0.019,0.036-0.035,0.049-0.048c0.12-0.133,0.199-0.265,0.238-0.396c0.04-0.133,0.061-0.284,0.061-0.457
				c0-0.185-0.027-0.382-0.079-0.593c-0.054-0.213-0.151-0.518-0.298-0.913c-0.158,0.159-0.321,0.311-0.485,0.456
				c-0.166,0.145-0.334,0.289-0.505,0.435c-0.015,0.015-0.031,0.027-0.051,0.041c-0.021,0.013-0.042,0.026-0.069,0.039
				c-0.094,0.092-0.185,0.179-0.276,0.259c-0.094,0.079-0.187,0.158-0.278,0.237l1.627,0.991
				C70.007,20.182,70.03,20.165,70.05,20.144z M72.239,15.502c0.168-0.21,0.297-0.409,0.389-0.594
				c0.091-0.185,0.154-0.371,0.191-0.555c0-0.053,0.005-0.106,0.012-0.159c0.006-0.053,0.009-0.105,0.009-0.157
				c0-0.239-0.045-0.434-0.135-0.586c-0.091-0.152-0.214-0.228-0.37-0.228c-0.116,0-0.213,0.063-0.29,0.19
				c-0.077,0.125-0.115,0.287-0.115,0.485c0,0.013,0,0.029,0,0.049c0,0.019,0,0.043,0,0.068c0.012,0.212,0.041,0.437,0.087,0.674
				c0.044,0.239,0.119,0.518,0.223,0.834V15.502z"/>
			<path fill="#FFFFFF" d="M83.313,19.203l0.16,0.277c-0.251,0.172-0.497,0.323-0.734,0.456c-0.238,0.132-0.477,0.251-0.714,0.355
				c-0.568,0.239-1.146,0.408-1.735,0.507c-0.586,0.099-1.246,0.148-1.972,0.148c-0.145,0-0.301-0.004-0.466-0.01
				c-0.165-0.007-0.327-0.017-0.485-0.029c-0.542-0.067-1.036-0.225-1.488-0.476c-0.449-0.251-0.675-0.698-0.675-1.347
				c0-0.303,0.048-0.659,0.14-1.068c0.094-0.408,0.232-0.872,0.416-1.386c0.396-1.069,0.987-1.934,1.773-2.594
				c0.785-0.659,1.772-0.989,2.961-0.989c0.607,0,1.069,0.116,1.388,0.347c0.314,0.23,0.475,0.577,0.475,1.039
				c0,0.053-0.006,0.103-0.011,0.149c-0.007,0.045-0.01,0.094-0.01,0.148c-0.093,0.686-0.505,1.35-1.237,1.989
				c-0.732,0.641-1.693,1.184-2.88,1.633c-0.026,0.159-0.047,0.287-0.06,0.389c-0.013,0.097-0.021,0.192-0.021,0.285
				c0,0.014,0,0.028,0,0.048c0,0.021,0,0.037,0,0.052c0,0.423,0.138,0.754,0.407,0.998c0.271,0.245,0.643,0.367,1.12,0.367
				c0.541,0,1.124-0.108,1.745-0.327c0.621-0.218,1.255-0.533,1.902-0.941V19.203z M78.312,17.945
				c0.158-0.119,0.347-0.288,0.565-0.505c0.218-0.218,0.445-0.466,0.684-0.744c0.146-0.158,0.284-0.327,0.416-0.506
				c0.131-0.179,0.263-0.353,0.396-0.525c0.25-0.356,0.457-0.706,0.625-1.05c0.164-0.344,0.247-0.636,0.247-0.873
				c0-0.132-0.043-0.24-0.129-0.327c-0.087-0.086-0.189-0.129-0.308-0.129c-0.04,0-0.075,0.004-0.107,0.011
				c-0.035,0.007-0.064,0.017-0.091,0.03c-0.291,0.12-0.571,0.416-0.842,0.892c-0.271,0.476-0.52,0.99-0.745,1.545
				c-0.169,0.438-0.319,0.856-0.444,1.26c-0.127,0.404-0.216,0.716-0.268,0.941V17.945z"/>
			<path fill="#FFFFFF" d="M94.745,19.224l0.16,0.239c-0.609,0.501-1.234,0.862-1.873,1.079c-0.644,0.22-1.379,0.329-2.211,0.329
				c-0.608,0-1.097-0.068-1.468-0.2c-0.37-0.132-0.668-0.345-0.893-0.633c-0.449,0.288-0.938,0.504-1.466,0.644
				c-0.53,0.138-1.079,0.208-1.646,0.208c-0.729,0-1.273-0.162-1.637-0.487c-0.363-0.324-0.544-0.813-0.544-1.462
				c0-0.277,0.025-0.565,0.079-0.863c0.051-0.299,0.131-0.6,0.238-0.904c0.384-1.048,1.023-2.005,1.921-2.874
				c0.899-0.867,1.918-1.302,3.054-1.302c0.305,0,0.582,0.03,0.833,0.089c0.251,0.06,0.49,0.162,0.714,0.308
				c0.04,0.026,0.082,0.055,0.129,0.087c0.046,0.034,0.089,0.065,0.129,0.09l1.922-5.421l3.152-0.574l-4.023,11.431
				c-0.053,0.146-0.09,0.264-0.11,0.357c-0.02,0.093-0.027,0.179-0.027,0.256c0,0.239,0.082,0.421,0.244,0.547
				c0.168,0.125,0.395,0.188,0.687,0.188c0.356,0,0.759-0.093,1.208-0.276c0.451-0.186,0.925-0.464,1.428-0.834V19.224z
				 M89.641,13.522c-0.191-0.112-0.404-0.168-0.644-0.168c-0.159,0-0.308,0.033-0.446,0.1c-0.14,0.065-0.274,0.172-0.406,0.318
				c-0.198,0.213-0.404,0.531-0.614,0.955c-0.214,0.424-0.451,0.986-0.714,1.69c-0.318,0.835-0.529,1.445-0.636,1.829
				c-0.104,0.385-0.165,0.723-0.179,1.015c0,0.014,0,0.026,0,0.04s0,0.027,0,0.04c0,0.291,0.088,0.524,0.259,0.694
				c0.173,0.174,0.403,0.261,0.695,0.261c0.091,0,0.184-0.007,0.276-0.021c0.093-0.013,0.185-0.038,0.277-0.078
				c0.145-0.054,0.287-0.123,0.427-0.21c0.14-0.086,0.281-0.195,0.426-0.327l-0.04-0.358c0-0.014,0-0.026,0-0.04
				c0-0.064,0.015-0.143,0.04-0.229c0.025-0.085,0.066-0.207,0.118-0.366l1.646-4.634C89.993,13.806,89.832,13.636,89.641,13.522z"
				/>
		</g>
		<polygon fill="#FFFFFF" points="60.643,9.877 57.502,10.519 56.804,12.533 59.957,11.879 		"/>
	</g>
	<path fill="#E2027B" d="M20.501,22.828c-0.06-0.416-0.676-0.531-1.376-0.531c-0.616,0-1.137,0.21-1.137,0.54
		c0,0.159,0.144,0.323,0.676,0.386l1.61,0.189c0.7,0.082,1.023,0.359,1.023,0.725c0,0.592-0.772,0.95-2.053,0.95
		c-1.227,0-1.939-0.313-2.017-0.967h0.658c0.018,0.398,0.575,0.629,1.394,0.629c0.898,0,1.395-0.242,1.395-0.567
		c0-0.823-3.31-0.078-3.31-1.321c0-0.572,0.707-0.9,1.885-0.9c0.898,0,1.85,0.185,1.909,0.868H20.501z"/>
	<path fill="#E2027B" d="M28.318,21.96c1.814,0,2.431,0.855,2.431,1.563c0,0.707-0.616,1.563-2.431,1.563
		c-1.813,0-2.43-0.856-2.43-1.563C25.889,22.815,26.505,21.96,28.318,21.96z M28.318,24.749c1.049,0,1.772-0.494,1.772-1.226
		s-0.724-1.227-1.772-1.227c-1.047,0-1.771,0.495-1.771,1.227S27.271,24.749,28.318,24.749z"/>
	<path fill="#E2027B" d="M36.21,22.038h0.622v2.633h2.49v0.337H36.21V22.038z"/>
	<path fill="#E2027B" d="M47.229,22.038h0.623v1.773c0,0.848-0.838,1.275-2.011,1.275s-2.011-0.428-2.011-1.275v-1.773h0.622v1.793
		c0,0.568,0.497,0.918,1.389,0.918s1.388-0.35,1.388-0.918V22.038z"/>
	<path fill="#E2027B" d="M54.519,22.399h-1.831v-0.361h4.285v0.361h-1.832v2.608h-0.622V22.399z"/>
	<path fill="#E2027B" d="M62.337,22.038h0.623v2.97h-0.623V22.038z"/>
	<path fill="#E2027B" d="M70.736,21.96c1.813,0,2.43,0.855,2.43,1.563c0,0.707-0.616,1.563-2.43,1.563
		c-1.813,0-2.431-0.856-2.431-1.563C68.306,22.815,68.924,21.96,70.736,21.96z M70.736,24.749c1.047,0,1.771-0.494,1.771-1.226
		s-0.724-1.227-1.771-1.227c-1.048,0-1.771,0.495-1.771,1.227S69.688,24.749,70.736,24.749z"/>
	<path fill="#E2027B" d="M81.645,22.038h0.622v2.97h-0.85l-2.646-2.533H78.76v2.533h-0.623v-2.97h0.852l2.645,2.534h0.012V22.038z"
		/>
	<path fill="#E2027B" d="M90.446,22.828c-0.06-0.416-0.676-0.531-1.377-0.531c-0.616,0-1.138,0.21-1.138,0.54
		c0,0.159,0.145,0.323,0.678,0.386l1.608,0.189c0.702,0.082,1.023,0.359,1.023,0.725c0,0.592-0.771,0.95-2.052,0.95
		c-1.227,0-1.939-0.313-2.018-0.967h0.659c0.019,0.398,0.575,0.629,1.395,0.629c0.896,0,1.394-0.242,1.394-0.567
		c0-0.823-3.31-0.078-3.31-1.321c0-0.572,0.706-0.9,1.886-0.9c0.897,0,1.85,0.185,1.908,0.868H90.446z"/>
</g>
</svg>
