<?xml version="1.0" encoding="utf-8"?>
<!-- Generator: Adobe Illustrator 15.0.0, SVG Export Plug-In . SVG Version: 6.00 Build 0)  -->
<!DOCTYPE svg PUBLIC "-//W3C//DTD SVG 1.1//EN" "http://www.w3.org/Graphics/SVG/1.1/DTD/svg11.dtd">
<svg version="1.1" id="Calque_1" xmlns="http://www.w3.org/2000/svg" xmlns:xlink="http://www.w3.org/1999/xlink" x="0px" y="0px"
	 width="169.141px" height="28.472px" viewBox="0 2.7 169.141 28.472" enable-background="new 0 2.7 169.141 28.472"
	 xml:space="preserve">
<path fill="#E2027B" d="M50.095,4.196c-0.488,0.244-16.836,8.214-19.891,7.231c-2.973-0.955,0.501-8.105,0.787-8.674
	c-0.294,0.566-4.011,7.648-8.117,8.641c-4.299,1.039-10.12-4.725-10.235-4.845c0.113,0.122,5.849,5.91,3,8.299
	c-2.898,2.428-15.896,1.745-15.896,1.745s12.92,0.298,13.136,3.178c0.187,2.503-12.403,8.825-12.403,8.825s12.558-6.564,15.718-5.68
	c1.438,0.403,4.614,0.435,4.357,0.437c-5.054,0.039-8.362-2.665-6.542-5.989c1.816-3.324,7.388-6.054,12.446-6.082
	c4.394-0.026,5.742,0.75,6.222,3.101c0,0,0.07,0.174,0.068,0.049C32.726,12.171,49.605,4.442,50.095,4.196z M30.558,2.756
	C30.575,2.719,30.586,2.7,30.586,2.7S30.575,2.719,30.558,2.756z"/>
<g>
	<g>
		<path fill="#FFFFFF" d="M32.899,27.324l0.325,0.47c-0.097,0.097-0.195,0.181-0.289,0.252c-0.097,0.075-0.193,0.147-0.289,0.217
			c-1.038,0.725-2.07,1.274-3.094,1.648c-1.027,0.374-1.974,0.563-2.843,0.563c-0.097,0-0.193,0-0.29,0
			c-0.097,0-0.192-0.014-0.289-0.037c-0.386-0.021-0.795-0.085-1.229-0.183c-0.438-0.094-0.977-0.266-1.628-0.505
			c-0.192,0.048-0.39,0.103-0.596,0.162c-0.207,0.062-0.406,0.117-0.599,0.164c-0.286,0.071-0.585,0.148-0.885,0.238
			c-0.302,0.082-0.609,0.135-0.923,0.16c-0.412,0-0.718-0.158-0.925-0.469c-0.203-0.313-0.342-0.652-0.415-1.013
			c-0.047-0.171-0.079-0.327-0.089-0.473c-0.013-0.144-0.022-0.278-0.022-0.398c0-0.094,0.009-0.182,0.022-0.252
			c0.01-0.071,0.03-0.144,0.054-0.219c0.097-0.143,0.236-0.307,0.415-0.486c0.183-0.187,0.465-0.418,0.853-0.706
			c0.361-0.289,0.71-0.595,1.049-0.923c0.337-0.325,0.676-0.646,1.013-0.96c0.122-0.144,0.247-0.28,0.382-0.413
			c0.13-0.133,0.258-0.262,0.378-0.382c-0.1-0.361-0.167-0.675-0.215-0.94c-0.051-0.267-0.087-0.53-0.11-0.795
			c-0.022-0.125-0.036-0.241-0.036-0.36c0-0.125,0-0.254,0-0.4c0-1.422,0.422-2.685,1.26-3.781c0.841-1.102,2.029-1.647,3.567-1.647
			c0.551,0,0.979,0.155,1.279,0.473c0.3,0.311,0.449,0.761,0.449,1.339c0,0.531-0.128,1.074-0.384,1.63
			c-0.257,0.552-0.675,1.167-1.25,1.843c0.19,0.409,0.37,0.856,0.54,1.337c0.168,0.483,0.289,0.956,0.364,1.412
			c0.022,0.172,0.04,0.334,0.05,0.491c0.013,0.155,0.021,0.317,0.021,0.483c0,1.015-0.388,1.908-1.157,2.68
			c-0.772,0.772-1.917,1.397-3.436,1.882c0.361,0.098,0.676,0.18,0.939,0.254c0.266,0.07,0.532,0.118,0.795,0.144
			c0.122,0,0.252,0.007,0.4,0.02c0.143,0.01,0.285,0.017,0.431,0.017c1.156,0,2.293-0.249,3.401-0.744
			c1.113-0.496,2.114-1.078,3.007-1.756V27.324z M23.245,29.004c0.038-0.033,0.068-0.063,0.092-0.085
			c0.217-0.244,0.363-0.485,0.435-0.726c0.071-0.244,0.11-0.519,0.11-0.835c0-0.337-0.05-0.697-0.146-1.082
			c-0.1-0.388-0.276-0.946-0.542-1.67c-0.292,0.293-0.586,0.567-0.888,0.835c-0.302,0.265-0.61,0.527-0.925,0.793
			c-0.023,0.027-0.055,0.051-0.088,0.075c-0.035,0.024-0.08,0.049-0.128,0.071c-0.168,0.169-0.338,0.326-0.503,0.473
			c-0.172,0.145-0.342,0.289-0.511,0.435l2.973,1.811C23.169,29.076,23.21,29.046,23.245,29.004z M27.245,20.525
			c0.306-0.385,0.544-0.747,0.713-1.085c0.164-0.337,0.281-0.675,0.349-1.013c0-0.097,0.007-0.193,0.019-0.292
			c0.014-0.095,0.017-0.192,0.017-0.286c0-0.438-0.078-0.793-0.246-1.071c-0.165-0.276-0.39-0.417-0.677-0.417
			c-0.211,0-0.387,0.115-0.528,0.349c-0.14,0.228-0.211,0.523-0.211,0.885c0,0.025,0,0.053,0,0.092c0,0.033,0,0.077,0,0.125
			c0.022,0.387,0.075,0.796,0.16,1.23c0.081,0.435,0.215,0.946,0.405,1.523V20.525z"/>
		<path fill="#FFFFFF" d="M41.718,16.186L37.95,26.254c-0.166,0.459-0.288,0.844-0.361,1.155c-0.071,0.313-0.109,0.576-0.109,0.795
			c0,0.338,0.122,0.615,0.364,0.83c0.243,0.217,0.556,0.326,0.945,0.326c0.364,0,0.805-0.085,1.325-0.255
			c0.52-0.168,1.047-0.408,1.579-0.722c0.146-0.071,0.285-0.148,0.417-0.234c0.132-0.085,0.271-0.175,0.417-0.271l-0.071-0.54
			c0-0.188,0.036-0.427,0.107-0.702c0.072-0.277,0.193-0.647,0.364-1.101l3.042-8.226l5.83-1.088l-3.802,9.996
			c-0.146,0.409-0.255,0.777-0.324,1.104c-0.077,0.321-0.11,0.606-0.11,0.844c0,0.363,0.111,0.654,0.346,0.869
			c0.227,0.217,0.523,0.326,0.887,0.326c0.555,0,1.25-0.189,2.079-0.562c0.835-0.378,1.77-0.926,2.81-1.649l0.291,0.398
			c-0.823,0.628-1.586,1.127-2.283,1.504c-0.701,0.373-1.389,0.656-2.067,0.852c-0.434,0.145-0.874,0.24-1.321,0.286
			c-0.444,0.049-0.909,0.072-1.394,0.072c-1.038,0-1.896-0.139-2.572-0.415c-0.676-0.281-1.222-0.716-1.632-1.321
			c-0.291,0.167-0.568,0.323-0.833,0.471c-0.264,0.146-0.547,0.264-0.836,0.359c-0.674,0.293-1.363,0.503-2.063,0.637
			c-0.703,0.131-1.441,0.197-2.211,0.197c-1.307,0-2.34-0.259-3.104-0.773c-0.758-0.52-1.138-1.22-1.138-2.11
			c0-0.217,0.022-0.452,0.073-0.703c0.048-0.258,0.108-0.514,0.18-0.778c0.023-0.071,0.042-0.138,0.054-0.199
			c0.013-0.059,0.03-0.127,0.054-0.196l3.042-8.193L41.718,16.186z"/>
		<path fill="#FFFFFF" d="M57.611,29.054l-0.073,0.291l0.073,0.144c0.049,0.025,0.1,0,0.162-0.072c0.062-0.071,0.127-0.166,0.2-0.29
			c0.312-0.72,0.681-1.559,1.103-2.511c0.424-0.952,0.887-1.933,1.396-2.944c0.988-1.902,2.185-3.651,3.586-5.243
			c1.399-1.59,3.007-2.384,4.814-2.384c0.849,0,1.515,0.213,2.012,0.635c0.492,0.42,0.741,0.991,0.741,1.713
			c0,0.22-0.023,0.435-0.072,0.652c-0.048,0.219-0.108,0.433-0.18,0.648l-2.843,6.83c-0.118,0.337-0.216,0.636-0.288,0.888
			c-0.072,0.254-0.106,0.475-0.106,0.666c0,0.386,0.131,0.692,0.396,0.905c0.267,0.219,0.63,0.325,1.089,0.325
			c0.673,0,1.315-0.146,1.92-0.433c0.604-0.288,1.194-0.616,1.772-0.979c0.171-0.094,0.338-0.196,0.508-0.307
			c0.17-0.106,0.339-0.214,0.507-0.309l0.326,0.396c-0.24,0.195-0.477,0.37-0.708,0.528c-0.229,0.156-0.462,0.305-0.703,0.453
			c-0.942,0.555-1.882,0.963-2.825,1.23c-0.941,0.265-1.905,0.397-2.896,0.397c-1.377,0-2.445-0.273-3.206-0.812
			c-0.76-0.544-1.139-1.298-1.139-2.262c0-0.19,0.011-0.391,0.037-0.596c0.021-0.202,0.07-0.415,0.142-0.63
			c0.024-0.123,0.061-0.25,0.106-0.38c0.049-0.136,0.095-0.262,0.145-0.38l3.202-7.84l0.109-0.33c0-0.022-0.014-0.04-0.039-0.053
			c-0.021-0.012-0.058-0.02-0.107-0.02c-0.021,0-0.046,0-0.069,0c-0.027,0-0.062,0.02-0.11,0.056
			c-0.048,0.035-0.119,0.102-0.218,0.199c-1.084,0.868-2.084,1.951-2.984,3.253c-0.908,1.297-1.747,2.637-2.518,4.009
			c-0.412,0.746-0.804,1.487-1.177,2.225c-0.377,0.732-0.732,1.439-1.07,2.111c-0.025,0.022-0.043,0.049-0.055,0.07
			c-0.012,0.025-0.018,0.05-0.018,0.074c-0.29,0.532-0.599,0.883-0.924,1.052c-0.326,0.166-0.789,0.252-1.393,0.252
			c-1.04,0-1.831-0.207-2.373-0.614c-0.543-0.411-0.817-1.014-0.817-1.808c0-0.265,0.039-0.558,0.11-0.886
			c0.073-0.323,0.184-0.692,0.325-1.103l3.151-8.527l5.76-1.048L57.611,29.054z"/>
		<path fill="#FFFFFF" d="M78.62,28.814l-0.112,0.436c0,0.048,0.009,0.077,0.021,0.089c0.011,0.014,0.029,0.03,0.056,0.055h0.035
			c0.069,0,0.228-0.204,0.47-0.616c0.241-0.406,0.495-0.866,0.758-1.373c0.026-0.05,0.05-0.094,0.073-0.144
			c0.025-0.05,0.052-0.097,0.075-0.147c0.238-0.506,0.472-0.977,0.688-1.407c0.214-0.435,0.348-0.713,0.396-0.836
			c0.218-0.457,0.451-0.954,0.708-1.497c0.251-0.545,0.521-1.08,0.813-1.607c0.749-1.426,1.657-2.736,2.732-3.927
			c1.072-1.197,2.434-1.795,4.076-1.795c1.036,0,1.866,0.225,2.494,0.671c0.63,0.447,0.943,1.032,0.943,1.758
			c0,1.498-0.907,2.83-2.736,3.987c-1.821,1.164-4.061,1.839-6.716,2.032l0.037,0.072c0.989,0.023,1.807,0.094,2.447,0.214
			c0.639,0.125,1.233,0.362,1.787,0.72c0.29,0.193,0.584,0.429,0.886,0.703c0.306,0.277,0.637,0.595,1,0.954
			c0.265,0.288,0.518,0.524,0.761,0.703c0.24,0.18,0.484,0.317,0.722,0.414c0.169,0.075,0.338,0.125,0.513,0.161
			c0.168,0.039,0.335,0.056,0.503,0.056c0.123,0,0.238-0.005,0.344-0.017c0.107-0.016,0.225-0.03,0.343-0.057
			c0.243-0.049,0.515-0.151,0.816-0.309c0.302-0.158,0.683-0.393,1.143-0.706l0.321,0.399c-1.014,0.846-2.053,1.469-3.13,1.868
			c-1.075,0.395-2.18,0.593-3.315,0.593c-1.47,0-2.739-0.415-3.8-1.247c-1.063-0.832-2.016-2.167-2.859-4.001
			c-0.242,0.406-0.437,0.767-0.58,1.068c-0.145,0.301-0.288,0.583-0.436,0.851l-0.037,0.034c-0.023,0.05-0.054,0.104-0.087,0.164
			c-0.038,0.061-0.067,0.127-0.09,0.199c-0.242,0.506-0.464,0.93-0.654,1.266c-0.193,0.339-0.388,0.616-0.579,0.838
			c-0.266,0.332-0.554,0.548-0.866,0.63c-0.318,0.087-0.717,0.126-1.196,0.126c-1.014,0-1.813-0.234-2.394-0.704
			c-0.577-0.471-0.868-1.112-0.868-1.934c0-0.285,0.028-0.619,0.093-0.993c0.06-0.371,0.16-0.752,0.307-1.139l6.447-18.249
			l5.721-1.123L78.62,28.814z M82.272,24.306c0.918-0.388,1.77-0.884,2.554-1.486c0.782-0.609,1.431-1.248,1.936-1.921
			c0.318-0.408,0.563-0.816,0.744-1.214c0.184-0.398,0.275-0.778,0.275-1.144c0-0.263-0.076-0.486-0.22-0.667
			c-0.142-0.183-0.341-0.273-0.579-0.273c-0.411,0-0.937,0.401-1.576,1.195c-0.639,0.8-1.297,1.851-1.975,3.152
			c-0.193,0.361-0.386,0.741-0.576,1.139c-0.193,0.399-0.387,0.818-0.583,1.249V24.306z"/>
		<path fill="#FFFFFF" d="M99.949,26.854c-0.072,0.265-0.135,0.513-0.183,0.74c-0.049,0.23-0.07,0.454-0.07,0.674
			c0,0.389,0.118,0.688,0.362,0.906c0.24,0.217,0.592,0.322,1.05,0.322c0.65,0,1.273-0.146,1.866-0.449
			c0.592-0.303,1.148-0.647,1.682-1.033c0.194-0.12,0.379-0.238,0.561-0.364c0.182-0.118,0.368-0.24,0.563-0.359l0.324,0.326
			c-1.085,0.963-2.186,1.66-3.313,2.08c-1.124,0.422-2.339,0.638-3.639,0.638c-1.449,0-2.585-0.226-3.403-0.673
			c-0.821-0.446-1.234-1.082-1.234-1.903c0-0.191,0.024-0.404,0.073-0.637c0.049-0.227,0.098-0.461,0.149-0.703
			c0-0.049,0.004-0.096,0.016-0.143c0.013-0.051,0.03-0.098,0.049-0.15l3.261-8.979l5.796-1.196L99.949,26.854z"/>
		<path fill="#FFFFFF" d="M119.161,27.324l0.322,0.47c-0.093,0.097-0.191,0.181-0.288,0.252c-0.098,0.075-0.191,0.147-0.288,0.217
			c-1.038,0.725-2.072,1.274-3.096,1.648c-1.027,0.374-1.974,0.563-2.842,0.563c-0.098,0-0.188,0-0.29,0
			c-0.097,0-0.191-0.014-0.289-0.037c-0.383-0.021-0.794-0.085-1.23-0.183c-0.435-0.094-0.975-0.266-1.625-0.505
			c-0.193,0.048-0.392,0.103-0.599,0.162c-0.202,0.062-0.403,0.117-0.591,0.164c-0.297,0.071-0.59,0.148-0.895,0.238
			c-0.301,0.082-0.605,0.135-0.923,0.16c-0.408,0-0.718-0.158-0.925-0.469c-0.203-0.313-0.342-0.652-0.413-1.013
			c-0.045-0.171-0.077-0.327-0.091-0.473c-0.011-0.144-0.018-0.278-0.018-0.398c0-0.094,0.007-0.182,0.018-0.252
			c0.014-0.071,0.031-0.144,0.055-0.219c0.096-0.143,0.233-0.307,0.417-0.486c0.18-0.187,0.464-0.418,0.851-0.706
			c0.361-0.289,0.711-0.595,1.052-0.923c0.338-0.325,0.675-0.646,1.014-0.96c0.118-0.144,0.247-0.28,0.378-0.413
			c0.133-0.133,0.26-0.262,0.382-0.382c-0.098-0.361-0.17-0.675-0.218-0.94c-0.051-0.267-0.085-0.53-0.108-0.795
			c-0.025-0.125-0.036-0.241-0.036-0.36c0-0.125,0-0.254,0-0.4c0-1.422,0.418-2.685,1.26-3.781c0.837-1.102,2.027-1.647,3.563-1.647
			c0.553,0,0.979,0.155,1.279,0.473c0.301,0.311,0.452,0.761,0.452,1.339c0,0.531-0.129,1.074-0.386,1.63
			c-0.258,0.552-0.673,1.167-1.255,1.843c0.193,0.409,0.374,0.856,0.542,1.337c0.173,0.483,0.291,0.956,0.363,1.412
			c0.024,0.172,0.047,0.334,0.056,0.491c0.013,0.155,0.016,0.317,0.016,0.483c0,1.015-0.384,1.908-1.153,2.68
			c-0.773,0.772-1.917,1.397-3.437,1.882c0.358,0.098,0.677,0.18,0.94,0.254c0.265,0.07,0.53,0.118,0.794,0.144
			c0.122,0,0.252,0.007,0.399,0.02c0.144,0.01,0.289,0.017,0.434,0.017c1.157,0,2.289-0.249,3.4-0.744
			c1.113-0.496,2.114-1.078,3.008-1.756V27.324z M109.511,29.004c0.029-0.033,0.063-0.063,0.091-0.085
			c0.214-0.244,0.359-0.485,0.43-0.726c0.076-0.244,0.111-0.519,0.111-0.835c0-0.337-0.049-0.697-0.144-1.082
			c-0.1-0.388-0.279-0.946-0.544-1.67c-0.291,0.293-0.585,0.567-0.888,0.835c-0.303,0.265-0.609,0.527-0.923,0.793
			c-0.024,0.027-0.053,0.051-0.091,0.075c-0.039,0.024-0.08,0.049-0.128,0.071c-0.169,0.169-0.34,0.326-0.508,0.473
			c-0.167,0.145-0.337,0.289-0.507,0.435l2.973,1.811C109.432,29.076,109.474,29.046,109.511,29.004z M113.508,20.525
			c0.308-0.385,0.544-0.747,0.709-1.085c0.164-0.337,0.282-0.675,0.354-1.013c0-0.097,0.005-0.193,0.016-0.292
			c0.012-0.095,0.021-0.192,0.021-0.286c0-0.438-0.083-0.793-0.25-1.071c-0.167-0.276-0.392-0.417-0.672-0.417
			c-0.216,0-0.393,0.115-0.535,0.349c-0.14,0.228-0.212,0.523-0.212,0.885c0,0.025,0,0.053,0,0.092c0,0.033,0,0.077,0,0.125
			c0.024,0.387,0.079,0.796,0.163,1.23c0.077,0.435,0.216,0.946,0.406,1.523V20.525z"/>
		<path fill="#FFFFFF" d="M132.596,27.324l0.325,0.47c-0.099,0.097-0.195,0.181-0.29,0.252c-0.099,0.075-0.192,0.147-0.291,0.217
			c-1.035,0.725-2.069,1.274-3.096,1.648c-1.023,0.374-1.975,0.563-2.84,0.563c-0.098,0-0.191,0-0.289,0
			c-0.097,0-0.193-0.014-0.29-0.037c-0.385-0.021-0.797-0.085-1.231-0.183c-0.432-0.094-0.975-0.266-1.624-0.505
			c-0.188,0.048-0.395,0.103-0.598,0.162c-0.206,0.062-0.402,0.117-0.599,0.164c-0.285,0.071-0.586,0.148-0.887,0.238
			c-0.3,0.082-0.609,0.135-0.921,0.16c-0.411,0-0.72-0.158-0.925-0.469c-0.203-0.313-0.341-0.652-0.417-1.013
			c-0.046-0.171-0.076-0.327-0.088-0.473c-0.014-0.144-0.024-0.278-0.024-0.398c0-0.094,0.011-0.182,0.024-0.252
			c0.012-0.071,0.027-0.144,0.053-0.219c0.097-0.143,0.235-0.307,0.417-0.486c0.178-0.187,0.468-0.418,0.851-0.706
			c0.359-0.289,0.708-0.595,1.048-0.923c0.34-0.325,0.679-0.646,1.016-0.96c0.121-0.144,0.246-0.28,0.38-0.413
			c0.13-0.133,0.258-0.262,0.381-0.382c-0.102-0.361-0.168-0.675-0.216-0.94c-0.05-0.267-0.088-0.53-0.11-0.795
			c-0.024-0.125-0.035-0.241-0.035-0.36c0-0.125,0-0.254,0-0.4c0-1.422,0.417-2.685,1.257-3.781c0.844-1.102,2.03-1.647,3.568-1.647
			c0.551,0,0.979,0.155,1.279,0.473c0.296,0.311,0.451,0.761,0.451,1.339c0,0.531-0.128,1.074-0.388,1.63
			c-0.255,0.552-0.673,1.167-1.25,1.843c0.189,0.409,0.368,0.856,0.542,1.337c0.167,0.483,0.29,0.956,0.361,1.412
			c0.025,0.172,0.04,0.334,0.054,0.491c0.011,0.155,0.021,0.317,0.021,0.483c0,1.015-0.388,1.908-1.161,2.68
			c-0.771,0.772-1.915,1.397-3.435,1.882c0.363,0.098,0.679,0.18,0.939,0.254c0.267,0.07,0.53,0.118,0.797,0.144
			c0.121,0,0.251,0.007,0.399,0.02c0.143,0.01,0.285,0.017,0.434,0.017c1.154,0,2.291-0.249,3.399-0.744
			c1.11-0.496,2.111-1.078,3.008-1.756V27.324z M122.942,29.004c0.038-0.033,0.066-0.063,0.09-0.085
			c0.219-0.244,0.363-0.485,0.436-0.726c0.073-0.244,0.108-0.519,0.108-0.835c0-0.337-0.048-0.697-0.146-1.082
			c-0.096-0.388-0.273-0.946-0.541-1.67c-0.291,0.293-0.588,0.567-0.889,0.835c-0.301,0.265-0.609,0.527-0.922,0.793
			c-0.025,0.027-0.056,0.051-0.091,0.075c-0.038,0.024-0.078,0.049-0.127,0.071c-0.173,0.169-0.338,0.326-0.505,0.473
			c-0.171,0.145-0.34,0.289-0.509,0.435l2.973,1.811C122.864,29.076,122.905,29.046,122.942,29.004z M126.943,20.525
			c0.305-0.385,0.54-0.747,0.708-1.085c0.166-0.337,0.283-0.675,0.352-1.013c0-0.097,0.006-0.193,0.019-0.292
			c0.011-0.095,0.018-0.192,0.018-0.286c0-0.438-0.081-0.793-0.246-1.071c-0.167-0.276-0.391-0.417-0.675-0.417
			c-0.214,0-0.391,0.115-0.532,0.349c-0.14,0.228-0.211,0.523-0.211,0.885c0,0.025,0,0.053,0,0.092c0,0.033,0,0.077,0,0.125
			c0.022,0.387,0.076,0.796,0.16,1.23c0.081,0.435,0.217,0.946,0.408,1.523V20.525z"/>
		<path fill="#FFFFFF" d="M147.169,27.288l0.292,0.506c-0.457,0.313-0.907,0.59-1.342,0.834c-0.433,0.24-0.868,0.458-1.303,0.649
			c-1.037,0.437-2.093,0.744-3.17,0.925c-1.07,0.18-2.276,0.271-3.602,0.271c-0.264,0-0.549-0.009-0.85-0.019
			c-0.302-0.012-0.6-0.029-0.888-0.054c-0.99-0.122-1.893-0.409-2.719-0.868c-0.821-0.457-1.232-1.275-1.232-2.459
			c0-0.556,0.088-1.206,0.253-1.953c0.174-0.745,0.427-1.594,0.762-2.531c0.724-1.953,1.805-3.531,3.24-4.738
			c1.434-1.203,3.237-1.808,5.409-1.808c1.108,0,1.951,0.213,2.532,0.635c0.576,0.42,0.869,1.055,0.869,1.897
			c0,0.098-0.011,0.188-0.02,0.272c-0.014,0.082-0.019,0.172-0.019,0.271c-0.17,1.253-0.922,2.467-2.261,3.634
			c-1.339,1.17-3.093,2.161-5.261,2.982c-0.048,0.291-0.085,0.523-0.108,0.71c-0.023,0.176-0.039,0.351-0.039,0.521
			c0,0.024,0,0.052,0,0.087c0,0.038,0,0.069,0,0.097c0,0.771,0.253,1.376,0.746,1.821c0.494,0.448,1.175,0.672,2.047,0.672
			c0.987,0,2.053-0.198,3.187-0.597c1.136-0.399,2.292-0.976,3.475-1.722V27.288z M138.034,24.989
			c0.289-0.217,0.634-0.525,1.033-0.922c0.397-0.396,0.813-0.852,1.249-1.358c0.267-0.291,0.519-0.599,0.759-0.925
			c0.239-0.326,0.481-0.645,0.727-0.959c0.454-0.653,0.834-1.291,1.141-1.919c0.299-0.628,0.451-1.162,0.451-1.595
			c0-0.242-0.08-0.439-0.234-0.597c-0.159-0.157-0.348-0.236-0.562-0.236c-0.075,0-0.141,0.007-0.197,0.02
			c-0.065,0.012-0.119,0.029-0.166,0.055c-0.531,0.219-1.045,0.759-1.538,1.629c-0.496,0.869-0.948,1.809-1.362,2.823
			c-0.307,0.799-0.582,1.563-0.812,2.301c-0.231,0.738-0.392,1.307-0.488,1.72V24.989z"/>
		<path fill="#FFFFFF" d="M168.055,27.324l0.292,0.437c-1.113,0.917-2.254,1.576-3.422,1.972c-1.177,0.401-2.519,0.603-4.037,0.603
			c-1.113,0-2.004-0.126-2.682-0.367c-0.677-0.241-1.221-0.629-1.632-1.155c-0.819,0.526-1.714,0.92-2.677,1.176
			c-0.968,0.25-1.972,0.38-3.006,0.38c-1.332,0-2.328-0.296-2.991-0.891c-0.663-0.592-0.992-1.483-0.992-2.671
			c0-0.506,0.046-1.031,0.145-1.577c0.092-0.546,0.237-1.095,0.433-1.651c0.703-1.913,1.872-3.663,3.511-5.25
			c1.643-1.583,3.504-2.378,5.578-2.378c0.557,0,1.064,0.055,1.521,0.163c0.459,0.108,0.896,0.295,1.306,0.563
			c0.072,0.047,0.148,0.1,0.234,0.159c0.084,0.062,0.162,0.118,0.236,0.165l3.511-9.903l5.758-1.049l-7.352,20.88
			c-0.096,0.269-0.162,0.481-0.201,0.652c-0.034,0.169-0.047,0.326-0.047,0.468c0,0.438,0.147,0.771,0.445,0.999
			c0.305,0.229,0.719,0.344,1.254,0.344c0.649,0,1.385-0.171,2.206-0.506c0.824-0.338,1.689-0.848,2.608-1.523V27.324z
			 M158.73,16.908c-0.35-0.203-0.74-0.306-1.176-0.306c-0.292,0-0.562,0.061-0.815,0.182c-0.255,0.119-0.502,0.314-0.742,0.581
			c-0.363,0.389-0.737,0.969-1.123,1.745c-0.389,0.772-0.822,1.801-1.303,3.086c-0.583,1.528-0.966,2.642-1.162,3.344
			c-0.188,0.703-0.302,1.319-0.327,1.853c0,0.026,0,0.049,0,0.073s0,0.049,0,0.072c0,0.532,0.16,0.959,0.474,1.27
			c0.314,0.318,0.737,0.476,1.271,0.476c0.166,0,0.335-0.011,0.505-0.038c0.169-0.024,0.336-0.07,0.506-0.143
			c0.265-0.099,0.524-0.226,0.779-0.384c0.254-0.157,0.515-0.358,0.777-0.598l-0.071-0.655c0-0.024,0-0.047,0-0.073
			c0-0.118,0.025-0.261,0.071-0.42c0.047-0.154,0.122-0.378,0.218-0.668l3.006-8.466C159.373,17.428,159.079,17.118,158.73,16.908z"
			/>
	</g>
	<polygon fill="#FFFFFF" points="105.757,10.25 100.021,11.423 98.746,15.103 104.506,13.909 	"/>
</g>
</svg>
