<?xml version="1.0" encoding="utf-8"?>
<!-- Generator: Adobe Illustrator 15.0.0, SVG Export Plug-In . SVG Version: 6.00 Build 0)  -->
<!DOCTYPE svg PUBLIC "-//W3C//DTD SVG 1.1//EN" "http://www.w3.org/Graphics/SVG/1.1/DTD/svg11.dtd">
<svg version="1.1" id="Ebene_1" xmlns="http://www.w3.org/2000/svg" xmlns:xlink="http://www.w3.org/1999/xlink" x="0px" y="0px"
	 width="209.711px" height="70.865px" viewBox="0 0 209.711 70.865" enable-background="new 0 0 209.711 70.865"
	 xml:space="preserve">
<image overflow="visible" width="1274" height="338" xlink:href="6D300A14.jpg"  transform="matrix(1 0 0 1 -75.7925 -8.5039)">
</image>
<g>
	<path fill="#E2027B" d="M68.264,0c-0.625,0.635-21.521,21.431-26.22,19.883c-4.57-1.507-1.883-17.917-1.654-19.226
		c-0.239,1.305-3.3,17.615-8.874,20.62c-5.832,3.145-16.032-8.355-16.236-8.595c0.202,0.241,10.287,11.815,6.965,17.636
		C18.866,36.237,0,37.341,0,37.341s18.631-1.938,19.866,4.352c1.07,5.462-14.964,21.881-14.964,21.881S20.814,46.632,25.63,47.94
		c2.193,0.596,6.759,0.031,6.392,0.086c-7.24,1.102-12.852-4.18-11.309-11.854c1.541-7.668,8.659-14.787,15.904-15.862
		c6.298-0.937,8.477,0.5,9.921,5.569c0,0,0.155,0.37,0.113,0.097C45.901,21.01,67.637,0.64,68.264,0z M39.771,0.75
		c0.013-0.083,0.021-0.129,0.021-0.129S39.784,0.667,39.771,0.75z"/>
	<g>
		<g>
			<path fill="#FFFFFF" d="M43.332,40.866l0.382,0.552c-0.113,0.113-0.229,0.212-0.34,0.296c-0.114,0.088-0.227,0.174-0.34,0.256
				c-1.222,0.852-2.435,1.499-3.64,1.939c-1.209,0.441-2.324,0.661-3.346,0.661c-0.113,0-0.227,0-0.34,0
				c-0.113,0-0.227-0.015-0.34-0.042c-0.454-0.027-0.937-0.101-1.446-0.216c-0.515-0.111-1.15-0.311-1.917-0.596
				c-0.227,0.059-0.459,0.124-0.701,0.193c-0.243,0.071-0.476,0.137-0.705,0.193c-0.336,0.084-0.688,0.174-1.042,0.281
				c-0.356,0.094-0.718,0.157-1.087,0.187c-0.483,0-0.844-0.185-1.087-0.552c-0.239-0.368-0.403-0.767-0.489-1.19
				c-0.057-0.202-0.092-0.386-0.104-0.556c-0.015-0.17-0.025-0.328-0.025-0.468c0-0.111,0.01-0.214,0.025-0.298
				c0.012-0.084,0.036-0.168,0.065-0.256c0.113-0.17,0.277-0.363,0.487-0.573c0.214-0.218,0.548-0.491,1.003-0.831
				c0.424-0.34,0.835-0.701,1.234-1.085c0.397-0.384,0.796-0.76,1.192-1.129c0.143-0.17,0.29-0.332,0.449-0.487
				c0.153-0.155,0.305-0.306,0.445-0.449c-0.118-0.424-0.197-0.793-0.254-1.108c-0.059-0.313-0.103-0.621-0.128-0.934
				c-0.027-0.145-0.042-0.283-0.042-0.424c0-0.145,0-0.3,0-0.473c0-1.673,0.496-3.157,1.482-4.448
				c0.989-1.295,2.387-1.938,4.196-1.938c0.649,0,1.152,0.182,1.505,0.556c0.353,0.364,0.529,0.894,0.529,1.576
				c0,0.625-0.151,1.264-0.453,1.916c-0.303,0.651-0.794,1.376-1.472,2.17c0.225,0.483,0.437,1.008,0.636,1.572
				c0.198,0.569,0.34,1.125,0.429,1.663c0.027,0.201,0.046,0.393,0.059,0.577c0.015,0.183,0.025,0.374,0.025,0.571
				c0,1.192-0.458,2.244-1.362,3.151c-0.909,0.909-2.254,1.646-4.043,2.214c0.426,0.114,0.795,0.212,1.106,0.298
				c0.313,0.082,0.626,0.141,0.937,0.17c0.143,0,0.296,0.006,0.47,0.023c0.168,0.013,0.336,0.019,0.508,0.019
				c1.36,0,2.698-0.292,4.001-0.875c1.31-0.583,2.488-1.27,3.54-2.065V40.866z M31.972,42.843c0.044-0.04,0.08-0.076,0.107-0.103
				c0.256-0.285,0.426-0.569,0.512-0.852c0.084-0.286,0.13-0.611,0.13-0.982c0-0.397-0.059-0.821-0.172-1.274
				c-0.118-0.458-0.325-1.113-0.638-1.963c-0.344,0.342-0.69,0.667-1.045,0.98c-0.354,0.311-0.718,0.622-1.087,0.934
				c-0.027,0.032-0.065,0.059-0.105,0.088c-0.04,0.027-0.092,0.057-0.151,0.084c-0.198,0.197-0.397,0.384-0.592,0.556
				c-0.202,0.17-0.403,0.34-0.6,0.51l3.497,2.131C31.882,42.925,31.93,42.89,31.972,42.843z M36.679,32.865
				c0.359-0.452,0.64-0.879,0.838-1.276c0.193-0.397,0.332-0.796,0.411-1.193c0-0.113,0.008-0.228,0.023-0.342
				c0.015-0.114,0.019-0.227,0.019-0.338c0-0.514-0.092-0.933-0.29-1.261c-0.193-0.326-0.46-0.49-0.796-0.49
				c-0.25,0-0.456,0.136-0.621,0.41c-0.166,0.268-0.25,0.616-0.25,1.042c0,0.029,0,0.062,0,0.106c0,0.041,0,0.092,0,0.147
				c0.027,0.457,0.088,0.938,0.189,1.448c0.095,0.513,0.254,1.114,0.477,1.794V32.865z"/>
			<path fill="#FFFFFF" d="M53.71,27.757l-4.434,11.849c-0.195,0.54-0.34,0.993-0.426,1.358c-0.084,0.37-0.128,0.678-0.128,0.937
				c0,0.396,0.143,0.722,0.428,0.976c0.286,0.256,0.655,0.384,1.113,0.384c0.428,0,0.947-0.101,1.56-0.298
				c0.611-0.199,1.232-0.483,1.858-0.85c0.172-0.086,0.335-0.176,0.492-0.277c0.155-0.099,0.318-0.206,0.49-0.319l-0.084-0.634
				c0-0.225,0.043-0.503,0.127-0.829c0.084-0.325,0.227-0.76,0.428-1.293l3.578-9.681l6.861-1.279l-4.475,11.764
				c-0.17,0.481-0.299,0.914-0.381,1.297c-0.09,0.378-0.13,0.714-0.13,0.993c0,0.428,0.132,0.769,0.407,1.022
				c0.267,0.256,0.615,0.384,1.043,0.384c0.651,0,1.471-0.223,2.446-0.662c0.984-0.443,2.083-1.087,3.306-1.942l0.343,0.47
				c-0.968,0.741-1.866,1.327-2.687,1.768c-0.824,0.44-1.634,0.774-2.432,1.003c-0.51,0.17-1.028,0.283-1.556,0.338
				c-0.522,0.057-1.07,0.084-1.64,0.084c-1.222,0-2.231-0.162-3.027-0.487c-0.795-0.33-1.438-0.844-1.92-1.555
				c-0.343,0.197-0.668,0.38-0.98,0.552c-0.311,0.172-0.643,0.313-0.983,0.424c-0.793,0.346-1.604,0.592-2.429,0.75
				c-0.825,0.155-1.694,0.233-2.601,0.233c-1.539,0-2.754-0.305-3.653-0.911c-0.892-0.611-1.339-1.436-1.339-2.483
				c0-0.254,0.027-0.531,0.086-0.827c0.057-0.302,0.128-0.604,0.212-0.916c0.027-0.084,0.05-0.162,0.063-0.233
				c0.017-0.069,0.036-0.151,0.065-0.233l3.579-9.641L53.71,27.757z"/>
			<path fill="#FFFFFF" d="M72.413,42.9l-0.086,0.342l0.086,0.17c0.057,0.029,0.117,0,0.191-0.086
				c0.071-0.084,0.148-0.195,0.234-0.342c0.367-0.846,0.801-1.833,1.298-2.954c0.499-1.121,1.044-2.273,1.644-3.466
				c1.163-2.238,2.57-4.295,4.22-6.168c1.647-1.872,3.538-2.806,5.666-2.806c0.997,0,1.782,0.25,2.366,0.747
				c0.581,0.494,0.873,1.167,0.873,2.017c0,0.256-0.027,0.511-0.084,0.767c-0.057,0.257-0.128,0.51-0.212,0.764l-3.347,8.036
				c-0.139,0.397-0.252,0.75-0.338,1.045c-0.086,0.298-0.126,0.559-0.126,0.785c0,0.454,0.155,0.813,0.466,1.064
				c0.313,0.256,0.742,0.382,1.281,0.382c0.793,0,1.549-0.17,2.259-0.51c0.712-0.338,1.406-0.724,2.087-1.152
				c0.201-0.109,0.398-0.231,0.598-0.361c0.199-0.124,0.398-0.25,0.596-0.361l0.385,0.466c-0.283,0.229-0.561,0.435-0.834,0.622
				c-0.27,0.185-0.543,0.359-0.826,0.533c-1.109,0.653-2.217,1.133-3.326,1.448c-1.107,0.311-2.241,0.468-3.408,0.468
				c-1.621,0-2.877-0.321-3.773-0.955c-0.894-0.643-1.339-1.526-1.339-2.662c0-0.225,0.013-0.459,0.044-0.701
				c0.025-0.239,0.082-0.489,0.166-0.741c0.027-0.145,0.071-0.294,0.126-0.449c0.057-0.158,0.111-0.305,0.17-0.445l3.769-9.227
				l0.128-0.388c0-0.026-0.017-0.047-0.046-0.061c-0.025-0.015-0.067-0.024-0.127-0.024c-0.024,0-0.054,0-0.081,0
				c-0.032,0-0.073,0.024-0.13,0.065c-0.057,0.043-0.141,0.121-0.256,0.235c-1.277,1.02-2.453,2.295-3.513,3.829
				c-1.068,1.525-2.056,3.102-2.964,4.716c-0.483,0.877-0.945,1.751-1.384,2.618c-0.442,0.863-0.862,1.694-1.26,2.486
				c-0.029,0.027-0.05,0.057-0.063,0.082c-0.014,0.029-0.021,0.059-0.021,0.088c-0.342,0.625-0.705,1.037-1.087,1.236
				c-0.385,0.195-0.93,0.298-1.64,0.298c-1.224,0-2.154-0.244-2.792-0.724c-0.639-0.483-0.962-1.192-0.962-2.127
				c0-0.311,0.046-0.657,0.13-1.041c0.086-0.382,0.215-0.816,0.383-1.299l3.707-10.034l6.779-1.234L72.413,42.9z"/>
			<path fill="#FFFFFF" d="M97.136,42.619l-0.132,0.512c0,0.057,0.01,0.09,0.022,0.105c0.015,0.017,0.036,0.036,0.065,0.065h0.044
				c0.081,0,0.269-0.241,0.552-0.726c0.283-0.479,0.582-1.018,0.893-1.614c0.031-0.059,0.059-0.111,0.086-0.17
				c0.029-0.059,0.061-0.113,0.088-0.172c0.281-0.596,0.555-1.148,0.809-1.659c0.254-0.51,0.411-0.837,0.468-0.982
				c0.257-0.537,0.531-1.125,0.833-1.763c0.297-0.641,0.615-1.27,0.958-1.892c0.88-1.677,1.95-3.217,3.216-4.62
				c1.262-1.41,2.863-2.112,4.795-2.112c1.22,0,2.197,0.265,2.936,0.79c0.742,0.526,1.111,1.215,1.111,2.069
				c0,1.762-1.07,3.33-3.22,4.692c-2.144,1.369-4.778,2.164-7.903,2.391l0.043,0.084c1.164,0.027,2.127,0.111,2.879,0.254
				c0.754,0.145,1.453,0.426,2.105,0.846c0.34,0.229,0.688,0.503,1.043,0.827c0.357,0.326,0.748,0.699,1.176,1.124
				c0.313,0.34,0.609,0.617,0.895,0.827c0.283,0.212,0.568,0.375,0.852,0.487c0.197,0.088,0.396,0.149,0.6,0.191
				c0.199,0.044,0.395,0.065,0.594,0.065c0.145,0,0.277-0.006,0.404-0.021c0.127-0.017,0.264-0.036,0.404-0.065
				c0.287-0.057,0.604-0.178,0.961-0.363c0.354-0.185,0.802-0.461,1.344-0.831l0.377,0.47c-1.191,0.995-2.418,1.728-3.682,2.196
				c-1.266,0.466-2.565,0.699-3.902,0.699c-1.73,0-3.223-0.487-4.472-1.467c-1.251-0.979-2.372-2.551-3.365-4.707
				c-0.285,0.479-0.515,0.901-0.683,1.255c-0.17,0.355-0.34,0.689-0.512,1.001l-0.044,0.042c-0.027,0.057-0.063,0.12-0.103,0.191
				c-0.045,0.072-0.078,0.151-0.107,0.235c-0.283,0.594-0.544,1.094-0.769,1.49c-0.227,0.397-0.456,0.725-0.681,0.983
				c-0.313,0.395-0.652,0.646-1.021,0.743c-0.372,0.101-0.842,0.149-1.406,0.149c-1.193,0-2.133-0.275-2.816-0.829
				c-0.68-0.554-1.021-1.308-1.021-2.276c0-0.336,0.033-0.729,0.109-1.169c0.07-0.437,0.188-0.884,0.361-1.337l7.586-21.477
				l6.732-1.321L97.136,42.619z M101.433,37.312c1.079-0.456,2.083-1.039,3.007-1.749c0.919-0.716,1.684-1.467,2.277-2.259
				c0.371-0.483,0.661-0.96,0.875-1.43c0.215-0.469,0.324-0.915,0.324-1.344c0-0.311-0.091-0.573-0.259-0.786
				c-0.168-0.214-0.401-0.322-0.683-0.322c-0.482,0-1.102,0.472-1.854,1.408c-0.752,0.94-1.525,2.176-2.324,3.708
				c-0.227,0.426-0.453,0.873-0.68,1.339c-0.227,0.47-0.455,0.963-0.685,1.472V37.312z"/>
			<path fill="#FFFFFF" d="M122.235,40.313c-0.084,0.311-0.157,0.603-0.214,0.872c-0.059,0.271-0.084,0.533-0.084,0.791
				c0,0.458,0.141,0.811,0.427,1.066c0.283,0.254,0.696,0.38,1.234,0.38c0.768,0,1.5-0.172,2.195-0.529
				c0.697-0.357,1.354-0.762,1.982-1.215c0.227-0.143,0.444-0.283,0.658-0.428c0.215-0.141,0.433-0.284,0.662-0.424l0.381,0.384
				c-1.275,1.134-2.573,1.953-3.898,2.448c-1.322,0.498-2.75,0.75-4.281,0.75c-1.707,0-3.041-0.265-4.006-0.79
				c-0.968-0.527-1.451-1.274-1.451-2.242c0-0.225,0.029-0.475,0.086-0.748c0.059-0.269,0.115-0.543,0.175-0.829
				c0-0.057,0.005-0.113,0.019-0.168c0.016-0.059,0.036-0.113,0.059-0.176l3.838-10.567l6.818-1.408L122.235,40.313z"/>
			<path fill="#FFFFFF" d="M144.842,40.866l0.38,0.552c-0.108,0.113-0.225,0.212-0.338,0.296c-0.115,0.088-0.227,0.174-0.34,0.256
				c-1.222,0.852-2.439,1.499-3.645,1.939c-1.207,0.441-2.319,0.661-3.345,0.661c-0.111,0-0.223,0-0.34,0
				c-0.113,0-0.225-0.015-0.34-0.042c-0.451-0.027-0.936-0.101-1.446-0.216c-0.511-0.111-1.148-0.311-1.913-0.596
				c-0.229,0.059-0.461,0.124-0.705,0.193c-0.236,0.071-0.475,0.137-0.697,0.193c-0.348,0.084-0.692,0.174-1.051,0.281
				c-0.354,0.094-0.715,0.157-1.086,0.187c-0.48,0-0.844-0.185-1.088-0.552c-0.238-0.368-0.4-0.767-0.486-1.19
				c-0.055-0.202-0.092-0.386-0.107-0.556c-0.014-0.17-0.021-0.328-0.021-0.468c0-0.111,0.007-0.214,0.021-0.298
				c0.016-0.084,0.038-0.168,0.065-0.256c0.113-0.17,0.274-0.363,0.489-0.573c0.212-0.218,0.548-0.491,1.002-0.831
				c0.424-0.34,0.837-0.701,1.236-1.085c0.398-0.384,0.795-0.76,1.193-1.129c0.141-0.17,0.293-0.332,0.445-0.487
				c0.156-0.155,0.307-0.306,0.449-0.449c-0.115-0.424-0.199-0.793-0.258-1.108c-0.059-0.313-0.099-0.621-0.126-0.934
				c-0.029-0.145-0.042-0.283-0.042-0.424c0-0.145,0-0.3,0-0.473c0-1.673,0.493-3.157,1.482-4.448
				c0.986-1.295,2.387-1.938,4.193-1.938c0.651,0,1.153,0.182,1.506,0.556c0.353,0.364,0.533,0.894,0.533,1.576
				c0,0.625-0.155,1.264-0.455,1.916c-0.305,0.651-0.794,1.376-1.477,2.17c0.227,0.483,0.439,1.008,0.639,1.572
				c0.201,0.569,0.342,1.125,0.428,1.663c0.027,0.201,0.053,0.393,0.063,0.577c0.015,0.183,0.019,0.374,0.019,0.571
				c0,1.192-0.451,2.244-1.357,3.151c-0.91,0.909-2.256,1.646-4.044,2.214c0.422,0.114,0.798,0.212,1.106,0.298
				c0.311,0.082,0.625,0.141,0.936,0.17c0.144,0,0.297,0.006,0.467,0.023c0.172,0.013,0.344,0.019,0.512,0.019
				c1.363,0,2.693-0.292,4.002-0.875c1.31-0.583,2.487-1.27,3.539-2.065V40.866z M133.485,42.843
				c0.038-0.04,0.076-0.076,0.107-0.103c0.254-0.285,0.426-0.569,0.508-0.852c0.088-0.286,0.129-0.611,0.129-0.982
				c0-0.397-0.057-0.821-0.166-1.274c-0.118-0.458-0.33-1.113-0.643-1.963c-0.34,0.342-0.687,0.667-1.043,0.98
				c-0.357,0.311-0.719,0.622-1.086,0.934c-0.029,0.032-0.063,0.059-0.107,0.088c-0.046,0.027-0.094,0.057-0.15,0.084
				c-0.197,0.197-0.399,0.384-0.597,0.556c-0.199,0.17-0.397,0.34-0.599,0.51l3.5,2.131
				C133.393,42.925,133.444,42.89,133.485,42.843z M138.19,32.865c0.363-0.452,0.641-0.879,0.836-1.276
				c0.19-0.397,0.331-0.796,0.417-1.193c0-0.113,0.007-0.228,0.019-0.342c0.014-0.114,0.021-0.227,0.021-0.338
				c0-0.514-0.099-0.933-0.294-1.261c-0.193-0.326-0.46-0.49-0.79-0.49c-0.254,0-0.461,0.136-0.629,0.41
				c-0.164,0.268-0.25,0.616-0.25,1.042c0,0.029,0,0.062,0,0.106c0,0.041,0,0.092,0,0.147c0.029,0.457,0.092,0.938,0.191,1.448
				c0.094,0.513,0.256,1.114,0.479,1.794V32.865z"/>
			<path fill="#FFFFFF" d="M160.652,40.866l0.384,0.552c-0.115,0.113-0.23,0.212-0.342,0.296c-0.115,0.088-0.227,0.174-0.342,0.256
				c-1.22,0.852-2.436,1.499-3.643,1.939c-1.205,0.441-2.324,0.661-3.342,0.661c-0.115,0-0.227,0-0.342,0
				c-0.113,0-0.227-0.015-0.341-0.042c-0.451-0.027-0.937-0.101-1.446-0.216c-0.512-0.111-1.148-0.311-1.916-0.596
				c-0.221,0.059-0.463,0.124-0.701,0.193c-0.242,0.071-0.475,0.137-0.703,0.193c-0.339,0.084-0.691,0.174-1.044,0.281
				c-0.354,0.094-0.718,0.157-1.085,0.187c-0.483,0-0.846-0.185-1.088-0.552c-0.239-0.368-0.402-0.767-0.491-1.19
				c-0.055-0.202-0.089-0.386-0.103-0.556c-0.016-0.17-0.027-0.328-0.027-0.468c0-0.111,0.012-0.214,0.027-0.298
				c0.014-0.084,0.031-0.168,0.063-0.256c0.115-0.17,0.277-0.363,0.489-0.573c0.212-0.218,0.55-0.491,1.001-0.831
				c0.424-0.34,0.836-0.701,1.234-1.085c0.399-0.384,0.799-0.76,1.197-1.129c0.141-0.17,0.287-0.332,0.445-0.487
				c0.152-0.155,0.304-0.306,0.447-0.449c-0.118-0.424-0.197-0.793-0.254-1.108c-0.06-0.313-0.104-0.621-0.129-0.934
				c-0.029-0.145-0.044-0.283-0.044-0.424c0-0.145,0-0.3,0-0.473c0-1.673,0.493-3.157,1.481-4.448
				c0.992-1.295,2.39-1.938,4.197-1.938c0.648,0,1.152,0.182,1.508,0.556c0.348,0.364,0.528,0.894,0.528,1.576
				c0,0.625-0.149,1.264-0.456,1.916c-0.3,0.651-0.791,1.376-1.471,2.17c0.225,0.483,0.436,1.008,0.638,1.572
				c0.197,0.569,0.341,1.125,0.427,1.663c0.029,0.201,0.046,0.393,0.061,0.577c0.015,0.183,0.025,0.374,0.025,0.571
				c0,1.192-0.456,2.244-1.365,3.151c-0.908,0.909-2.254,1.646-4.041,2.214c0.426,0.114,0.796,0.212,1.104,0.298
				c0.313,0.082,0.626,0.141,0.938,0.17c0.143,0,0.296,0.006,0.469,0.023c0.17,0.013,0.335,0.019,0.51,0.019
				c1.359,0,2.697-0.292,4.003-0.875c1.306-0.583,2.483-1.27,3.537-2.065V40.866z M149.293,42.843
				c0.043-0.04,0.077-0.076,0.104-0.103c0.259-0.285,0.429-0.569,0.513-0.852c0.086-0.286,0.129-0.611,0.129-0.982
				c0-0.397-0.059-0.821-0.17-1.274c-0.115-0.458-0.324-1.113-0.64-1.963c-0.341,0.342-0.69,0.667-1.044,0.98
				c-0.356,0.311-0.717,0.622-1.085,0.934c-0.031,0.032-0.067,0.059-0.108,0.088c-0.045,0.027-0.091,0.057-0.15,0.084
				c-0.201,0.197-0.396,0.384-0.594,0.556c-0.201,0.17-0.4,0.34-0.598,0.51l3.497,2.131C149.201,42.925,149.25,42.89,149.293,42.843
				z M154,32.865c0.36-0.452,0.638-0.879,0.835-1.276c0.195-0.397,0.332-0.796,0.412-1.193c0-0.113,0.01-0.228,0.025-0.342
				c0.012-0.114,0.019-0.227,0.019-0.338c0-0.514-0.097-0.933-0.29-1.261c-0.195-0.326-0.459-0.49-0.795-0.49
				c-0.25,0-0.458,0.136-0.624,0.41c-0.165,0.268-0.247,0.616-0.247,1.042c0,0.029,0,0.062,0,0.106c0,0.041,0,0.092,0,0.147
				c0.025,0.457,0.088,0.938,0.187,1.448c0.095,0.513,0.256,1.114,0.479,1.794V32.865z"/>
			<path fill="#FFFFFF" d="M177.803,40.822l0.344,0.596c-0.539,0.369-1.068,0.695-1.578,0.98c-0.512,0.283-1.024,0.54-1.535,0.764
				c-1.221,0.514-2.464,0.877-3.73,1.089c-1.259,0.212-2.678,0.319-4.238,0.319c-0.311,0-0.646-0.008-1.001-0.021
				c-0.354-0.015-0.703-0.036-1.044-0.063c-1.164-0.145-2.227-0.482-3.199-1.022c-0.965-0.54-1.45-1.501-1.45-2.895
				c0-0.651,0.103-1.417,0.3-2.297c0.202-0.877,0.5-1.875,0.895-2.979c0.853-2.299,2.123-4.157,3.813-5.577
				c1.688-1.416,3.811-2.126,6.365-2.126c1.306,0,2.299,0.25,2.982,0.747c0.677,0.494,1.021,1.241,1.021,2.233
				c0,0.114-0.014,0.221-0.023,0.32c-0.016,0.097-0.021,0.203-0.021,0.318c-0.199,1.475-1.085,2.901-2.66,4.276
				c-1.574,1.377-3.64,2.544-6.19,3.51c-0.057,0.342-0.101,0.617-0.128,0.835c-0.027,0.208-0.044,0.414-0.044,0.613
				c0,0.029,0,0.061,0,0.103c0,0.044,0,0.08,0,0.111c0,0.909,0.296,1.621,0.876,2.146c0.581,0.527,1.381,0.79,2.407,0.79
				c1.163,0,2.417-0.233,3.751-0.703c1.336-0.468,2.698-1.146,4.09-2.024V40.822z M167.053,38.118
				c0.34-0.256,0.744-0.619,1.215-1.085c0.469-0.468,0.957-1.001,1.47-1.6c0.313-0.34,0.61-0.703,0.894-1.087
				c0.282-0.384,0.565-0.758,0.854-1.129c0.537-0.766,0.982-1.518,1.344-2.256c0.352-0.739,0.53-1.367,0.53-1.877
				c0-0.285-0.093-0.517-0.276-0.702c-0.188-0.185-0.408-0.278-0.662-0.278c-0.086,0-0.162,0.008-0.23,0.023
				c-0.076,0.015-0.139,0.036-0.195,0.064c-0.625,0.258-1.229,0.893-1.81,1.917c-0.583,1.023-1.116,2.128-1.603,3.322
				c-0.362,0.94-0.686,1.841-0.955,2.708c-0.272,0.869-0.463,1.539-0.574,2.023V38.118z"/>
			<path fill="#FFFFFF" d="M202.379,40.866l0.344,0.514c-1.309,1.077-2.652,1.854-4.025,2.32c-1.384,0.473-2.965,0.708-4.753,0.708
				c-1.308,0-2.358-0.147-3.155-0.43c-0.796-0.284-1.436-0.741-1.919-1.36c-0.966,0.619-2.017,1.083-3.151,1.383
				c-1.14,0.296-2.319,0.447-3.537,0.447c-1.566,0-2.737-0.349-3.518-1.048c-0.781-0.697-1.17-1.747-1.17-3.143
				c0-0.596,0.055-1.215,0.17-1.855c0.109-0.643,0.281-1.289,0.512-1.944c0.826-2.252,2.201-4.311,4.13-6.178
				c1.934-1.864,4.123-2.798,6.564-2.798c0.655,0,1.251,0.064,1.79,0.191c0.54,0.128,1.055,0.348,1.535,0.662
				c0.086,0.056,0.176,0.118,0.277,0.188c0.099,0.072,0.191,0.14,0.277,0.193l4.131-11.653l6.777-1.234l-8.65,24.572
				c-0.113,0.315-0.192,0.566-0.236,0.768c-0.042,0.2-0.059,0.384-0.059,0.55c0,0.514,0.176,0.905,0.524,1.175
				c0.36,0.269,0.849,0.403,1.476,0.403c0.767,0,1.631-0.2,2.598-0.594c0.969-0.399,1.987-0.997,3.068-1.793V40.866z
				 M191.407,28.609c-0.412-0.24-0.869-0.361-1.384-0.361c-0.342,0-0.661,0.071-0.959,0.214c-0.3,0.141-0.59,0.37-0.874,0.684
				c-0.426,0.458-0.869,1.141-1.32,2.053c-0.459,0.911-0.969,2.12-1.534,3.634c-0.685,1.795-1.138,3.107-1.366,3.932
				c-0.223,0.827-0.355,1.554-0.385,2.181c0,0.03,0,0.057,0,0.086s0,0.059,0,0.086c0,0.625,0.189,1.127,0.557,1.493
				c0.371,0.374,0.867,0.561,1.494,0.561c0.195,0,0.395-0.015,0.595-0.046c0.199-0.027,0.396-0.082,0.597-0.168
				c0.311-0.115,0.617-0.265,0.916-0.451c0.301-0.185,0.605-0.42,0.916-0.703l-0.086-0.771c0-0.029,0-0.057,0-0.086
				c0-0.138,0.031-0.306,0.086-0.493c0.055-0.183,0.143-0.445,0.254-0.787l3.539-9.962
				C192.165,29.219,191.818,28.854,191.407,28.609z"/>
		</g>
		<polygon fill="#FFFFFF" points="129.071,20.773 122.319,22.153 120.819,26.483 127.596,25.078 		"/>
	</g>
	<path fill="#E2027B" d="M42.781,48.614c-0.13-0.895-1.455-1.142-2.96-1.142c-1.325,0-2.443,0.451-2.443,1.161
		c0,0.342,0.309,0.695,1.453,0.829l3.461,0.407c1.505,0.176,2.2,0.772,2.2,1.558c0,1.272-1.661,2.042-4.415,2.042
		c-2.637,0-4.169-0.671-4.333-2.078h1.415c0.038,0.856,1.234,1.352,2.996,1.352c1.929,0,2.998-0.521,2.998-1.22
		c0-1.77-7.114-0.168-7.114-2.84c0-1.23,1.52-1.936,4.051-1.936c1.932,0,3.976,0.396,4.106,1.866H42.781z"/>
	<path fill="#E2027B" d="M59.584,46.748c3.9,0,5.225,1.839,5.225,3.361c0,1.52-1.324,3.361-5.225,3.361
		c-3.896,0-5.224-1.841-5.224-3.361C54.361,48.587,55.688,46.748,59.584,46.748z M59.584,52.744c2.254,0,3.81-1.063,3.81-2.635
		s-1.556-2.637-3.81-2.637c-2.251,0-3.809,1.064-3.809,2.637S57.333,52.744,59.584,52.744z"/>
	<path fill="#E2027B" d="M76.548,46.916h1.337v5.66h5.354V53.3h-6.69V46.916z"/>
	<path fill="#E2027B" d="M100.235,46.916h1.339v3.812c0,1.822-1.801,2.742-4.322,2.742c-2.521,0-4.322-0.919-4.322-2.742v-3.812
		h1.337v3.854c0,1.222,1.068,1.974,2.985,1.974s2.983-0.751,2.983-1.974V46.916z"/>
	<path fill="#E2027B" d="M115.906,47.693h-3.937v-0.777h9.212v0.777h-3.938V53.3h-1.337V47.693z"/>
	<path fill="#E2027B" d="M132.713,46.916h1.338V53.3h-1.338V46.916z"/>
	<path fill="#E2027B" d="M150.768,46.748c3.898,0,5.224,1.839,5.224,3.361c0,1.52-1.325,3.361-5.224,3.361
		c-3.896,0-5.225-1.841-5.225-3.361C145.543,48.587,146.873,46.748,150.768,46.748z M150.768,52.744
		c2.251,0,3.807-1.063,3.807-2.635s-1.556-2.637-3.807-2.637c-2.252,0-3.808,1.064-3.808,2.637S148.516,52.744,150.768,52.744z"/>
	<path fill="#E2027B" d="M174.217,46.916h1.338V53.3h-1.826l-5.689-5.445h-0.023V53.3h-1.339v-6.384h1.831l5.684,5.448h0.025V46.916
		z"/>
	<path fill="#E2027B" d="M193.139,48.614c-0.129-0.895-1.453-1.142-2.961-1.142c-1.324,0-2.445,0.451-2.445,1.161
		c0,0.342,0.311,0.695,1.457,0.829l3.457,0.407c1.51,0.176,2.2,0.772,2.2,1.558c0,1.272-1.658,2.042-4.411,2.042
		c-2.637,0-4.168-0.671-4.336-2.078h1.416c0.041,0.856,1.236,1.352,2.998,1.352c1.928,0,2.996-0.521,2.996-1.22
		c0-1.77-7.115-0.168-7.115-2.84c0-1.23,1.519-1.936,4.055-1.936c1.929,0,3.976,0.396,4.102,1.866H193.139z"/>
</g>
</svg>
