<?xml version="1.0" encoding="utf-8"?>
<!-- Generator: Adobe Illustrator 15.0.0, SVG Export Plug-In . SVG Version: 6.00 Build 0)  -->
<!DOCTYPE svg PUBLIC "-//W3C//DTD SVG 1.1//EN" "http://www.w3.org/Graphics/SVG/1.1/DTD/svg11.dtd">
<svg version="1.1" id="Ebene_1" xmlns="http://www.w3.org/2000/svg" xmlns:xlink="http://www.w3.org/1999/xlink" x="0px" y="0px"
	 width="263px" height="87.873px" viewBox="0 0 263 87.873" enable-background="new 0 0 263 87.873" xml:space="preserve">
<image overflow="visible" width="1274" height="338" xlink:href="E369C887.jpg"  transform="matrix(1 0 0 1 -22.5039 0)">
</image>
<g>
	<path fill="#E2027B" d="M95.641,3.977C94.83,4.801,67.696,31.804,61.595,29.795c-5.934-1.958-2.444-23.266-2.148-24.966
		c-0.311,1.695-4.285,22.874-11.522,26.776c-7.573,4.083-20.818-10.849-21.083-11.161c0.262,0.313,13.357,15.342,9.044,22.901
		C31.498,51.03,7,52.464,7,52.464s24.192-2.517,25.795,5.651c1.39,7.092-19.43,28.412-19.43,28.412s20.662-21.999,26.916-20.3
		c2.848,0.773,8.777,0.04,8.3,0.111c-9.401,1.432-16.688-5.427-14.685-15.393c2-9.957,11.244-19.2,20.651-20.597
		c8.177-1.216,11.007,0.648,12.883,7.231c0,0,0.201,0.48,0.146,0.125C66.603,31.258,94.828,4.807,95.641,3.977z M58.643,4.95
		c0.016-0.108,0.027-0.168,0.027-0.168S58.659,4.842,58.643,4.95z"/>
	<g>
		<g>
			<path fill="#FFFFFF" d="M63.266,57.041l0.496,0.718c-0.148,0.146-0.298,0.274-0.441,0.384c-0.148,0.115-0.295,0.226-0.441,0.333
				c-1.587,1.106-3.163,1.946-4.728,2.519c-1.57,0.572-3.017,0.858-4.345,0.858c-0.147,0-0.294,0-0.442,0s-0.294-0.019-0.442-0.054
				c-0.589-0.035-1.215-0.13-1.878-0.28c-0.668-0.144-1.493-0.404-2.489-0.773c-0.294,0.075-0.596,0.16-0.911,0.25
				c-0.315,0.092-0.618,0.178-0.915,0.25c-0.437,0.109-0.895,0.227-1.353,0.366c-0.463,0.123-0.932,0.204-1.412,0.242
				c-0.627,0-1.096-0.239-1.412-0.716c-0.311-0.478-0.523-0.996-0.636-1.546c-0.073-0.262-0.12-0.501-0.135-0.722
				c-0.02-0.222-0.033-0.425-0.033-0.608c0-0.144,0.014-0.278,0.033-0.387c0.016-0.109,0.046-0.218,0.084-0.333
				c0.147-0.221,0.36-0.472,0.632-0.745c0.278-0.283,0.711-0.637,1.303-1.079c0.551-0.442,1.085-0.911,1.603-1.41
				c0.516-0.499,1.034-0.987,1.548-1.467c0.187-0.221,0.377-0.43,0.583-0.632c0.199-0.202,0.396-0.398,0.578-0.583
				c-0.153-0.55-0.256-1.03-0.33-1.439c-0.076-0.406-0.134-0.807-0.167-1.212c-0.035-0.188-0.055-0.369-0.055-0.551
				c0-0.188,0-0.39,0-0.613c0-2.172,0.644-4.1,1.925-5.776c1.284-1.682,3.099-2.516,5.449-2.516c0.842,0,1.497,0.236,1.955,0.722
				c0.458,0.473,0.686,1.161,0.686,2.045c0,0.812-0.196,1.641-0.588,2.488c-0.393,0.845-1.031,1.787-1.91,2.818
				c0.291,0.627,0.566,1.309,0.825,2.042c0.256,0.739,0.442,1.461,0.557,2.159c0.035,0.262,0.06,0.51,0.076,0.75
				c0.019,0.237,0.033,0.485,0.033,0.741c0,1.549-0.594,2.914-1.77,4.092c-1.179,1.18-2.927,2.137-5.249,2.875
				c0.553,0.148,1.033,0.276,1.436,0.388c0.407,0.107,0.813,0.182,1.216,0.221c0.186,0,0.385,0.008,0.611,0.029
				c0.218,0.017,0.436,0.025,0.659,0.025c1.767,0,3.504-0.379,5.197-1.137c1.701-0.758,3.23-1.649,4.596-2.682V57.041z
				 M48.516,59.608c0.057-0.051,0.103-0.098,0.139-0.133c0.333-0.37,0.554-0.739,0.666-1.106c0.109-0.371,0.169-0.793,0.169-1.275
				c0-0.516-0.077-1.066-0.224-1.655c-0.153-0.594-0.422-1.444-0.829-2.549c-0.447,0.445-0.896,0.867-1.357,1.273
				c-0.461,0.403-0.933,0.807-1.413,1.213c-0.036,0.042-0.084,0.077-0.136,0.115c-0.052,0.036-0.121,0.074-0.196,0.109
				c-0.257,0.256-0.516,0.499-0.769,0.722c-0.263,0.221-0.523,0.442-0.78,0.663l4.541,2.767
				C48.398,59.715,48.461,59.668,48.516,59.608z M54.627,46.652c0.466-0.587,0.831-1.142,1.088-1.657
				c0.25-0.516,0.43-1.034,0.534-1.55c0-0.147,0.01-0.295,0.029-0.444c0.02-0.148,0.025-0.294,0.025-0.438
				c0-0.667-0.12-1.212-0.375-1.637c-0.251-0.423-0.598-0.637-1.034-0.637c-0.324,0-0.591,0.176-0.807,0.532
				c-0.215,0.347-0.324,0.8-0.324,1.353c0,0.037,0,0.08,0,0.138c0,0.052,0,0.12,0,0.19c0.035,0.593,0.114,1.218,0.245,1.881
				c0.123,0.666,0.33,1.446,0.619,2.329V46.652z"/>
			<path fill="#FFFFFF" d="M76.743,40.019l-5.758,15.386c-0.253,0.701-0.441,1.289-0.553,1.764c-0.109,0.48-0.167,0.881-0.167,1.216
				c0,0.515,0.186,0.938,0.556,1.267c0.371,0.333,0.851,0.5,1.445,0.5c0.556,0,1.229-0.131,2.025-0.387
				c0.794-0.259,1.601-0.628,2.413-1.104c0.224-0.111,0.436-0.229,0.639-0.36c0.201-0.128,0.413-0.267,0.636-0.414l-0.109-0.824
				c0-0.291,0.056-0.653,0.165-1.077c0.11-0.422,0.295-0.986,0.556-1.679l4.646-12.571l8.909-1.662l-5.81,15.276
				c-0.221,0.624-0.388,1.186-0.495,1.684c-0.118,0.491-0.169,0.927-0.169,1.29c0,0.556,0.171,0.999,0.529,1.328
				c0.347,0.333,0.799,0.5,1.354,0.5c0.847,0,1.91-0.289,3.177-0.859c1.277-0.576,2.704-1.413,4.292-2.521l0.445,0.61
				c-1.257,0.963-2.423,1.724-3.488,2.296c-1.07,0.572-2.122,1.006-3.159,1.303c-0.662,0.221-1.335,0.368-2.02,0.439
				c-0.678,0.074-1.389,0.109-2.129,0.109c-1.586,0-2.896-0.21-3.93-0.633c-1.032-0.428-1.867-1.095-2.494-2.019
				c-0.445,0.256-0.868,0.493-1.273,0.717c-0.403,0.224-0.834,0.406-1.276,0.55c-1.03,0.45-2.082,0.769-3.153,0.974
				c-1.073,0.201-2.201,0.302-3.378,0.302c-1.998,0-3.577-0.396-4.743-1.183c-1.158-0.793-1.739-1.865-1.739-3.225
				c0-0.329,0.036-0.69,0.112-1.074c0.074-0.393,0.166-0.785,0.276-1.189c0.035-0.109,0.065-0.209,0.082-0.303
				c0.021-0.089,0.046-0.195,0.084-0.301l4.647-12.52L76.743,40.019z"/>
			<path fill="#FFFFFF" d="M101.028,59.682l-0.112,0.444l0.112,0.22c0.074,0.039,0.151,0,0.249-0.111
				c0.093-0.109,0.193-0.254,0.305-0.445c0.477-1.098,1.04-2.379,1.685-3.835c0.649-1.455,1.356-2.952,2.134-4.5
				c1.51-2.906,3.338-5.578,5.479-8.009c2.14-2.431,4.596-3.643,7.357-3.643c1.296,0,2.314,0.324,3.073,0.969
				c0.754,0.642,1.133,1.516,1.133,2.619c0,0.333-0.035,0.664-0.108,0.996c-0.074,0.333-0.166,0.662-0.275,0.992l-4.345,10.435
				c-0.181,0.515-0.329,0.973-0.439,1.357c-0.111,0.387-0.164,0.725-0.164,1.019c0,0.589,0.201,1.055,0.605,1.382
				c0.406,0.333,0.963,0.497,1.663,0.497c1.029,0,2.012-0.221,2.934-0.662c0.924-0.439,1.826-0.941,2.709-1.497
				c0.262-0.142,0.518-0.3,0.776-0.469c0.259-0.161,0.518-0.325,0.773-0.469l0.5,0.605c-0.367,0.297-0.728,0.564-1.082,0.807
				c-0.351,0.24-0.706,0.466-1.074,0.692c-1.44,0.848-2.877,1.472-4.317,1.88c-1.439,0.404-2.912,0.608-4.427,0.608
				c-2.104,0-3.736-0.417-4.899-1.24c-1.161-0.834-1.739-1.982-1.739-3.457c0-0.292,0.017-0.596,0.058-0.911
				c0.032-0.31,0.106-0.635,0.216-0.962c0.036-0.188,0.092-0.381,0.163-0.583c0.074-0.205,0.146-0.396,0.221-0.578l4.894-11.981
				l0.166-0.504c0-0.034-0.021-0.062-0.06-0.079c-0.032-0.019-0.088-0.031-0.164-0.031c-0.032,0-0.07,0-0.105,0
				c-0.042,0-0.095,0.031-0.169,0.084c-0.074,0.056-0.183,0.157-0.332,0.306c-1.658,1.325-3.186,2.981-4.561,4.972
				c-1.389,1.98-2.67,4.028-3.849,6.124c-0.628,1.14-1.228,2.274-1.797,3.399c-0.575,1.121-1.12,2.2-1.635,3.228
				c-0.038,0.036-0.066,0.074-0.083,0.107c-0.018,0.037-0.025,0.075-0.025,0.113c-0.445,0.813-0.917,1.348-1.413,1.606
				c-0.499,0.253-1.206,0.387-2.128,0.387c-1.589,0-2.797-0.316-3.626-0.94c-0.829-0.627-1.249-1.548-1.249-2.762
				c0-0.403,0.06-0.853,0.168-1.352c0.113-0.496,0.28-1.06,0.497-1.688l4.815-13.028l8.803-1.603L101.028,59.682z"/>
			<path fill="#FFFFFF" d="M133.132,59.317l-0.171,0.665c0,0.074,0.012,0.118,0.029,0.137c0.019,0.021,0.046,0.046,0.085,0.084
				h0.057c0.105,0,0.349-0.313,0.716-0.943c0.368-0.622,0.756-1.321,1.159-2.096c0.04-0.077,0.075-0.145,0.111-0.221
				c0.039-0.077,0.079-0.147,0.114-0.223c0.365-0.774,0.721-1.492,1.051-2.154c0.329-0.662,0.533-1.087,0.606-1.276
				c0.334-0.698,0.691-1.46,1.082-2.289c0.386-0.833,0.799-1.649,1.243-2.457c1.145-2.178,2.533-4.178,4.177-5.999
				c1.639-1.831,3.718-2.742,6.227-2.742c1.583,0,2.853,0.343,3.812,1.025c0.963,0.683,1.443,1.578,1.443,2.686
				c0,2.289-1.39,4.324-4.181,6.092c-2.783,1.777-6.205,2.81-10.263,3.105l0.056,0.109c1.512,0.035,2.762,0.145,3.738,0.33
				c0.979,0.188,1.887,0.553,2.733,1.099c0.441,0.297,0.894,0.654,1.354,1.073c0.464,0.423,0.972,0.908,1.527,1.459
				c0.405,0.441,0.791,0.802,1.161,1.074c0.367,0.275,0.738,0.488,1.105,0.632c0.257,0.114,0.514,0.193,0.778,0.248
				c0.26,0.058,0.513,0.085,0.771,0.085c0.188,0,0.361-0.008,0.524-0.027c0.165-0.022,0.343-0.047,0.525-0.085
				c0.372-0.073,0.784-0.231,1.247-0.472c0.46-0.24,1.042-0.599,1.745-1.079l0.49,0.61c-1.548,1.292-3.139,2.243-4.782,2.851
				c-1.643,0.605-3.33,0.908-5.065,0.908c-2.247,0-4.186-0.633-5.807-1.905c-1.624-1.271-3.08-3.313-4.37-6.113
				c-0.369,0.622-0.668,1.17-0.886,1.631c-0.222,0.461-0.441,0.895-0.665,1.3l-0.058,0.054c-0.035,0.074-0.082,0.156-0.133,0.249
				c-0.058,0.093-0.101,0.196-0.139,0.305c-0.368,0.772-0.707,1.42-0.998,1.935c-0.295,0.516-0.593,0.941-0.885,1.276
				c-0.405,0.512-0.847,0.839-1.325,0.965c-0.484,0.131-1.094,0.193-1.826,0.193c-1.55,0-2.771-0.357-3.657-1.076
				c-0.883-0.72-1.327-1.699-1.327-2.955c0-0.437,0.044-0.946,0.142-1.519c0.092-0.566,0.245-1.147,0.47-1.736l9.852-27.887
				l8.741-1.716L133.132,59.317z M138.711,52.425c1.401-0.591,2.705-1.349,3.904-2.27c1.193-0.93,2.187-1.905,2.957-2.934
				c0.483-0.626,0.858-1.247,1.137-1.856c0.279-0.609,0.421-1.188,0.421-1.745c0-0.403-0.118-0.744-0.336-1.021
				c-0.218-0.278-0.521-0.418-0.887-0.418c-0.626,0-1.43,0.612-2.407,1.827c-0.977,1.221-1.98,2.826-3.017,4.815
				c-0.296,0.554-0.589,1.134-0.883,1.739c-0.295,0.611-0.591,1.251-0.89,1.911V52.425z"/>
			<path fill="#FFFFFF" d="M165.722,56.323c-0.108,0.404-0.203,0.783-0.276,1.132c-0.077,0.351-0.11,0.692-0.11,1.027
				c0,0.595,0.184,1.052,0.555,1.384c0.367,0.331,0.904,0.494,1.604,0.494c0.996,0,1.947-0.224,2.85-0.687
				c0.905-0.463,1.758-0.989,2.574-1.579c0.295-0.185,0.578-0.367,0.854-0.556c0.279-0.182,0.563-0.368,0.86-0.551l0.494,0.499
				c-1.656,1.473-3.341,2.536-5.062,3.178c-1.717,0.646-3.571,0.974-5.56,0.974c-2.217,0-3.949-0.344-5.201-1.026
				c-1.257-0.684-1.884-1.653-1.884-2.911c0-0.291,0.037-0.616,0.11-0.971c0.076-0.348,0.149-0.705,0.228-1.076
				c0-0.074,0.006-0.147,0.023-0.218c0.021-0.076,0.048-0.147,0.075-0.229l4.983-13.722l8.855-1.827L165.722,56.323z"/>
			<path fill="#FFFFFF" d="M195.079,57.041l0.492,0.718c-0.14,0.146-0.292,0.274-0.438,0.384c-0.15,0.115-0.295,0.226-0.441,0.333
				c-1.586,1.106-3.168,1.946-4.732,2.519c-1.568,0.572-3.013,0.858-4.344,0.858c-0.145,0-0.288,0-0.44,0
				c-0.147,0-0.293-0.019-0.441-0.054c-0.586-0.035-1.214-0.13-1.879-0.28c-0.663-0.144-1.49-0.404-2.483-0.773
				c-0.297,0.075-0.599,0.16-0.916,0.25c-0.307,0.092-0.615,0.178-0.904,0.25c-0.452,0.109-0.9,0.227-1.365,0.366
				c-0.459,0.123-0.928,0.204-1.41,0.242c-0.623,0-1.096-0.239-1.413-0.716c-0.309-0.478-0.52-0.996-0.631-1.546
				c-0.07-0.262-0.119-0.501-0.14-0.722c-0.018-0.222-0.025-0.425-0.025-0.608c0-0.144,0.008-0.278,0.025-0.387
				c0.021-0.109,0.049-0.218,0.085-0.333c0.146-0.221,0.356-0.472,0.636-0.745c0.275-0.283,0.711-0.637,1.301-1.079
				c0.551-0.442,1.087-0.911,1.605-1.41c0.518-0.499,1.032-0.987,1.55-1.467c0.182-0.221,0.38-0.43,0.577-0.632
				c0.203-0.202,0.399-0.398,0.583-0.583c-0.147-0.55-0.258-1.03-0.334-1.439c-0.076-0.406-0.128-0.807-0.163-1.212
				c-0.038-0.188-0.055-0.369-0.055-0.551c0-0.188,0-0.39,0-0.613c0-2.172,0.64-4.1,1.925-5.776c1.28-1.682,3.1-2.516,5.445-2.516
				c0.846,0,1.497,0.236,1.955,0.722c0.457,0.473,0.692,1.161,0.692,2.045c0,0.812-0.202,1.641-0.591,2.488
				c-0.396,0.845-1.03,1.787-1.918,2.818c0.295,0.627,0.571,1.309,0.829,2.042c0.262,0.739,0.444,1.461,0.555,2.159
				c0.036,0.262,0.069,0.51,0.084,0.75c0.019,0.237,0.023,0.485,0.023,0.741c0,1.549-0.585,2.914-1.763,4.092
				c-1.181,1.18-2.929,2.137-5.25,2.875c0.547,0.148,1.036,0.276,1.436,0.388c0.404,0.107,0.813,0.182,1.216,0.221
				c0.187,0,0.386,0.008,0.606,0.029c0.223,0.017,0.446,0.025,0.664,0.025c1.771,0,3.497-0.379,5.196-1.137
				c1.7-0.758,3.23-1.649,4.597-2.682V57.041z M180.331,59.608c0.049-0.051,0.098-0.098,0.139-0.133
				c0.33-0.37,0.552-0.739,0.659-1.106c0.115-0.371,0.168-0.793,0.168-1.275c0-0.516-0.073-1.066-0.216-1.655
				c-0.153-0.594-0.428-1.444-0.835-2.549c-0.441,0.445-0.891,0.867-1.354,1.273c-0.464,0.403-0.934,0.807-1.41,1.213
				c-0.038,0.042-0.081,0.077-0.14,0.115c-0.061,0.036-0.122,0.074-0.195,0.109c-0.257,0.256-0.519,0.499-0.775,0.722
				c-0.258,0.221-0.516,0.442-0.776,0.663l4.544,2.767C180.211,59.715,180.277,59.668,180.331,59.608z M186.44,46.652
				c0.471-0.587,0.831-1.142,1.085-1.657c0.248-0.516,0.431-1.034,0.541-1.55c0-0.147,0.01-0.295,0.024-0.444
				c0.018-0.148,0.027-0.294,0.027-0.438c0-0.667-0.127-1.212-0.381-1.637c-0.252-0.423-0.598-0.637-1.025-0.637
				c-0.331,0-0.6,0.176-0.817,0.532c-0.213,0.347-0.324,0.8-0.324,1.353c0,0.037,0,0.08,0,0.138c0,0.052,0,0.12,0,0.19
				c0.038,0.593,0.12,1.218,0.248,1.881c0.122,0.666,0.332,1.446,0.622,2.329V46.652z"/>
			<path fill="#FFFFFF" d="M215.607,57.041l0.498,0.718c-0.15,0.146-0.3,0.274-0.443,0.384c-0.15,0.115-0.296,0.226-0.444,0.333
				c-1.584,1.106-3.163,1.946-4.73,2.519c-1.564,0.572-3.018,0.858-4.339,0.858c-0.15,0-0.294,0-0.443,0
				c-0.148,0-0.295-0.019-0.443-0.054c-0.586-0.035-1.217-0.13-1.879-0.28c-0.663-0.144-1.49-0.404-2.486-0.773
				c-0.287,0.075-0.602,0.16-0.911,0.25c-0.314,0.092-0.616,0.178-0.914,0.25c-0.438,0.109-0.896,0.227-1.354,0.366
				c-0.46,0.123-0.932,0.204-1.408,0.242c-0.628,0-1.1-0.239-1.412-0.716c-0.312-0.478-0.523-0.996-0.639-1.546
				c-0.071-0.262-0.116-0.501-0.134-0.722c-0.021-0.222-0.036-0.425-0.036-0.608c0-0.144,0.016-0.278,0.036-0.387
				c0.018-0.109,0.042-0.218,0.082-0.333c0.148-0.221,0.359-0.472,0.635-0.745c0.275-0.283,0.715-0.637,1.3-1.079
				c0.55-0.442,1.085-0.911,1.603-1.41c0.52-0.499,1.037-0.987,1.555-1.467c0.183-0.221,0.373-0.43,0.578-0.632
				c0.197-0.202,0.394-0.398,0.582-0.583c-0.154-0.55-0.256-1.03-0.331-1.439c-0.077-0.406-0.134-0.807-0.167-1.212
				c-0.038-0.188-0.057-0.369-0.057-0.551c0-0.188,0-0.39,0-0.613c0-2.172,0.64-4.1,1.924-5.776c1.288-1.682,3.103-2.516,5.45-2.516
				c0.841,0,1.496,0.236,1.957,0.722c0.451,0.473,0.687,1.161,0.687,2.045c0,0.812-0.194,1.641-0.592,2.488
				c-0.391,0.845-1.028,1.787-1.91,2.818c0.291,0.627,0.565,1.309,0.827,2.042c0.257,0.739,0.443,1.461,0.556,2.159
				c0.037,0.262,0.06,0.51,0.078,0.75c0.019,0.237,0.033,0.485,0.033,0.741c0,1.549-0.593,2.914-1.773,4.092
				c-1.179,1.18-2.926,2.137-5.247,2.875c0.554,0.148,1.034,0.276,1.435,0.388c0.406,0.107,0.813,0.182,1.218,0.221
				c0.186,0,0.385,0.008,0.609,0.029c0.22,0.017,0.436,0.025,0.661,0.025c1.766,0,3.504-0.379,5.199-1.137
				c1.694-0.758,3.224-1.649,4.593-2.682V57.041z M200.857,59.608c0.057-0.051,0.101-0.098,0.136-0.133
				c0.337-0.37,0.557-0.739,0.666-1.106c0.112-0.371,0.168-0.793,0.168-1.275c0-0.516-0.076-1.066-0.222-1.655
				c-0.149-0.594-0.42-1.444-0.829-2.549c-0.444,0.445-0.897,0.867-1.356,1.273c-0.463,0.403-0.932,0.807-1.408,1.213
				c-0.042,0.042-0.088,0.077-0.142,0.115c-0.06,0.036-0.117,0.074-0.194,0.109c-0.263,0.256-0.515,0.499-0.771,0.722
				c-0.261,0.221-0.52,0.442-0.775,0.663l4.541,2.767C200.737,59.715,200.802,59.668,200.857,59.608z M206.969,46.652
				c0.468-0.587,0.828-1.142,1.084-1.657c0.254-0.516,0.432-1.034,0.536-1.55c0-0.147,0.012-0.295,0.031-0.444
				c0.016-0.148,0.025-0.294,0.025-0.438c0-0.667-0.126-1.212-0.377-1.637c-0.254-0.423-0.596-0.637-1.032-0.637
				c-0.326,0-0.595,0.176-0.811,0.532c-0.215,0.347-0.321,0.8-0.321,1.353c0,0.037,0,0.08,0,0.138c0,0.052,0,0.12,0,0.19
				c0.034,0.593,0.114,1.218,0.243,1.881c0.124,0.666,0.331,1.446,0.621,2.329V46.652z"/>
			<path fill="#FFFFFF" d="M237.877,56.984l0.447,0.774c-0.7,0.479-1.387,0.901-2.05,1.273c-0.664,0.368-1.329,0.7-1.992,0.992
				c-1.585,0.667-3.199,1.139-4.846,1.414c-1.633,0.275-3.477,0.414-5.503,0.414c-0.402,0-0.839-0.01-1.299-0.027
				c-0.46-0.019-0.914-0.046-1.356-0.082c-1.512-0.188-2.891-0.626-4.153-1.327c-1.253-0.701-1.884-1.949-1.884-3.759
				c0-0.846,0.134-1.841,0.389-2.983c0.264-1.139,0.65-2.435,1.162-3.868c1.107-2.985,2.757-5.397,4.951-7.242
				c2.19-1.838,4.948-2.761,8.266-2.761c1.695,0,2.983,0.324,3.872,0.969c0.879,0.642,1.327,1.611,1.327,2.9
				c0,0.149-0.018,0.287-0.031,0.416c-0.02,0.125-0.028,0.264-0.028,0.413c-0.258,1.915-1.408,3.767-3.454,5.552
				c-2.045,1.789-4.726,3.304-8.037,4.558c-0.074,0.445-0.132,0.802-0.167,1.085c-0.035,0.27-0.058,0.537-0.058,0.796
				c0,0.038,0,0.079,0,0.134c0,0.057,0,0.104,0,0.145c0,1.18,0.385,2.104,1.138,2.786c0.756,0.684,1.794,1.025,3.127,1.025
				c1.51,0,3.138-0.302,4.869-0.913c1.736-0.608,3.505-1.489,5.311-2.628V56.984z M223.919,53.472
				c0.44-0.332,0.967-0.804,1.577-1.409c0.608-0.607,1.243-1.3,1.909-2.077c0.406-0.441,0.793-0.913,1.159-1.412
				c0.367-0.498,0.735-0.984,1.109-1.467c0.697-0.995,1.275-1.97,1.745-2.93c0.456-0.96,0.688-1.774,0.688-2.438
				c0-0.369-0.12-0.671-0.359-0.911c-0.242-0.241-0.529-0.362-0.858-0.362c-0.111,0-0.211,0.011-0.3,0.03
				c-0.098,0.019-0.181,0.046-0.254,0.083c-0.812,0.335-1.596,1.16-2.349,2.489c-0.758,1.329-1.45,2.764-2.081,4.313
				c-0.471,1.221-0.891,2.391-1.241,3.517c-0.353,1.128-0.6,1.998-0.745,2.627V53.472z"/>
			<path fill="#FFFFFF" d="M269.791,57.041l0.445,0.667c-1.7,1.399-3.444,2.407-5.228,3.013c-1.796,0.613-3.849,0.919-6.17,0.919
				c-1.699,0-3.063-0.191-4.098-0.559c-1.034-0.369-1.865-0.962-2.492-1.767c-1.255,0.804-2.618,1.407-4.092,1.796
				c-1.48,0.384-3.012,0.581-4.594,0.581c-2.033,0-3.555-0.452-4.567-1.36c-1.015-0.905-1.519-2.268-1.519-4.081
				c0-0.774,0.07-1.578,0.22-2.409c0.142-0.834,0.365-1.674,0.665-2.525c1.072-2.925,2.858-5.598,5.363-8.022
				c2.51-2.42,5.354-3.633,8.523-3.633c0.851,0,1.625,0.083,2.324,0.249c0.701,0.166,1.369,0.452,1.993,0.859
				c0.112,0.072,0.229,0.153,0.36,0.244c0.128,0.094,0.248,0.182,0.361,0.251l5.363-15.132l8.8-1.603l-11.232,31.907
				c-0.147,0.409-0.25,0.736-0.308,0.998c-0.054,0.259-0.075,0.499-0.075,0.714c0,0.668,0.229,1.175,0.681,1.526
				c0.468,0.35,1.103,0.524,1.916,0.524c0.995,0,2.117-0.26,3.373-0.772c1.258-0.518,2.58-1.295,3.985-2.328V57.041z
				 M255.543,41.125c-0.537-0.312-1.13-0.468-1.797-0.468c-0.444,0-0.859,0.092-1.245,0.278c-0.39,0.182-0.767,0.48-1.136,0.888
				c-0.554,0.594-1.128,1.481-1.714,2.666c-0.597,1.183-1.259,2.753-1.992,4.719c-0.89,2.331-1.478,4.034-1.775,5.105
				c-0.288,1.074-0.461,2.018-0.499,2.833c0,0.038,0,0.073,0,0.111c0,0.038,0,0.076,0,0.112c0,0.812,0.246,1.464,0.724,1.938
				c0.48,0.485,1.126,0.728,1.939,0.728c0.254,0,0.512-0.019,0.771-0.061c0.26-0.036,0.516-0.106,0.775-0.217
				c0.403-0.15,0.802-0.344,1.189-0.586c0.39-0.239,0.786-0.545,1.189-0.913l-0.112-1.001c0-0.038,0-0.073,0-0.111
				c0-0.18,0.041-0.398,0.112-0.641c0.071-0.237,0.186-0.578,0.33-1.022l4.596-12.936C256.525,41.917,256.076,41.443,255.543,41.125
				z"/>
		</g>
		<polygon fill="#FFFFFF" points="174.6,30.95 165.831,32.742 163.884,38.365 172.684,36.54 		"/>
	</g>
	<path fill="#E2027B" d="M62.552,67.102c-0.169-1.161-1.889-1.482-3.844-1.482c-1.72,0-3.172,0.585-3.172,1.507
		c0,0.443,0.401,0.902,1.886,1.077l4.494,0.528c1.955,0.229,2.857,1.003,2.857,2.023c0,1.651-2.156,2.652-5.732,2.652
		c-3.423,0-5.414-0.872-5.626-2.699h1.838c0.048,1.112,1.603,1.756,3.89,1.756c2.504,0,3.892-0.676,3.892-1.583
		c0-2.298-9.238-0.218-9.238-3.688c0-1.598,1.974-2.513,5.261-2.513c2.508,0,5.163,0.514,5.332,2.423H62.552z"/>
	<path fill="#E2027B" d="M84.37,64.679c5.065,0,6.784,2.387,6.784,4.363c0,1.974-1.719,4.364-6.784,4.364
		c-5.059,0-6.783-2.39-6.783-4.364C77.587,67.066,79.311,64.679,84.37,64.679z M84.37,72.464c2.927,0,4.947-1.38,4.947-3.421
		s-2.02-3.423-4.947-3.423c-2.923,0-4.944,1.381-4.944,3.423S81.447,72.464,84.37,72.464z"/>
	<path fill="#E2027B" d="M106.397,64.896h1.736v7.35h6.951v0.94h-8.688V64.896z"/>
	<path fill="#E2027B" d="M137.155,64.896h1.738v4.95c0,2.366-2.339,3.56-5.612,3.56s-5.612-1.194-5.612-3.56v-4.95h1.734v5.005
		c0,1.587,1.389,2.563,3.878,2.563s3.874-0.976,3.874-2.563V64.896z"/>
	<path fill="#E2027B" d="M157.504,65.906h-5.112v-1.009h11.962v1.009h-5.114v7.281h-1.735V65.906z"/>
	<path fill="#E2027B" d="M179.328,64.896h1.737v8.29h-1.737V64.896z"/>
	<path fill="#E2027B" d="M202.772,64.679c5.062,0,6.783,2.387,6.783,4.363c0,1.974-1.722,4.364-6.783,4.364
		c-5.058,0-6.783-2.39-6.783-4.364C195.989,67.066,197.715,64.679,202.772,64.679z M202.772,72.464c2.924,0,4.944-1.38,4.944-3.421
		s-2.021-3.423-4.944-3.423c-2.923,0-4.944,1.381-4.944,3.423S199.85,72.464,202.772,72.464z"/>
	<path fill="#E2027B" d="M233.221,64.896h1.738v8.29h-2.372l-7.388-7.071h-0.03v7.071h-1.738v-8.29h2.379l7.379,7.074h0.032V64.896z
		"/>
	<path fill="#E2027B" d="M257.792,67.102c-0.167-1.161-1.887-1.482-3.845-1.482c-1.72,0-3.175,0.585-3.175,1.507
		c0,0.443,0.401,0.902,1.891,1.077l4.489,0.528c1.961,0.229,2.856,1.003,2.856,2.023c0,1.651-2.152,2.652-5.727,2.652
		c-3.426,0-5.412-0.872-5.631-2.699h1.839c0.054,1.112,1.605,1.756,3.892,1.756c2.504,0,3.893-0.676,3.893-1.583
		c0-2.298-9.24-0.218-9.24-3.688c0-1.598,1.972-2.513,5.266-2.513c2.504,0,5.162,0.514,5.326,2.423H257.792z"/>
</g>
</svg>
