<?xml version="1.0" encoding="utf-8"?>
<!-- Generator: Adobe Illustrator 15.0.0, SVG Export Plug-In . SVG Version: 6.00 Build 0)  -->
<!DOCTYPE svg PUBLIC "-//W3C//DTD SVG 1.1//EN" "http://www.w3.org/Graphics/SVG/1.1/DTD/svg11.dtd">
<svg version="1.1" id="Calque_1" xmlns="http://www.w3.org/2000/svg" xmlns:xlink="http://www.w3.org/1999/xlink" x="0px" y="0px"
	 width="92px" height="30px" viewBox="0 0 92 30" enable-background="new 0 0 92 30" xml:space="preserve">
<g display="none">
	<g display="inline">
		<path fill="#FFFFFF" d="M9.028,7.88C8.112,8.283,7.314,8.835,6.632,9.537c-0.682,0.702-1.221,1.517-1.618,2.446
			c-0.397,0.929-0.605,1.92-0.625,2.972c0,0.62-0.117,1.204-0.351,1.75c-0.234,0.547-0.549,1.021-0.946,1.425
			c-0.397,0.401-0.865,0.724-1.404,0.959c-0.54,0.238-1.114,0.356-1.725,0.356v3.313c1.038,0,2.019-0.201,2.945-0.604
			c0.925-0.403,1.739-0.949,2.441-1.643c0.702-0.691,1.256-1.496,1.663-2.414c0.407-0.918,0.621-1.904,0.641-2.958
			c0-0.62,0.117-1.203,0.351-1.75c0.234-0.547,0.549-1.032,0.946-1.455c0.396-0.423,0.864-0.753,1.404-0.991
			c0.539-0.237,1.114-0.356,1.724-0.356l-0.122-3.313C10.92,7.277,9.943,7.478,9.028,7.88z M26.207,9.599
			c-0.692-0.701-1.506-1.259-2.442-1.671c-0.936-0.413-1.922-0.62-2.96-0.62c-1.058,0-2.05,0.207-2.976,0.62
			c-0.926,0.413-1.729,0.97-2.411,1.671c-0.682,0.702-1.221,1.523-1.618,2.462c-0.396,0.94-0.595,1.936-0.595,2.988v11.768
			l3.112,3.188V15.049c0-0.619,0.117-1.203,0.351-1.75c0.234-0.547,0.554-1.027,0.961-1.44c0.407-0.413,0.885-0.738,1.435-0.975
			c0.549-0.237,1.129-0.356,1.739-0.356c0.61,0,1.19,0.119,1.739,0.356c0.55,0.237,1.027,0.563,1.435,0.975
			c0.407,0.413,0.728,0.893,0.961,1.44c0.234,0.546,0.351,1.13,0.351,1.75c0,0.641-0.117,1.238-0.351,1.795
			c-0.234,0.559-0.555,1.045-0.961,1.456c-0.407,0.413-0.885,0.738-1.435,0.976c-0.549,0.238-1.129,0.355-1.739,0.355
			c-0.407,0-0.773-0.063-1.099-0.186l-0.763,3.128c0.569,0.145,1.19,0.216,1.861,0.216c1.038,0,2.024-0.2,2.96-0.604
			c0.936-0.402,1.75-0.955,2.442-1.656c0.691-0.701,1.241-1.522,1.648-2.463c0.407-0.938,0.61-1.944,0.61-3.019
			c0-1.053-0.204-2.048-0.61-2.988C27.448,11.122,26.898,10.301,26.207,9.599z M42.475,9.568c-0.692-0.702-1.5-1.254-2.426-1.657
			c-0.926-0.402-1.908-0.604-2.945-0.604c-1.059,0-2.05,0.202-2.976,0.604c-0.926,0.402-1.729,0.955-2.411,1.657
			c-0.682,0.702-1.221,1.522-1.617,2.461c-0.397,0.939-0.595,1.946-0.595,3.019c0,1.073,0.198,2.08,0.595,3.019
			c0.396,0.939,0.935,1.756,1.617,2.447c0.681,0.691,1.485,1.237,2.411,1.641c0.926,0.402,1.917,0.604,2.976,0.604
			c1.037,0,2.019-0.2,2.945-0.604c0.925-0.402,1.734-0.948,2.426-1.641c0.691-0.691,1.241-1.508,1.648-2.447
			c0.407-0.938,0.61-1.944,0.61-3.019c0-1.074-0.203-2.08-0.61-3.019C43.715,11.09,43.166,10.27,42.475,9.568z M41.208,16.798
			c-0.234,0.548-0.549,1.022-0.946,1.425s-0.87,0.723-1.419,0.961c-0.549,0.236-1.128,0.355-1.739,0.355s-1.191-0.119-1.74-0.355
			c-0.55-0.238-1.028-0.559-1.434-0.961c-0.408-0.402-0.728-0.877-0.962-1.425c-0.234-0.547-0.351-1.13-0.351-1.749
			c0-0.619,0.117-1.208,0.351-1.765c0.234-0.557,0.554-1.037,0.962-1.44c0.406-0.402,0.884-0.722,1.434-0.959
			c0.549-0.237,1.129-0.356,1.74-0.356s1.19,0.119,1.739,0.356c0.55,0.237,1.022,0.557,1.419,0.959
			c0.396,0.403,0.712,0.883,0.946,1.44c0.234,0.558,0.351,1.146,0.351,1.765C41.559,15.668,41.442,16.251,41.208,16.798z
			 M59.135,9.568c-0.691-0.702-1.5-1.254-2.426-1.657c-0.926-0.403-1.907-0.604-2.945-0.604c-1.058,0-2.05,0.202-2.975,0.604
			c-0.928,0.402-1.73,0.955-2.411,1.657c-0.683,0.702-1.221,1.522-1.618,2.461c-0.396,0.939-0.595,1.946-0.595,3.019
			c0,1.073,0.198,2.08,0.595,3.019c0.397,0.939,0.936,1.756,1.618,2.447c0.681,0.691,1.483,1.237,2.411,1.641
			c0.925,0.402,1.917,0.604,2.975,0.604c1.038,0,2.02-0.2,2.945-0.604c0.926-0.402,1.734-0.948,2.426-1.641
			c0.691-0.691,1.241-1.508,1.648-2.447c0.406-0.938,0.609-1.944,0.609-3.019c0-1.074-0.203-2.08-0.609-3.019
			C60.376,11.09,59.827,10.27,59.135,9.568z M57.869,16.798c-0.234,0.548-0.549,1.022-0.946,1.425s-0.87,0.723-1.419,0.961
			c-0.549,0.236-1.13,0.355-1.74,0.355c-0.611,0-1.189-0.119-1.738-0.355c-0.551-0.238-1.027-0.559-1.436-0.961
			c-0.406-0.402-0.729-0.877-0.961-1.425c-0.234-0.547-0.352-1.13-0.352-1.749c0-0.619,0.117-1.208,0.352-1.765
			c0.232-0.557,0.555-1.037,0.961-1.44c0.407-0.402,0.885-0.722,1.436-0.959c0.549-0.237,1.127-0.356,1.738-0.356
			c0.61,0,1.19,0.119,1.74,0.356c0.551,0.237,1.021,0.557,1.419,0.959c0.396,0.403,0.711,0.883,0.946,1.44
			c0.234,0.558,0.352,1.146,0.352,1.765C58.221,15.668,58.104,16.251,57.869,16.798z M76.102,9.599
			c-0.691-0.701-1.506-1.259-2.44-1.671c-0.937-0.413-1.935-0.62-2.991-0.62s-2.057,0.207-2.99,0.62
			c-0.937,0.413-1.75,0.97-2.441,1.671c-0.691,0.702-1.235,1.523-1.633,2.462c-0.396,0.94-0.584,1.936-0.564,2.988v7.74h3.174v-7.74
			c0-0.619,0.117-1.208,0.352-1.765c0.233-0.557,0.556-1.037,0.961-1.44c0.408-0.402,0.881-0.722,1.421-0.959
			c0.538-0.237,1.112-0.356,1.724-0.356s1.186,0.119,1.725,0.356c0.539,0.237,1.013,0.557,1.42,0.959
			c0.406,0.403,0.727,0.883,0.961,1.44c0.233,0.558,0.352,1.146,0.352,1.765v7.74h3.174v-7.74c0.021-1.053-0.168-2.048-0.564-2.988
			C77.338,11.122,76.793,10.301,76.102,9.599z M91.498,7.277c-1.036,0-2.014,0.201-2.93,0.604c-0.916,0.402-1.715,0.955-2.396,1.657
			c-0.683,0.702-1.221,1.517-1.618,2.446c-0.396,0.929-0.604,1.92-0.625,2.972c0,0.62-0.117,1.204-0.352,1.75
			c-0.232,0.547-0.549,1.021-0.946,1.425c-0.396,0.401-0.864,0.723-1.403,0.959c-0.539,0.238-1.113,0.355-1.725,0.355v3.313
			c1.038,0,2.02-0.2,2.945-0.604c0.926-0.402,1.74-0.948,2.441-1.641c0.701-0.691,1.256-1.496,1.664-2.416
			c0.404-0.918,0.619-1.904,0.639-2.957c0-0.62,0.117-1.203,0.353-1.75c0.233-0.547,0.55-1.032,0.945-1.455
			c0.397-0.423,0.864-0.753,1.405-0.991c0.537-0.237,1.111-0.356,1.724-0.356L91.498,7.277z"/>
	</g>
</g>
<g>
	<path fill="#E2027B" d="M28.169-0.211c-0.285,0.289-9.792,9.75-11.929,9.046c-2.08-0.687-0.858-8.151-0.753-8.747
		c-0.108,0.593-1.501,8.014-4.036,9.381c-2.653,1.431-7.294-3.801-7.388-3.91c0.093,0.108,4.68,5.375,3.169,8.023
		c-1.538,2.692-10.12,3.194-10.12,3.194s8.477-0.881,9.038,1.981c0.487,2.483-6.808,9.953-6.808,9.953s7.239-7.707,9.43-7.111
		c0.999,0.271,3.076,0.014,2.909,0.039c-3.295,0.502-5.847-1.902-5.146-5.393c0.701-3.489,3.94-6.728,7.236-7.218
		c2.865-0.426,3.857,0.228,4.514,2.534c0,0,0.071,0.168,0.052,0.044C17.994,9.347,27.883,0.08,28.169-0.211z M15.205,0.13
		c0.007-0.039,0.01-0.059,0.01-0.059S15.211,0.092,15.205,0.13z"/>
	<g>
		<g>
			<path fill="#FFFFFF" d="M16.825,18.38l0.174,0.252c-0.051,0.052-0.104,0.097-0.155,0.135c-0.051,0.039-0.104,0.079-0.155,0.116
				c-0.555,0.389-1.107,0.683-1.656,0.883c-0.55,0.2-1.058,0.301-1.522,0.301c-0.051,0-0.103,0-0.154,0
				c-0.052,0-0.104-0.007-0.155-0.019c-0.207-0.014-0.426-0.047-0.658-0.098c-0.233-0.052-0.523-0.144-0.872-0.272
				c-0.103,0.027-0.209,0.057-0.318,0.088c-0.111,0.032-0.217,0.062-0.321,0.088c-0.154,0.038-0.313,0.08-0.475,0.127
				c-0.162,0.043-0.327,0.073-0.494,0.086c-0.22,0-0.385-0.084-0.496-0.251c-0.108-0.168-0.183-0.349-0.222-0.543
				c-0.025-0.091-0.042-0.176-0.048-0.252c-0.006-0.077-0.011-0.148-0.011-0.213c0-0.052,0.005-0.098,0.011-0.136
				c0.006-0.038,0.016-0.077,0.029-0.116c0.052-0.078,0.125-0.165,0.221-0.261c0.098-0.099,0.25-0.224,0.457-0.379
				c0.193-0.155,0.381-0.318,0.562-0.494c0.181-0.173,0.362-0.346,0.543-0.512c0.064-0.078,0.132-0.152,0.204-0.224
				c0.07-0.071,0.139-0.139,0.203-0.203c-0.053-0.193-0.089-0.361-0.115-0.504c-0.026-0.143-0.046-0.284-0.058-0.426
				c-0.013-0.065-0.02-0.129-0.02-0.193c0-0.065,0-0.136,0-0.214c0-0.761,0.226-1.437,0.675-2.023
				c0.45-0.59,1.086-0.882,1.909-0.882c0.294,0,0.524,0.083,0.685,0.253c0.16,0.166,0.242,0.406,0.242,0.717
				c0,0.284-0.069,0.574-0.207,0.871c-0.137,0.296-0.361,0.626-0.67,0.988c0.102,0.219,0.199,0.458,0.289,0.716
				c0.091,0.259,0.155,0.511,0.195,0.756c0.013,0.091,0.021,0.179,0.028,0.262c0.006,0.084,0.011,0.172,0.011,0.262
				c0,0.542-0.208,1.02-0.62,1.433c-0.414,0.414-1.026,0.749-1.839,1.008c0.194,0.051,0.362,0.096,0.503,0.137
				c0.142,0.036,0.284,0.063,0.425,0.076c0.065,0,0.135,0.003,0.214,0.01c0.076,0.007,0.153,0.009,0.232,0.009
				c0.619,0,1.226-0.133,1.82-0.398c0.595-0.265,1.131-0.577,1.609-0.939V18.38z M11.658,19.28c0.021-0.019,0.036-0.034,0.048-0.048
				c0.117-0.129,0.194-0.258,0.233-0.387c0.039-0.13,0.06-0.278,0.06-0.447c0-0.181-0.027-0.374-0.078-0.58
				c-0.054-0.208-0.149-0.506-0.292-0.892c-0.156,0.154-0.313,0.303-0.476,0.445c-0.161,0.142-0.326,0.283-0.494,0.426
				c-0.013,0.014-0.03,0.026-0.048,0.039c-0.019,0.013-0.042,0.026-0.068,0.038c-0.09,0.091-0.181,0.175-0.271,0.253
				c-0.091,0.077-0.183,0.155-0.272,0.232l1.59,0.969C11.617,19.317,11.638,19.302,11.658,19.28z M13.798,14.742
				c0.165-0.207,0.291-0.401,0.38-0.582c0.088-0.18,0.151-0.362,0.189-0.542c0-0.051,0.003-0.104,0.01-0.156
				c0.007-0.051,0.009-0.103,0.009-0.154c0-0.233-0.044-0.423-0.132-0.573c-0.089-0.148-0.209-0.222-0.362-0.222
				c-0.113,0-0.207,0.062-0.283,0.185c-0.076,0.123-0.114,0.281-0.114,0.474c0,0.014,0,0.029,0,0.049c0,0.019,0,0.042,0,0.067
				c0.013,0.208,0.041,0.426,0.085,0.659c0.043,0.233,0.116,0.506,0.217,0.815V14.742z"/>
			<path fill="#FFFFFF" d="M21.547,12.417l-2.017,5.391c-0.09,0.245-0.156,0.451-0.195,0.617c-0.038,0.168-0.058,0.31-0.058,0.427
				c0,0.179,0.065,0.329,0.196,0.444c0.128,0.116,0.296,0.174,0.505,0.174c0.194,0,0.431-0.046,0.709-0.136
				c0.278-0.091,0.561-0.22,0.845-0.386c0.078-0.039,0.153-0.081,0.223-0.127c0.071-0.044,0.145-0.093,0.224-0.145l-0.04-0.289
				c0-0.103,0.02-0.229,0.059-0.377s0.104-0.345,0.194-0.589l1.628-4.404l3.122-0.583l-2.035,5.353
				c-0.078,0.22-0.136,0.416-0.173,0.591c-0.041,0.172-0.059,0.324-0.059,0.452c0,0.194,0.061,0.35,0.185,0.465
				c0.121,0.116,0.28,0.174,0.475,0.174c0.296,0,0.668-0.102,1.113-0.302c0.447-0.2,0.947-0.494,1.504-0.882l0.155,0.214
				c-0.439,0.336-0.849,0.604-1.223,0.804c-0.374,0.201-0.743,0.353-1.105,0.456c-0.231,0.078-0.468,0.13-0.707,0.155
				c-0.239,0.025-0.488,0.038-0.748,0.038c-0.556,0-1.014-0.074-1.377-0.223c-0.361-0.148-0.653-0.384-0.873-0.708
				c-0.156,0.091-0.304,0.175-0.446,0.252c-0.142,0.078-0.292,0.143-0.447,0.193c-0.362,0.157-0.73,0.269-1.105,0.341
				c-0.376,0.07-0.771,0.106-1.184,0.106c-0.7,0-1.253-0.139-1.661-0.416c-0.407-0.277-0.61-0.653-0.61-1.13
				c0-0.115,0.013-0.241,0.039-0.376c0.026-0.136,0.058-0.274,0.097-0.416c0.012-0.038,0.023-0.073,0.029-0.105
				c0.008-0.032,0.017-0.069,0.029-0.106l1.629-4.386L21.547,12.417z"/>
			<path fill="#FFFFFF" d="M30.055,19.306l-0.039,0.156l0.039,0.077c0.026,0.013,0.055,0,0.087-0.04
				c0.032-0.037,0.069-0.089,0.107-0.154c0.167-0.387,0.365-0.834,0.59-1.344c0.228-0.51,0.474-1.034,0.748-1.577
				c0.529-1.019,1.169-1.954,1.919-2.806c0.75-0.852,1.609-1.277,2.579-1.277c0.453,0,0.811,0.114,1.076,0.339
				c0.265,0.226,0.397,0.532,0.397,0.918c0,0.117-0.013,0.232-0.039,0.349c-0.026,0.116-0.058,0.231-0.095,0.347l-1.524,3.656
				c-0.063,0.181-0.115,0.34-0.153,0.476c-0.039,0.136-0.057,0.254-0.057,0.357c0,0.206,0.071,0.368,0.212,0.484
				c0.142,0.115,0.336,0.174,0.583,0.174c0.361,0,0.704-0.078,1.027-0.233c0.324-0.153,0.64-0.329,0.949-0.523
				c0.092-0.051,0.183-0.105,0.272-0.164c0.091-0.058,0.181-0.113,0.271-0.166l0.174,0.214c-0.129,0.104-0.255,0.197-0.379,0.282
				c-0.123,0.084-0.248,0.164-0.375,0.241c-0.506,0.299-1.009,0.517-1.514,0.66c-0.504,0.142-1.02,0.213-1.55,0.213
				c-0.738,0-1.31-0.146-1.717-0.435c-0.406-0.292-0.61-0.693-0.61-1.211c0-0.103,0.007-0.209,0.02-0.318
				c0.013-0.109,0.039-0.224,0.077-0.338c0.012-0.065,0.033-0.134,0.057-0.205c0.026-0.071,0.051-0.139,0.077-0.202l1.716-4.197
				l0.057-0.176c0-0.012-0.007-0.022-0.02-0.028c-0.013-0.007-0.032-0.011-0.058-0.011c-0.012,0-0.025,0-0.038,0
				c-0.014,0-0.033,0.011-0.059,0.029c-0.026,0.019-0.064,0.056-0.116,0.107c-0.582,0.464-1.116,1.044-1.599,1.742
				c-0.486,0.694-0.935,1.412-1.349,2.145c-0.22,0.4-0.43,0.797-0.63,1.19c-0.201,0.394-0.392,0.771-0.572,1.132
				c-0.013,0.013-0.023,0.025-0.029,0.037c-0.006,0.014-0.01,0.026-0.01,0.041c-0.155,0.283-0.321,0.472-0.495,0.561
				c-0.174,0.09-0.423,0.137-0.746,0.137c-0.557,0-0.98-0.11-1.27-0.33c-0.292-0.219-0.438-0.542-0.438-0.967
				c0-0.142,0.021-0.3,0.06-0.475c0.039-0.173,0.096-0.37,0.174-0.59l1.686-4.565l3.083-0.562L30.055,19.306z"/>
			<path fill="#FFFFFF" d="M41.303,19.179l-0.059,0.231c0,0.026,0.004,0.042,0.011,0.049c0.005,0.008,0.015,0.017,0.027,0.029h0.021
				c0.037,0,0.123-0.109,0.251-0.33c0.13-0.218,0.265-0.464,0.406-0.735c0.013-0.026,0.027-0.05,0.04-0.077
				c0.012-0.026,0.026-0.051,0.04-0.078c0.127-0.271,0.25-0.522,0.368-0.754c0.116-0.232,0.187-0.382,0.212-0.447
				c0.117-0.244,0.243-0.513,0.379-0.802c0.136-0.291,0.281-0.579,0.436-0.862c0.4-0.762,0.888-1.463,1.464-2.101
				c0.574-0.641,1.302-0.96,2.181-0.96c0.556,0,1.001,0.12,1.336,0.358c0.338,0.24,0.506,0.554,0.506,0.942
				c0,0.802-0.486,1.515-1.465,2.134c-0.976,0.623-2.174,0.984-3.596,1.088l0.021,0.039c0.529,0.013,0.967,0.051,1.309,0.115
				c0.343,0.065,0.662,0.193,0.959,0.385c0.154,0.104,0.313,0.229,0.474,0.376c0.162,0.148,0.341,0.318,0.535,0.511
				c0.142,0.155,0.276,0.281,0.406,0.378c0.129,0.095,0.259,0.171,0.389,0.22c0.09,0.041,0.179,0.069,0.271,0.088
				c0.092,0.02,0.18,0.029,0.271,0.029c0.064,0,0.126-0.003,0.185-0.01c0.058-0.006,0.118-0.016,0.184-0.029
				c0.13-0.026,0.274-0.081,0.438-0.164c0.161-0.085,0.364-0.212,0.61-0.379l0.173,0.214c-0.543,0.452-1.101,0.785-1.676,0.998
				c-0.576,0.214-1.167,0.319-1.775,0.319c-0.788,0-1.467-0.223-2.034-0.668c-0.57-0.445-1.079-1.16-1.532-2.142
				c-0.129,0.219-0.233,0.41-0.31,0.571c-0.078,0.161-0.155,0.313-0.233,0.456l-0.02,0.019c-0.012,0.025-0.028,0.055-0.047,0.087
				c-0.02,0.032-0.036,0.068-0.048,0.106c-0.13,0.271-0.247,0.498-0.35,0.679c-0.104,0.181-0.207,0.33-0.309,0.447
				c-0.143,0.18-0.298,0.294-0.466,0.339c-0.167,0.045-0.38,0.067-0.638,0.067c-0.543,0-0.971-0.126-1.281-0.378
				c-0.31-0.252-0.465-0.595-0.465-1.035c0-0.154,0.016-0.331,0.05-0.531c0.032-0.199,0.086-0.402,0.164-0.609l3.451-9.771
				l3.064-0.601L41.303,19.179z M43.259,16.764c0.491-0.208,0.946-0.473,1.367-0.796c0.419-0.324,0.767-0.667,1.037-1.027
				c0.168-0.219,0.3-0.437,0.397-0.65c0.098-0.213,0.146-0.417,0.146-0.611c0-0.142-0.041-0.261-0.117-0.358
				c-0.077-0.098-0.182-0.146-0.31-0.146c-0.221,0-0.501,0.214-0.844,0.64c-0.341,0.427-0.695,0.99-1.057,1.687
				c-0.104,0.194-0.207,0.397-0.31,0.609c-0.103,0.215-0.208,0.438-0.311,0.67V16.764z"/>
			<path fill="#FFFFFF" d="M52.722,18.129c-0.038,0.142-0.071,0.274-0.097,0.396c-0.026,0.124-0.038,0.243-0.038,0.36
				c0,0.207,0.063,0.368,0.193,0.484c0.13,0.117,0.316,0.174,0.562,0.174c0.35,0,0.682-0.079,0.999-0.241
				c0.316-0.162,0.616-0.346,0.901-0.553c0.103-0.064,0.202-0.129,0.3-0.193s0.197-0.13,0.301-0.194l0.175,0.174
				c-0.581,0.518-1.173,0.889-1.773,1.115c-0.602,0.226-1.251,0.34-1.949,0.34c-0.775,0-1.383-0.119-1.821-0.358
				c-0.441-0.24-0.659-0.579-0.659-1.02c0-0.103,0.012-0.217,0.038-0.34c0.025-0.123,0.052-0.249,0.079-0.379
				c0-0.025,0.003-0.05,0.008-0.076c0.007-0.025,0.016-0.051,0.028-0.078l1.745-4.809l3.102-0.64L52.722,18.129z"/>
			<path fill="#FFFFFF" d="M63.006,18.38l0.175,0.252c-0.051,0.052-0.103,0.097-0.154,0.135c-0.053,0.039-0.104,0.079-0.155,0.116
				c-0.556,0.389-1.109,0.683-1.657,0.883c-0.55,0.2-1.056,0.301-1.521,0.301c-0.051,0-0.103,0-0.156,0
				c-0.051,0-0.101-0.007-0.153-0.019c-0.206-0.014-0.427-0.047-0.658-0.098c-0.231-0.052-0.521-0.144-0.871-0.272
				c-0.103,0.027-0.209,0.057-0.32,0.088c-0.107,0.032-0.215,0.062-0.318,0.088c-0.156,0.038-0.313,0.08-0.477,0.127
				c-0.16,0.043-0.325,0.073-0.494,0.086c-0.219,0-0.385-0.084-0.494-0.251c-0.109-0.168-0.183-0.349-0.222-0.543
				c-0.026-0.091-0.043-0.176-0.05-0.252c-0.006-0.077-0.008-0.148-0.008-0.213c0-0.052,0.002-0.098,0.008-0.136
				c0.007-0.038,0.018-0.077,0.03-0.116c0.051-0.078,0.125-0.165,0.223-0.261c0.097-0.099,0.249-0.224,0.455-0.379
				c0.194-0.155,0.381-0.318,0.563-0.494c0.181-0.173,0.362-0.346,0.544-0.512c0.063-0.078,0.133-0.152,0.202-0.224
				c0.071-0.071,0.139-0.139,0.204-0.203c-0.052-0.193-0.091-0.361-0.117-0.504s-0.045-0.284-0.058-0.426
				c-0.013-0.065-0.019-0.129-0.019-0.193c0-0.065,0-0.136,0-0.214c0-0.761,0.225-1.437,0.674-2.023
				c0.45-0.59,1.086-0.882,1.909-0.882c0.296,0,0.522,0.083,0.685,0.253c0.16,0.166,0.242,0.406,0.242,0.717
				c0,0.284-0.07,0.574-0.207,0.871c-0.138,0.296-0.361,0.626-0.672,0.988c0.104,0.219,0.2,0.458,0.291,0.716
				c0.091,0.259,0.155,0.511,0.195,0.756c0.012,0.091,0.022,0.179,0.028,0.262c0.006,0.084,0.009,0.172,0.009,0.262
				c0,0.542-0.207,1.02-0.619,1.433c-0.413,0.414-1.025,0.749-1.838,1.008c0.191,0.051,0.361,0.096,0.502,0.137
				c0.142,0.036,0.284,0.063,0.427,0.076c0.064,0,0.134,0.003,0.212,0.01s0.156,0.009,0.232,0.009c0.619,0,1.226-0.133,1.82-0.398
				c0.597-0.265,1.132-0.577,1.609-0.939V18.38z M57.84,19.28c0.019-0.019,0.035-0.034,0.05-0.048
				c0.114-0.129,0.194-0.258,0.231-0.387c0.038-0.13,0.057-0.278,0.057-0.447c0-0.181-0.025-0.374-0.075-0.58
				c-0.054-0.208-0.148-0.506-0.292-0.892c-0.155,0.154-0.313,0.303-0.475,0.445c-0.161,0.142-0.326,0.283-0.495,0.426
				c-0.013,0.014-0.027,0.026-0.047,0.039c-0.021,0.013-0.043,0.026-0.069,0.038c-0.09,0.091-0.181,0.175-0.271,0.253
				c-0.09,0.077-0.18,0.155-0.271,0.232l1.591,0.969C57.798,19.317,57.82,19.302,57.84,19.28z M59.981,14.742
				c0.164-0.207,0.29-0.401,0.379-0.582c0.087-0.18,0.151-0.362,0.189-0.542c0-0.051,0.004-0.104,0.009-0.156
				c0.007-0.051,0.01-0.103,0.01-0.154c0-0.233-0.044-0.423-0.133-0.573c-0.09-0.148-0.209-0.222-0.36-0.222
				c-0.114,0-0.21,0.062-0.286,0.185c-0.074,0.123-0.113,0.281-0.113,0.474c0,0.014,0,0.029,0,0.049c0,0.019,0,0.042,0,0.067
				c0.014,0.208,0.042,0.426,0.086,0.659c0.044,0.233,0.117,0.506,0.22,0.815V14.742z"/>
			<path fill="#FFFFFF" d="M70.199,18.38l0.174,0.252c-0.051,0.052-0.104,0.097-0.155,0.135c-0.051,0.039-0.104,0.079-0.155,0.116
				c-0.555,0.389-1.107,0.683-1.655,0.883c-0.55,0.2-1.058,0.301-1.522,0.301c-0.051,0-0.103,0-0.154,0s-0.104-0.007-0.155-0.019
				c-0.206-0.014-0.426-0.047-0.658-0.098c-0.233-0.052-0.522-0.144-0.871-0.272c-0.102,0.027-0.211,0.057-0.32,0.088
				c-0.109,0.032-0.215,0.062-0.319,0.088c-0.153,0.038-0.313,0.08-0.475,0.127c-0.162,0.043-0.326,0.073-0.493,0.086
				c-0.221,0-0.386-0.084-0.495-0.251c-0.109-0.168-0.184-0.349-0.224-0.543c-0.025-0.091-0.04-0.176-0.047-0.252
				c-0.007-0.077-0.012-0.148-0.012-0.213c0-0.052,0.005-0.098,0.012-0.136s0.015-0.077,0.028-0.116
				c0.052-0.078,0.126-0.165,0.223-0.261c0.097-0.099,0.25-0.224,0.456-0.379c0.193-0.155,0.38-0.318,0.561-0.494
				c0.182-0.173,0.363-0.346,0.544-0.512c0.065-0.078,0.132-0.152,0.203-0.224c0.07-0.071,0.139-0.139,0.203-0.203
				c-0.053-0.193-0.089-0.361-0.114-0.504c-0.027-0.143-0.048-0.284-0.06-0.426c-0.013-0.065-0.02-0.129-0.02-0.193
				c0-0.065,0-0.136,0-0.214c0-0.761,0.225-1.437,0.675-2.023c0.45-0.59,1.086-0.882,1.909-0.882c0.295,0,0.524,0.083,0.685,0.253
				c0.16,0.166,0.24,0.406,0.24,0.717c0,0.284-0.066,0.574-0.205,0.871c-0.137,0.296-0.361,0.626-0.67,0.988
				c0.102,0.219,0.199,0.458,0.29,0.716c0.09,0.259,0.154,0.511,0.192,0.756c0.015,0.091,0.022,0.179,0.028,0.262
				c0.008,0.084,0.012,0.172,0.012,0.262c0,0.542-0.207,1.02-0.62,1.433c-0.413,0.414-1.026,0.749-1.839,1.008
				c0.194,0.051,0.361,0.096,0.503,0.137c0.143,0.036,0.284,0.063,0.426,0.076c0.066,0,0.135,0.003,0.214,0.01
				c0.077,0.007,0.153,0.009,0.231,0.009c0.62,0,1.228-0.133,1.821-0.398c0.595-0.265,1.131-0.577,1.609-0.939V18.38z M65.031,19.28
				c0.021-0.019,0.036-0.034,0.049-0.048c0.117-0.129,0.194-0.258,0.233-0.387c0.038-0.13,0.059-0.278,0.059-0.447
				c0-0.181-0.026-0.374-0.078-0.58c-0.053-0.208-0.148-0.506-0.291-0.892c-0.154,0.154-0.313,0.303-0.475,0.445
				c-0.162,0.142-0.327,0.283-0.494,0.426c-0.014,0.014-0.03,0.026-0.049,0.039s-0.042,0.026-0.069,0.038
				c-0.091,0.091-0.18,0.175-0.27,0.253c-0.092,0.077-0.183,0.155-0.272,0.232l1.591,0.969C64.99,19.317,65.012,19.302,65.031,19.28
				z M67.172,14.742c0.165-0.207,0.291-0.401,0.381-0.582c0.089-0.18,0.151-0.362,0.188-0.542c0-0.051,0.004-0.104,0.011-0.156
				c0.006-0.051,0.009-0.103,0.009-0.154c0-0.233-0.044-0.423-0.133-0.573c-0.088-0.148-0.209-0.222-0.362-0.222
				c-0.112,0-0.207,0.062-0.282,0.185c-0.075,0.123-0.113,0.281-0.113,0.474c0,0.014,0,0.029,0,0.049c0,0.019,0,0.042,0,0.067
				c0.012,0.208,0.04,0.426,0.085,0.659c0.043,0.233,0.116,0.506,0.217,0.815V14.742z"/>
			<path fill="#FFFFFF" d="M78.002,18.36l0.157,0.271c-0.245,0.167-0.486,0.316-0.719,0.445c-0.232,0.13-0.465,0.246-0.697,0.349
				c-0.557,0.233-1.121,0.398-1.698,0.495c-0.572,0.097-1.218,0.146-1.928,0.146c-0.142,0-0.294-0.004-0.456-0.01
				c-0.161-0.007-0.32-0.017-0.474-0.028c-0.53-0.065-1.015-0.22-1.456-0.466c-0.438-0.244-0.659-0.683-0.659-1.317
				c0-0.295,0.046-0.644,0.136-1.044c0.092-0.399,0.228-0.853,0.406-1.355c0.389-1.045,0.967-1.891,1.735-2.537
				c0.768-0.644,1.733-0.967,2.896-0.967c0.594,0,1.046,0.114,1.356,0.339c0.309,0.226,0.465,0.565,0.465,1.016
				c0,0.053-0.006,0.102-0.012,0.146s-0.009,0.093-0.009,0.146c-0.09,0.671-0.492,1.319-1.211,1.945
				c-0.715,0.626-1.654,1.158-2.815,1.597c-0.025,0.155-0.045,0.281-0.058,0.38c-0.012,0.095-0.02,0.188-0.02,0.28
				c0,0.012,0,0.027,0,0.047c0,0.019,0,0.035,0,0.049c0,0.414,0.134,0.737,0.398,0.977c0.264,0.24,0.628,0.358,1.094,0.358
				c0.53,0,1.1-0.105,1.706-0.318c0.609-0.214,1.229-0.521,1.861-0.922V18.36z M73.112,17.13c0.153-0.116,0.338-0.281,0.552-0.493
				c0.213-0.213,0.436-0.456,0.669-0.728c0.143-0.155,0.278-0.32,0.407-0.494c0.128-0.175,0.258-0.346,0.388-0.515
				c0.245-0.349,0.447-0.69,0.611-1.027c0.16-0.336,0.241-0.621,0.241-0.854c0-0.129-0.042-0.234-0.127-0.32
				c-0.084-0.084-0.184-0.126-0.3-0.126c-0.039,0-0.074,0.004-0.106,0.01c-0.032,0.007-0.063,0.017-0.087,0.029
				c-0.284,0.117-0.56,0.406-0.825,0.872c-0.264,0.465-0.507,0.969-0.728,1.512c-0.166,0.427-0.312,0.838-0.435,1.231
				c-0.123,0.396-0.211,0.701-0.261,0.92V17.13z"/>
			<path fill="#FFFFFF" d="M89.184,18.382l0.156,0.232c-0.595,0.491-1.207,0.844-1.832,1.057c-0.629,0.213-1.349,0.32-2.163,0.32
				c-0.594,0-1.071-0.066-1.435-0.195c-0.361-0.129-0.651-0.336-0.873-0.618c-0.438,0.282-0.917,0.493-1.434,0.628
				c-0.518,0.136-1.055,0.204-1.609,0.204c-0.711,0-1.244-0.158-1.601-0.477c-0.354-0.317-0.532-0.794-0.532-1.429
				c0-0.272,0.025-0.555,0.077-0.845c0.051-0.292,0.129-0.587,0.234-0.886c0.374-1.023,1-1.96,1.879-2.81
				c0.879-0.849,1.875-1.273,2.985-1.273c0.298,0,0.569,0.03,0.815,0.087c0.245,0.057,0.479,0.158,0.697,0.301
				c0.039,0.025,0.082,0.054,0.126,0.085c0.047,0.033,0.088,0.063,0.127,0.088l1.879-5.302l3.083-0.561l-3.936,11.18
				c-0.051,0.142-0.087,0.257-0.106,0.348s-0.027,0.175-0.027,0.251c0,0.233,0.08,0.412,0.239,0.534
				c0.164,0.122,0.385,0.184,0.672,0.184c0.348,0,0.742-0.09,1.18-0.271c0.442-0.182,0.905-0.454,1.397-0.815V18.382z
				 M84.191,12.805c-0.188-0.11-0.396-0.165-0.63-0.165c-0.155,0-0.3,0.033-0.436,0.098s-0.269,0.168-0.397,0.311
				c-0.194,0.208-0.395,0.519-0.603,0.934c-0.206,0.415-0.439,0.965-0.697,1.653c-0.311,0.816-0.517,1.414-0.621,1.789
				c-0.102,0.376-0.161,0.707-0.174,0.992c0,0.013,0,0.026,0,0.039c0,0.014,0,0.026,0,0.039c0,0.285,0.085,0.512,0.252,0.681
				c0.169,0.169,0.395,0.253,0.68,0.253c0.09,0,0.18-0.007,0.271-0.021c0.091-0.012,0.181-0.038,0.271-0.076
				c0.143-0.053,0.282-0.121,0.418-0.204c0.137-0.085,0.274-0.192,0.416-0.322l-0.038-0.351c0-0.012,0-0.025,0-0.038
				c0-0.063,0.014-0.14,0.038-0.225c0.025-0.083,0.066-0.203,0.116-0.358l1.609-4.532C84.537,13.082,84.379,12.916,84.191,12.805z"
				/>
		</g>
		<polygon fill="#FFFFFF" points="55.832,9.24 52.76,9.867 52.078,11.838 55.162,11.199 		"/>
	</g>
	<path fill="#E2027B" d="M16.574,21.905c-0.059-0.406-0.661-0.519-1.346-0.519c-0.603,0-1.112,0.205-1.112,0.526
		c0,0.157,0.141,0.318,0.661,0.378l1.575,0.186c0.685,0.08,1.001,0.35,1.001,0.708c0,0.579-0.755,0.93-2.008,0.93
		c-1.2,0-1.896-0.306-1.972-0.945h0.644c0.018,0.391,0.562,0.615,1.364,0.615c0.878,0,1.364-0.237,1.364-0.556
		c0-0.805-3.237-0.075-3.237-1.291c0-0.56,0.691-0.881,1.844-0.881c0.878,0,1.809,0.181,1.867,0.849H16.574z"/>
	<path fill="#E2027B" d="M24.219,21.057c1.775,0,2.377,0.837,2.377,1.527c0,0.693-0.602,1.53-2.377,1.53
		c-1.772,0-2.376-0.837-2.376-1.53C21.843,21.894,22.447,21.057,24.219,21.057z M24.219,23.784c1.025,0,1.733-0.482,1.733-1.2
		c0-0.715-0.708-1.197-1.733-1.197c-1.024,0-1.732,0.482-1.732,1.197C22.487,23.302,23.195,23.784,24.219,23.784z"/>
	<path fill="#E2027B" d="M31.937,21.133h0.609v2.575h2.435v0.329h-3.043V21.133z"/>
	<path fill="#E2027B" d="M42.714,21.133h0.609v1.734c0,0.829-0.82,1.247-1.967,1.247s-1.966-0.418-1.966-1.247v-1.734h0.608v1.754
		c0,0.556,0.486,0.897,1.358,0.897s1.358-0.342,1.358-0.897V21.133z"/>
	<path fill="#E2027B" d="M49.843,21.486h-1.791v-0.354h4.191v0.354h-1.791v2.551h-0.609V21.486z"/>
	<path fill="#E2027B" d="M57.488,21.133h0.609v2.904h-0.609V21.133z"/>
	<path fill="#E2027B" d="M65.703,21.057c1.774,0,2.377,0.837,2.377,1.527c0,0.693-0.603,1.53-2.377,1.53
		c-1.773,0-2.377-0.837-2.377-1.53C63.326,21.894,63.93,21.057,65.703,21.057z M65.703,23.784c1.023,0,1.732-0.482,1.732-1.2
		c0-0.715-0.709-1.197-1.732-1.197c-1.024,0-1.732,0.482-1.732,1.197C63.971,23.302,64.679,23.784,65.703,23.784z"/>
	<path fill="#E2027B" d="M76.371,21.133h0.609v2.904h-0.831l-2.588-2.478H73.55v2.478h-0.608v-2.904h0.831l2.587,2.479h0.012V21.133
		z"/>
	<path fill="#E2027B" d="M84.979,21.905c-0.058-0.406-0.661-0.519-1.346-0.519c-0.604,0-1.112,0.205-1.112,0.526
		c0,0.157,0.141,0.318,0.662,0.378l1.573,0.186c0.686,0.08,1.001,0.35,1.001,0.708c0,0.579-0.755,0.93-2.007,0.93
		c-1.2,0-1.896-0.306-1.973-0.945h0.644c0.019,0.391,0.563,0.615,1.364,0.615c0.878,0,1.363-0.237,1.363-0.556
		c0-0.805-3.236-0.075-3.236-1.291c0-0.56,0.69-0.881,1.843-0.881c0.879,0,1.81,0.181,1.867,0.849H84.979z"/>
</g>
</svg>
