<?xml version="1.0" encoding="utf-8"?>
<!-- Generator: Adobe Illustrator 13.0.0, SVG Export Plug-In . SVG Version: 6.00 Build 14948)  -->
<!DOCTYPE svg PUBLIC "-//W3C//DTD SVG 1.1//EN" "http://www.w3.org/Graphics/SVG/1.1/DTD/svg11.dtd">
<svg version="1.1" id="Calque_1" xmlns="http://www.w3.org/2000/svg" xmlns:xlink="http://www.w3.org/1999/xlink" x="0px" y="0px"
	 width="85px" height="85px" viewBox="0 0 85 85" enable-background="new 0 0 85 85" xml:space="preserve">
<path fill="#FFFFFF" d="M85.67,43.094c0.005-0.283-0.099-0.567-0.314-0.783c-2.158-2.158-6.712-5.88-12.976-6.573
	c-1.771-0.196-3.53-0.121-5.262,0.217c0.709-0.624,1.266-1.142,1.57-1.477c1.3-1.43,2.144-4.532,1.241-7.049
	c-0.535-1.493-1.885-3.376-5.279-3.872c-0.793-0.116-1.517-0.108-2.174-0.005c0.115-0.679,0.129-1.431,0.009-2.256
	c-0.496-3.395-2.379-4.745-3.871-5.28c-2.517-0.901-5.619-0.058-7.05,1.241c-0.335,0.305-0.853,0.862-1.477,1.571
	c0.337-1.73,0.413-3.49,0.217-5.262C49.612,7.303,45.89,2.749,43.732,0.591c-0.217-0.216-0.5-0.319-0.784-0.314
	c-0.283-0.005-0.567,0.099-0.783,0.314c-2.157,2.158-5.88,6.712-6.572,12.975c-0.196,1.772-0.121,3.532,0.216,5.262
	c-0.624-0.709-1.142-1.266-1.477-1.571c-1.43-1.299-4.532-2.144-7.049-1.241c-1.493,0.535-3.375,1.885-3.872,5.28
	c-0.115,0.792-0.108,1.517-0.004,2.174c-0.679-0.117-1.431-0.13-2.256-0.009c-3.395,0.496-4.745,2.379-5.28,3.872
	c-0.902,2.517-0.058,5.619,1.242,7.049c0.304,0.335,0.861,0.853,1.57,1.476c-1.73-0.337-3.49-0.413-5.262-0.217
	C7.16,36.335,2.604,40.058,0.447,42.215c-0.216,0.217-0.32,0.5-0.314,0.783c-0.005,0.283,0.099,0.566,0.314,0.782
	c2.157,2.158,6.712,5.881,12.975,6.574c0.646,0.071,1.289,0.107,1.932,0.107c1.118,0,2.229-0.109,3.329-0.324
	c-0.708,0.624-1.265,1.141-1.568,1.475c-1.3,1.431-2.144,4.533-1.242,7.05c0.535,1.493,1.885,3.375,5.28,3.873
	c0.397,0.057,0.777,0.084,1.141,0.084c0.361,0,0.706-0.027,1.033-0.08c-0.117,0.679-0.129,1.431-0.008,2.256
	c0.496,3.395,2.378,4.745,3.871,5.278c2.517,0.903,5.619,0.059,7.049-1.241c0.335-0.303,0.853-0.861,1.477-1.569
	c-0.337,1.731-0.413,3.489-0.216,5.262c0.692,6.264,4.415,10.817,6.572,12.975c0.211,0.212,0.487,0.317,0.763,0.317
	c0.006,0,0.013-0.002,0.02-0.002c0.005,0,0.013,0.002,0.019,0.002c0.276,0,0.553-0.105,0.764-0.317
	c2.157-2.157,5.88-6.711,6.572-12.975c0.196-1.772,0.121-3.53-0.217-5.262c0.624,0.708,1.142,1.267,1.477,1.569
	c1.431,1.3,4.532,2.145,7.05,1.241c1.492-0.533,3.375-1.884,3.871-5.278c0.115-0.792,0.109-1.517,0.005-2.174
	c0.352,0.061,0.724,0.095,1.115,0.095c0.363,0,0.744-0.027,1.141-0.086c3.395-0.496,4.744-2.38,5.279-3.871
	c0.902-2.519,0.059-5.619-1.241-7.051c-0.304-0.335-0.86-0.852-1.567-1.475c1.098,0.215,2.209,0.322,3.328,0.322
	c0.642,0,1.285-0.035,1.931-0.106c6.264-0.693,10.817-4.415,12.976-6.573C85.571,43.66,85.675,43.375,85.67,43.094 M53.017,18.856
	c0.723-0.657,2.968-1.489,4.868-0.807c1.361,0.487,2.19,1.685,2.463,3.558c0.405,2.768-1.232,4.043-2.758,4.294
	c-1.31,0.215-2.854-0.296-3.154-1.929c-0.107-0.586-0.67-0.975-1.257-0.867c-0.586,0.107-0.975,0.669-0.866,1.256
	c0.243,1.332,1.004,2.427,2.142,3.083c1.004,0.58,2.235,0.788,3.473,0.588c-0.004,0.022-0.008,0.045-0.013,0.067
	c-0.203,1.24,0.005,2.479,0.586,3.487c0.658,1.137,1.753,1.898,3.084,2.143c0.586,0.107,1.15-0.281,1.257-0.868
	c0.107-0.586-0.281-1.149-0.867-1.256c-1.632-0.299-2.145-1.845-1.929-3.154c0.251-1.526,1.528-3.163,4.294-2.759
	c1.873,0.274,3.07,1.103,3.559,2.464c0.681,1.9-0.149,4.146-0.808,4.869c-0.769,0.846-3.622,3.229-6.361,5.458
	c-1.365,0.832-2.692,1.843-3.975,3.029c-1.644-1.432-3.968-2.967-6.889-2.967h-0.006c-0.864,0-1.727,0.14-2.585,0.414
	c0.542-1.726,0.533-3.481-0.029-5.253c-0.584-1.834-1.68-3.371-2.691-4.54c1.175-1.274,2.179-2.594,3.006-3.95
	C49.788,22.479,52.171,19.625,53.017,18.856 M45.282,50.008c-0.001,2.104-1.144,3.917-2.292,5.279l-0.061-0.077l-0.075,0.075
	l-0.076-0.075l-0.074,0.093c-0.824-0.979-1.647-2.183-2.088-3.573c-0.676-2.129-0.298-4.209,1.156-6.305
	c0.27-0.2,0.541-0.417,0.81-0.646c0.4,0.358,0.804,0.688,1.209,0.981C44.783,47.193,45.284,48.615,45.282,50.008 M30.662,42.998
	l0.076-0.076l-0.095-0.073c0.979-0.824,2.185-1.647,3.575-2.088c2.11-0.67,4.169-0.305,6.246,1.117
	c0.213,0.289,0.443,0.577,0.689,0.863c-0.338,0.38-0.649,0.76-0.931,1.143c-1.443,1.002-2.875,1.502-4.28,1.502h-0.004
	c-2.095,0-3.902-1.125-5.262-2.264l0.061-0.048L30.662,42.998z M40.52,36.083c0.002-2.104,1.144-3.917,2.292-5.28l0.062,0.078
	l0.075-0.075l0.076,0.075l0.074-0.094c0.823,0.979,1.646,2.184,2.088,3.574c0.678,2.13,0.299,4.209-1.156,6.305
	c-0.27,0.2-0.54,0.417-0.809,0.645c-0.401-0.36-0.806-0.688-1.211-0.983C41.018,38.897,40.519,37.476,40.52,36.083 M44.65,43.35
	c0.338-0.379,0.648-0.758,0.93-1.141c1.442-1.002,2.876-1.502,4.279-1.502h0.004c2.097,0,3.902,1.124,5.264,2.262l-0.062,0.049
	l0.075,0.076l-0.075,0.075l0.094,0.073c-0.979,0.824-2.184,1.647-3.573,2.089c-2.111,0.671-4.172,0.306-6.248-1.116
	C45.126,43.926,44.895,43.638,44.65,43.35 M37.739,13.804c0.547-4.946,3.239-8.736,5.209-10.904
	c1.971,2.167,4.663,5.958,5.21,10.904c0.386,3.498-0.386,6.871-2.298,10.078c-1.146,1.408-2.2,2.727-2.906,3.611
	c-0.011-0.011-0.023-0.02-0.035-0.029c-0.706-0.884-1.75-2.189-2.884-3.582C38.124,20.674,37.352,17.302,37.739,13.804
	 M18.712,32.931c-0.657-0.723-1.488-2.968-0.808-4.869c0.488-1.361,1.686-2.189,3.559-2.463c2.768-0.404,4.042,1.233,4.293,2.758
	c0.215,1.31-0.296,2.855-1.928,3.154c-0.586,0.107-0.975,0.67-0.867,1.256c0.107,0.587,0.67,0.975,1.257,0.867
	c1.331-0.244,2.426-1.004,3.083-2.142c0.58-1.004,0.788-2.237,0.587-3.474c0.023,0.004,0.045,0.009,0.068,0.013
	c1.24,0.205,2.479-0.004,3.487-0.586c1.138-0.656,1.898-1.752,2.142-3.083c0.108-0.587-0.28-1.149-0.868-1.256
	c-0.585-0.108-1.149,0.281-1.256,0.867c-0.299,1.633-1.845,2.145-3.154,1.929c-1.525-0.251-3.164-1.526-2.759-4.294
	c0.274-1.874,1.103-3.071,2.464-3.558c1.9-0.681,4.146,0.15,4.869,0.807c0.845,0.769,3.228,3.623,5.457,6.361
	c0.83,1.36,1.836,2.684,3.018,3.962c-1.441,1.644-2.995,3.973-2.997,6.902c-0.001,0.862,0.14,1.722,0.414,2.578
	c-1.713-0.528-3.453-0.516-5.21,0.042c-1.834,0.583-3.372,1.679-4.541,2.692c-1.275-1.176-2.595-2.18-3.951-3.007
	C22.334,36.16,19.481,33.776,18.712,32.931 M13.66,48.208c-4.947-0.549-8.736-3.239-10.904-5.21
	c2.167-1.971,5.957-4.663,10.904-5.209c3.497-0.387,6.87,0.385,10.077,2.297c1.408,1.145,2.727,2.201,3.611,2.906
	c-0.01,0.012-0.019,0.023-0.028,0.035c-0.884,0.705-2.19,1.75-3.583,2.883C20.53,47.823,17.157,48.594,13.66,48.208 M32.787,67.235
	c-0.724,0.656-2.968,1.487-4.869,0.807c-1.361-0.489-2.19-1.687-2.464-3.558c-0.404-2.769,1.233-4.044,2.759-4.296
	c1.31-0.216,2.854,0.297,3.154,1.929c0.107,0.588,0.67,0.977,1.256,0.867c0.587-0.107,0.976-0.67,0.869-1.256
	c-0.245-1.332-1.005-2.426-2.143-3.084c-1.004-0.579-2.237-0.787-3.473-0.588c0.004-0.023,0.008-0.044,0.012-0.067
	c0.204-1.239-0.004-2.479-0.586-3.486c-0.657-1.138-1.753-1.899-3.083-2.143c-0.587-0.107-1.15,0.281-1.257,0.867
	c-0.108,0.587,0.281,1.149,0.867,1.258c1.632,0.299,2.144,1.845,1.928,3.153c-0.251,1.525-1.525,3.161-4.293,2.758
	c-1.874-0.272-3.071-1.103-3.559-2.464c-0.681-1.898,0.151-4.144,0.807-4.867c0.77-0.847,3.625-3.231,6.365-5.461
	c1.364-0.831,2.692-1.842,3.973-3.026c1.643,1.432,3.967,2.966,6.888,2.966h0.005c0.866,0,1.728-0.14,2.585-0.414
	c-0.541,1.727-0.533,3.48,0.03,5.254c0.583,1.833,1.679,3.371,2.693,4.539c-1.176,1.274-2.18,2.596-3.007,3.95
	C36.016,63.612,33.632,66.467,32.787,67.235 M48.063,72.287c-0.548,4.947-3.239,8.736-5.209,10.903
	c-1.971-2.167-4.663-5.956-5.21-10.903c-0.387-3.497,0.385-6.87,2.298-10.078c1.145-1.407,2.2-2.726,2.906-3.61
	c0.011,0.011,0.023,0.019,0.036,0.029c0.705,0.885,1.749,2.188,2.883,3.581C47.678,65.417,48.45,68.79,48.063,72.287 M67.09,53.16
	c0.658,0.723,1.488,2.969,0.808,4.869c-0.488,1.361-1.686,2.188-3.559,2.464c-2.768,0.403-4.043-1.232-4.294-2.76
	c-0.216-1.309,0.297-2.854,1.929-3.153c0.586-0.106,0.975-0.67,0.867-1.256c-0.106-0.587-0.67-0.977-1.257-0.867
	c-1.331,0.243-2.426,1.004-3.084,2.141c-0.579,1.005-0.787,2.238-0.588,3.474c-0.021-0.004-0.044-0.008-0.067-0.013
	c-1.239-0.203-2.479,0.005-3.486,0.586c-1.138,0.658-1.897,1.752-2.142,3.084c-0.108,0.586,0.28,1.148,0.866,1.256
	c0.586,0.109,1.15-0.279,1.258-0.867c0.299-1.632,1.844-2.143,3.153-1.929c1.525,0.252,3.162,1.527,2.759,4.296
	c-0.273,1.871-1.103,3.068-2.464,3.558c-1.9,0.681-4.145-0.15-4.868-0.807c-0.846-0.769-3.229-3.623-5.458-6.362
	c-0.829-1.36-1.836-2.684-3.018-3.961c1.44-1.645,2.995-3.973,2.997-6.902c0-0.863-0.141-1.723-0.414-2.579
	c0.834,0.258,1.674,0.389,2.52,0.389c0.892,0,1.79-0.143,2.691-0.431c1.833-0.582,3.37-1.679,4.539-2.691
	c1.274,1.175,2.594,2.177,3.948,3.003C63.466,49.93,66.321,52.314,67.09,53.16 M72.143,48.303
	c-3.497,0.388-6.869-0.384-10.075-2.296c-1.41-1.146-2.728-2.202-3.612-2.907c0.01-0.012,0.02-0.023,0.029-0.036
	c0.884-0.704,2.189-1.75,3.582-2.883c3.206-1.912,6.578-2.684,10.076-2.297c4.948,0.547,8.737,3.239,10.903,5.21
	C80.88,45.063,77.091,47.756,72.143,48.303 M84.593,44.154c0.275,0,0.552-0.105,0.763-0.316
	C85.145,44.049,84.868,44.154,84.593,44.154"/>
</svg>
